<svg height="500" viewBox="0 0 500 500" width="500" xmlns="http://www.w3.org/2000/svg" xmlns:xlink="http://www.w3.org/1999/xlink"><pattern id="a" patternTransform="matrix(-.6023178 -.03589748 .02750887 -.46156624 477.45709 183.70643)" xlink:href="#b"/><pattern id="b" patternTransform="matrix(.60265818 -.02963969 .0227134 .46182709 429.29312 226.16516)" xlink:href="#c"/><pattern id="c" patternTransform="matrix(.67936767 .06343359 -.07034257 .75336216 429.29312 226.16516)" xlink:href="#d"/><pattern id="d" height="100" patternTransform="translate(1057.4773 237.36242)" patternUnits="userSpaceOnUse" width="100"><path d="m.0001.0023094v99.9976896h1.827s.123-.91465-.076-1.79941l.076-98.1982796zm14.2293 99.9976896c.022-1.20613-.073-4.4733.082-5.40164 2.699-16.2181.8803-32.8723 1.0149-49.31283.067-8.13994.1081-16.28294-.1028-24.42042-.1803-6.95693-.6624-13.8979996-.9938-20.8627996h-1.5605c-.4064 1.26545.381 4.46862.2427 5.83113-2.189 21.5651496.601 43.3512196.4238 65.0264396-.079 9.71559-.3648 19.43582-.6666 29.14012zm85.7707-37.54791c-.5872-.002-2.0333.20446-2.5641.13951-13.5634.69746-27.0936 2.24599-40.674 2.36105-13.2775.1125-26.5373-1.00709-39.8005-1.63426-5.0625-.23939-15.1828-.81251-15.1828-.81251l-1.7787-.001v1.06628c.4193.19818.7972.0645 1.7776.2823 1.7576.39048 4.3577 1.1281 4.8274 1.36974 8.6151 4.43199 19.1106 3.84496 28.5624 5.29911 15.656 2.40867 31.6834.23509 47.5206-.0711 5.7736-.11162 11.5111-.35062 17.312-.64371v-1.10572l-6.7398.30486c-17.4419.5221-34.9273 1.69055-52.3453.63981-9.1978-.55485-18.3498-1.9277-27.4003-3.65823-3.126-.59773-8.4247-1.85155-9.2626-2.31715 14.8747.75068 30.8773 2.52447 46.3505 2.53489 16.4893.0111 32.8948-1.80256 49.3975-2.63481zm-100 7.36763c2.0626-.20287 4.2746-.4556 6.3619-.0801 1.2347.22214 2.7384 2.34456 3.5109 1.35608.4075-.52145-.5874-1.26305-1.1421-1.62395-1.5666-1.01916-3.6331-.99976-5.4998-1.09034-1.082-.0525-2.2563.0138-3.2309.32037zm26.4969 30.18028c0-1.27501.6442-4.13822 1.0241-6.19725 1.0723-5.81251 2.7569-11.51621 3.5417-17.37446 1.6075-11.9987 2.0284-24.13924 2.3683-36.24035.376-13.3876.054-26.78948-.3657-40.1856296h-1.7325c0 1.01231.2334 4.04114.066 5.14558-2.3332 15.3474196.8201 31.0769196-.1396 46.5709596-1.0023 16.1807-3.9231 32.20519-5.8575 48.28115zm17.4355-99.9976896c-.8501 1.01234.7813 4.7731.2205 6.36323.9707 25.0092596.776 50.0504796.3734 75.0705596-.1253 6.2857-.4703 12.287-.5939 18.5639h1.5352c.064-.90552.2884-4.76755.9947-6.00924 2.8465-16.77202 5.4288-33.6233 6.6777-50.59897.7469-14.59613.048-29.13757-3.3638-43.3894796h-1.4922c0 1.01231 1.4564 4.48051 1.1382 6.07406 2.766 13.9265596 2.6593 28.2352996 1.8656 42.3527496-1.1446 13.38812-3.1278 26.78888-5.4037 40.02591.827-22.08789.7371-44.27403.3956-66.40768-.1135-7.35387-.4863-14.6893496-.8121-22.0450396zm18.8594 0s.2835 3.71967.104 5.63033c-1.8667 19.8625896.7855 39.8970496.6535 59.8467096-.076 11.50302-.4163 23.02239-.7575 34.52065h1.3145c.3348-1.07509-.098-4.39988.094-5.91023 3.0487-23.92573.7488-48.23836.4715-72.35592-.083-7.25122-.5657-21.7315396-.5657-21.7315396zm13.5039 0h-.7676c.022.64228.087 2.5026.029 3.0125-1.1878 10.4220896-.1379 20.9789996-.3156 31.4670296-.107 6.30934-.547 12.61584-.4517 18.92538.1519 10.06808 1.6098 20.09438 1.6318 30.16359.012 5.48314-.817 16.42919-.817 16.42919h.6914c0-.64374.01-2.47324.085-2.97825.7592-4.9708.726-10.04025.7083-15.06865-.036-10.13742-1.5029-20.23158-1.6418-30.36812-.1597-11.65807.8045-23.30663.9308-34.96512.06-5.53605-.029-11.0801796-.082-16.6175496zm12.9473 0h-1.5879c.2476 5.0775.9762 11.6567996.8932 17.4913796-.1843 12.95358-2.6205 25.79543-3.0864 38.74194-.3224 8.95868-.3564 17.94568.2034 26.89267.3535 5.65182 1.3502 11.21828 1.9898 16.8717h1.5879c-.536-5.35704-1.6854-13.95603-2.0382-20.97015-.4667-9.27797-.4654-18.58636-.1009-27.86892.4905-12.49123 2.9878-24.87567 3.0764-37.37622.033-4.6017496-.5994-8.2168896-.9373-13.7823996zm-39.4668 99.9976896c-.2609-.85122-.458-1.44224-.4321-2.18384.011-.32059.048-.68131.2524-.92872.1729-.20945.4873-.24004.7316-.35881.5134-.24964 1.5636-.17319 1.5428-.74365-.025-.68516-1.229-.80473-1.9129-.75629-.5913.0419-1.1673.42359-1.5451.88034-.405.48972-.5784 1.16976-.6163 1.80412-.046.77802.1947 1.33179.4874 2.28685zm50.2237-99.9976896h-100v1.02098s32.7059-.18889 49.0224-.19015c16.9927-.001 50.9776.19015 50.9776.19015zm-100 13.3223596c1.0006.067 5.7259.3493 8.1067 1.14073 12.6058 1.70105 25.2371 3.37385 37.9691 3.71947 16.0036.45518 32.2186 1.18363 48.0247-1.89764 1.7837-.80565 2.763-2.38304 5.8995-2.96256v-.63079c-2.1938-.39434-7.3451 3.41498-11.334 3.78509-18.065 2.32379-36.3568 1.27923-54.4577-.0591-11.3927-.93457-22.8905-2.11968-34.2083-3.726zm0 19.26351c1.1218-.024 4.208-.23313 5.1095-.29901 25.5592-1.86806 44.5777.30401 70.1507.42829 6.0964.0296 18.6445.19378 24.7398-.12928v-1.66192s-2.9733.15254-4.4614.17694c-10.97.17982-21.944-.0247-32.9136-.22569-10.9728-.20105-21.9347-1.00938-32.9093-.98044-9.9112.0261-19.8304.40693-29.7157 1.04215zm0 24.58644c1.7829-.11223 4.9355-.41041 6.7784.3116 18.6743 1.08217 37.3938 1.0477 56.0768.20852 12.3935-.38917 37.1448-.53308 37.1448-.53308v-.81436s-4.4583.42933-18.3177.12585-39.8522 2.05297-65.8519.58981c-5.2464-.2123-10.5863-.43883-15.8304-.7027zm0 19.17565c1.2325.0558 4.5475.075 5.3957.44584 26.9471 2.84861 53.9933-.046 80.9703-.72041 4.5477-.067 13.634.2616 13.634.2616v-1.66974s-7.805-.21015-11.7077-.16505c-13.679.15811-25.0205 1.04485-41.0113 1.52685-12.3569.54518-24.7479.61764-37.0752-.53259-3.3538-.25533-6.8554-.53191-10.2058-.82921zm0 18.07807c1.2023-.0574 4.4922-.18631 5.3882.0719 23.9827-.43123 47.9253-2.18943 71.8499-3.67648 7.7332-.91642 15.0607-.84403 22.7619-1.96838v-1.71076c-1.5096-.31506-3.5907-.13094-5.3819-.0312-4.3985.24488-8.7054 1.54513-13.1256 1.54319-12.5029 1.48668-25.0689-.17454-37.6008-.25888-14.5977-.41964-29.2939-.82048-43.8917-1.24013v1.69774c.8144.11201 2.9365.009 3.7574.11446 17.0218.53371 34.0502.88878 51.0677 1.53779-18.2402 1.11817-36.5477 2.36809-54.8251 2.59079zm100-50.89996c-1.5876.28193-6.6073.99742-7.8381.63276-22.5885 1.4752-45.1982-.53225-67.7981-.70536-2.5221-.0193-5.0443-.0402-7.5665-.0372-5.5992.007-10.4564.0504-16.7972.12277v1.45492c1.8945.2745 5.5583-.10237 8.3378-.1032 26.8719-.008 53.7382 2.05041 80.6101.94959 3.7351-.22513 7.3243-.53721 11.052-.85936zm-100 7.93007s3.2986-.31079 5.1602.22556c22.3311.89407 44.6812 1.95459 67.035 1.54129 9.3319-.35763 18.4961-1.04644 27.8048-1.77982v-1.87869c-1.6778.4921-2.7245.51802-4.6179.36054-14.1665 1.14487-28.3868 1.4384-42.5924 1.43617-17.6077-.003-52.7897-1.79671-52.7897-1.79671zm100-14.18524c-1.3582.13196-4.0328.12002-6.0499.14577-29.5795.37779-59.1726.8503-88.7457.12885-1.7365-.0424-3.5086-.16625-5.2044-.26165v1.46859s3.2236.17598 4.8369.228c16.1676.52143 32.3447.89059 48.5207.84317 15.5516-.0456 31.0655-.61618 46.6424-1.08414zm-100-17.36207c1.8116.15778 4.6386-.21754 6.102.56036 12.6663.6725 25.0908 3.63216 37.7588 4.21202 10.8544.46334 21.5702-3.02108 32.4122-1.78082 3.8481.96241 7.8259 2.49441 11.8034 1.16342 4.2135-.98998 9.2146-3.6469 11.9236-4.16795v-1.27916c-2.1432-.14903-4.379 2.63292-6.5383 2.40371-4.3005 1.39082-9.0193 3.21204-13.4835 1.37656-6.7393-2.21592-13.9389-.86705-20.8244-.19357-7.9351 1.1505-16.0075 1.54329-23.9664.37367-9.6377-1.32014-19.289-2.55091-28.9696-3.4959-2.0695-.20203-4.1887-.2952-6.2178-.46447zm0-12.7075896s5.3337.34287 8.0029.47026c16.9272.80783 33.8596 2.03599 50.8053 1.8644 13.7522-.13924 41.1919-2.34763 41.1919-2.34763v-.86123s-4.9003.42603-7.3559.55511c-17.3137.91013-34.6533 1.73245-51.99 1.54532-13.5685-.14646-39.4481-2.27833-40.6541-2.08746zm100 86.0065796c-1.8502-.0397-3.5753.33376-5.3058.93924-2.0291.71937-4.2276.76775-6.3396.45001-2.1516-.30717-3.4954-.68845-5.575-1.30999-.7364-.35111-1.3624-1.01891-1.3332 1.02937 3.1526.91985 6.5798 1.85734 9.8909 1.78715 1.824-.0146 3.562-.60689 5.2751-1.16735 1.1194-.34777 2.2149-.65498 3.3877-.64786zm-6.2315-93.2078196c-.2479.7212.3008 3.08288.4382 4.08167.402 2.92198 2.3613 4.78227 2.5789 7.8526496.523 7.37885-1.8187 14.68889-2.3544 22.06682-.3876 5.33718-.3857 10.69562-.6207 16.0417-.1513 3.43958-.7021 6.87877-.5081 10.3162.4141 7.33789 2.5231 14.48514 3.5553 21.76022.6668 4.49117-.085 9.00483-1.6009 13.24487-.2524.5623-1.2207 3.47862-1.4883 4.63356h.8613c.8799-2.56251 2.0905-5.9361 2.7-8.59899.6094-2.66289.8797-5.37485.4029-8.13367-.8215-6.31793-2.1413-12.58634-2.1303-18.98833-.4071-11.58536-.5685-23.23061.5559-34.77909 1.0425-6.82742 3.0112-13.88761.8907-20.7251196-.6201-2.45206-2.4187-6.70488-2.4192-8.77249zm-10.8867 99.9976896c-.036-.79438-.064-1.35509-.086-2.20375-.068-15.28776-.01-30.57502.085-45.86216.073-12.1731.455-24.34506.3707-36.51809-.036-5.13638-.2211-10.2723896-.3698-15.4136896h.0001-1.3633c.2423 8.06961.2824 17.6296596.3036 26.4409896.051 21.14337-.4784 42.28551-.4237 63.42886.01 3.37617.1055 6.75092.1201 10.12784zm-12.9493-99.9976896h-.4667c.064.60887.1245 2.51216.1038 3.01805-.1798 4.39994.1913 8.8061596.17 13.2097196-.061 12.70098-.7974 25.39272-.8592 38.0937-.074 15.22648.4156 30.44991.5854 45.67622h.4667c.4645-.50775-.1557-2.15862-.1096-3.00365.8362-15.33556-.5577-30.71475-.4571-46.07276.093-14.24055 1.1818-28.47174.9839-42.7112196-.038-2.73708-.2527-5.47128-.4172-8.21006zm-12.0839 99.9976896s-.6945-6.31008-.7816-9.47941c-.2515-9.15155-.2233-18.34042.7504-27.45478.8329-9.63317 2.0221-19.26166 1.6621-28.95295-.1204-11.39947-1.5548-34.1105496-1.5548-34.1105496h-1.4492s.9069 4.24568.2906 6.06048c.6242 13.9408996 1.789 27.9121396.9776 41.8694796-.978 14.30693-2.4234 28.64054-2.1116 42.98165.066 3.041.8434 9.08608.8434 9.08608zm-18.8321-99.9976896h-1.1328s1.2037 4.98844.7396 7.00807c2.1229 17.3388796 1.1218 34.8499696-.5978 52.1743196-.5078 7.64933-2.1271 15.23422-2.0621 22.89724.051 6.00667 1.4555 11.93311 1.9203 17.91806h1.1328c0-.83709-1.2925-5.13914-.9296-7.09774 1.1652-6.28927-1.2081-12.70554-.3388-19.02852 1.0859-10.76462 3.0005-21.45909 3.075-32.30749.2315-13.2628-.7242-26.52313-1.633-39.7547096-.041-.60155-.066-.79692-.1736-1.80923zm-5.9511 99.9976896c0-1.31714-1.3613-5.11904-1.7762-7.73013-2.9113-18.32347-4.119-36.89744-4.9632-55.4381-.3395-12.26645-.1426-24.5626.095-36.8294596-.3652-.008-.7304.008-1.0957 0-.3732 18.8215996-.014 37.6671596 1.2185 56.4488196.9567 14.57243 3.0685 29.03341 4.7893 43.54887m68.6671-19.06947s-3.8175.64909-4.672.51158c-16.3616 1.91833-32.8665 1.23366-49.2987 1.029-15.311-.33506-30.7301-.84845-46.0293-1.52762v1.64436c.91.98923 4.346-.33722 5.7018.23823 25.7466.96389 51.5218 2.0125 77.2887 1.31923 5.7444-.30085 17.0095-1.55746 17.0095-1.55746zm-79.628 19.06947c.424-1.46179-.2974-5.07213-.1237-7.13177.8943-10.60599-.7059-21.29062-.3647-31.92877.2464-7.68483 1.5772-15.31352 1.7407-23.00055.269-12.64668-.8397-25.28525-1.2523-37.9365996h-1.2679c-.3968.39544-.1168 1.42814-.078 2.23086.3734 11.4558796 1.6481 22.8965796 1.4025 34.3552396-.1505 7.02711-1.5041 13.98846-1.7618 21.01246-.5181 14.1243.3907 28.26425.4371 42.39913zm-12.8971 0c0-.33644-.5-5.16533-.4791-7.21813.1095-10.75157-.5521-21.50457-.3396-32.25461.1691-8.55608 1.1276-17.08481 1.2846-25.64112.2134-11.62702-.1702-23.25849-.4659-34.8838296-.2342.006-.4683-.006-.7025 0 .3873 17.0210996.1248 34.0691296-.2018 51.0903996-.1809 9.42299-1.0783 18.83329-.9732 28.25743.077 6.89394.2115 12.97028 1.1727 20.64986z" fill="#f2e8d7"/></pattern><filter id="e" color-interpolation-filters="sRGB" height="1.271804" width="1.653931" x="-.326966" y="-.135902"><feGaussianBlur stdDeviation="9.2377371"/></filter><clipPath id="f"><path d="m-194.04434 182.90556c-4.05849-24.13902-16.92249-50.05796-41.89511-57.91326-35.70278-12.69875-76.44626 5.96443-98.50003 34.88572-22.23623 31.98151-26.49395 73.59787-20.60233 111.29795 6.70401 42.69025 22.72005 86.17946 56.4743 114.91526 42.75005 37.48572 100.91049 49.75052 156.12389 54.22551 33.69421 2.40306 71.769026-14.90034 83.484501-48.22796 7.459838-21.93917 6.727145-47.97239-8.663585-66.42218-14.111742-19.07675-38.254386-23.88219-59.349476-31.13036-25.69621-8.78731-49.55848-27.72384-56.7442-54.87587-5.55985-18.47493-6.8999-37.8442-10.32796-56.75481z"/></clipPath><filter id="g" color-interpolation-filters="sRGB" height="1.00583" width="1.00618" x="-.00309" y="-.002915"><feGaussianBlur stdDeviation=".34418813"/></filter><filter id="h" color-interpolation-filters="sRGB" height="1.034279" width="1.006734" x="-.003367" y="-.017139"><feGaussianBlur stdDeviation=".49830499"/></filter><filter id="i" color-interpolation-filters="sRGB" height="1.007523" width="1.00562" x="-.00281" y="-.003762"><feGaussianBlur stdDeviation=".49830499"/></filter><use stroke-width="3.19863" transform="matrix(.26213147 -.17037303 .17037303 .26213147 301.17253 60.675114)" xlink:href="#j"/><use stroke-width="3.19863" transform="matrix(.31253244 .00795939 -.00795939 .31253244 286.12236 103.3987)" xlink:href="#j"/><use stroke-width="3.19863" transform="matrix(.26213147 -.17037303 .17037303 .26213147 172.65231 69.753545)" xlink:href="#j"/><g stroke-width="1.37528" transform="matrix(.73095145 0 0 .72331908 48.926153 46.328366)"><path d="m55.168516 212.23118s-17.340334 7.41432-19.590183 15.37913c-10.130086 35.86202-16.831005 83.2629-21.140833 121.92485-4.4779709 40.1703-7.0242521 88.45103-5.0917969 123.86914-11.7460358 14.11634-17.3715003 34.73877-11.5687138 51.25088 3.8014274 10.81714 17.8750947 18.71794 26.8362917 21.22373 20.260332 4.89848 41.475315.50276 60.150391-5.11914 46.891678 10.26602 96.813178 14.56066 144.974608 14.74804 47.61523.18525 97.14878-4.91474 141.76758-13.45312 9.92995 3.36275 22.46869 7.17705 36.70312 8.95703 23.03608 2.79984 47.02203-3.77024 56.99795-21.63048 8.24949-14.76935 1.24783-36.42999-9.20297-50.02191 3.71435-38.88088-.40064-87.82867-4.88477-128.89062-4.44147-40.67128-12.32119-88.68639-21.82607-124.30355-1.91841-7.18877-19.85198-14.78533-19.85198-14.78533s-114.37674 17.34127-172.00568 17.63945c-61.00669.31566-182.266944-16.7881-182.266944-16.7881z" fill="#a49476" stroke-linecap="round" stroke-linejoin="round"/><path d="m65.316138 214.72353c-11.749501 28.941-21.102983 91.14948-26.275876 137.55368-4.794015 43.00542-7.209125 97.60824-4.324125 129.75874-9.877 10.265-19.446 23.452-14.283 32.338 9.089 15.64 42.849002 7.49 63.166002.826 46.434501 10.817 97.221711 15.36281 146.235871 15.5535 48.02922.18686 98.85913-5.1565 143.40913-14.1255 18.46 6.644 59.675 19.048 69.879 1.488 4.919-8.464-3.534-20.834-12.885-30.863 5.108-34.8065 1.12202-89.64984-3.72712-134.09724-5.16696-47.36054-16.56838-109.87963-26.92688-140.32863-31.33665 5.58358-56.78638 8.0478-85.3595 10.79798-26.23131 2.52477-52.57047 4.96311-78.91697 5.39825-26.32811.43484-52.72049.12099-78.96953-1.98478-30.51538-2.44805-64.356019-6.94385-91.022002-12.315z" fill="#d1bb94" stroke-linecap="round" stroke-linejoin="round" stroke-width="49.5101"/><path d="m65.316138 214.72353c-11.749501 28.941-21.102983 91.14948-26.275876 137.55368-4.794015 43.00542-7.209125 97.60824-4.324125 129.75874-9.877 10.265-19.446 23.452-14.283 32.338 9.089 15.64 42.849002 7.49 63.166002.826 46.434501 10.817 97.221711 15.36281 146.235871 15.5535 48.02922.18686 98.85913-5.1565 143.40913-14.1255 18.46 6.644 59.675 19.048 69.879 1.488 4.919-8.464-3.534-20.834-12.885-30.863 5.108-34.8065 1.12202-89.64984-3.72712-134.09724-5.16696-47.36054-16.56838-109.87963-26.92688-140.32863-31.33665 5.58358-56.78638 8.0478-85.3595 10.79798-26.23131 2.52477-52.57047 4.96311-78.91697 5.39825-26.32811.43484-52.72049.12099-78.96953-1.98478-30.51538-2.44805-64.356019-6.94385-91.022002-12.315z" fill="url(#b)" filter="url(#i)" opacity=".667"/><g stroke-linecap="round" stroke-linejoin="round"><g transform="translate(0 7.415993)"><path d="m156.33814 227.03853c-6.964 41.9-19.185 100.5573-14.928 139.1403 60.582 25.618 126.129 15.173 190.785-.94 2.266-38.082-8.411-100.7193-17.9705-140.8103-52.3185 5.06-105.4375 6.424-157.8865 2.61z" fill="#f2e8d7" opacity=".75" stroke-dasharray="13.7528 13.7528" stroke-dashoffset="16.5033" stroke-width="6.87639"/><g fill="#a49476"><path d="m312.29492 221.1582c-5.17483 1.50987-19.35107-1.67214-15.59563 7.2643 5.02231.32973 22.51363 2.76821 18.11122-6.49174zm-27.32422 2.25196c-5.21235 1.37733-19.29625-2.17843-15.77979 6.85378 4.27497 1.42774 28.50727 1.48627 15.77979-6.85378zm-123.21289.55859c-8.92082 3.20377 1.30245 9.06533 6.43736 7.28852 5.13709 2.9245 15.49176-3.33161 7.23256-6.50141-4.55879-.22304-9.11566-.4854-13.66992-.78711zm95.84571.97266c-5.01272 1.08544-19.5864-2.48343-15.96349 6.41385 4.2312 1.55001 28.46078 2.26689 15.96349-6.41385zm-68.48829.37695c-8.81049 3.49596 1.59969 9.01762 6.67357 7.07308 5.18829 2.72624 15.49534-3.74782 7.01784-6.73128-4.56463-.0769-9.12864-.19043-13.69141-.3418zm41.0918.38672c-5.28136 1.08649-19.13475-3.27189-16.14234 5.94519 5.26781.96493 21.93716 4.5361 18.58733-4.97066l-2.44499-.97448zm85.98828 7.20117c-5.44269 4.5605-.14962 14.04763 1.66379 19.67948 10.33988 3.77189 2.88474-20.63718-1.66379-19.67948zm-161.11914 1.58984c-6.52014 2.27068-5.5944 12.9559-5.7555 18.91637 8.20027 4.39594 8.81856-12.74397 7.63591-17.92605l-.86177-.6441zm166.66602 25.34961c-5.31968 4.37707-.78289 14.03491 1.00447 19.72487 10.09032 1.87306 3.21607-14.41961 1.56855-19.17506zm-171.37305 1.75c-6.53405 2.28866-5.54144 13.01398-5.60171 18.97583 8.88359 3.97893 7.37135-11.54512 8.10763-17.11223-.47409-.97442-1.43628-1.68999-2.50592-1.8636zm176.01367 25.36133c-5.46755 4.18585-1.27379 13.98455.28408 19.74118 10.01505 2.26088 3.76543-14.299 2.26843-19.1028zm-180.41601 1.78906c-6.4938 2.44565-5.2191 13.18458-5.05035 19.14432 8.78862 3.71671 7.05504-11.77878 7.59992-17.34105-.49719-.96281-1.47613-1.6552-2.54957-1.80327zm184.03711 25.47461c-5.63662 3.93613-1.9032 13.88545-.66843 19.72143 9.89733 2.78711 4.5077-14.11442 3.18957-18.97041zm-187.56641 1.80274c-6.39159 2.75477-4.57344 13.48084-3.98797 19.41361 9.18295 3.07697 6.19994-12.12082 6.61937-17.73439-.5424-.93751-1.55264-1.5822-2.6314-1.67922zm189.7832 25.60937c-5.86593 3.52885-2.86979 13.62694-2.25216 19.56436 9.01261 5.09299 7.50278-18.99098 2.25216-19.56436zm-191.65625 1.82617c-6.16978 3.32459-3.3192 13.97784-1.90642 19.77363 9.22566 2.72082 6.28007-15.72035 2.96773-19.59728zm183.70508 20.18555c-4.70491 2.04365-19.68846 1.35061-14.42125 9.37947 4.45233.71446 28.36746-3.28573 14.42125-9.37947zm-174.04687 2.33399c-9.51053.54492-1.27069 9.15388 4.21339 8.7634 4.27235 4.19248 15.93573.50011 8.60301-4.53294-4.32184-1.25312-8.5985-2.66254-12.8164-4.23046zm147.33203 3.6582c-4.98412 2.07462-19.36907.24524-14.78949 8.77254 4.42058.96034 28.51548-2.15705 14.78949-8.77254zm-121.41797 3.86914c-9.32832 1.90633.0538 9.23154 5.42049 8.07232 4.77593 3.51082 15.94917-1.62368 7.88615-5.68756-4.46039-.64676-8.89986-1.43909-13.30664-2.38476zm94.52148.89844c-5.08923 1.82015-19.30592-.92035-15.27803 7.869 5.02398.27016 22.71578 1.82274 17.8305-7.22844zm-67.76367 3.0039c-8.99761 3.08974 1.22902 9.13567 6.39971 7.32195 5.20305 2.91418 15.49905-3.62045 7.13545-6.6071-4.51728-.10968-9.03162-.3456-13.53516-.71485zm40.68945.0195c-5.21359 1.45761-19.1194-2.48293-15.85361 6.60764 4.22359 1.72 28.64075 1.75814 15.85361-6.60764z" stroke-dasharray="13.7528 13.7528" stroke-dashoffset="16.5033"/><path d="m257.22257 281.3227c-4.18398-.33024-8.63468 4.24875-9.3441 8.096.0747 2.46122-.66596 5.40184 2.06994 6.77694 3.10824 1.08657 5.4753 1.26273 4.66441 5.38096.93715 3.41022.13302 8.98269-2.96596 3.5175-.87039-5.67102-9.54872-3.75842-6.9815 1.79595.78399 3.28896-6.40784 1.81756-7.4989 5.70392-1.58827 1.68403-.9892 4.51316-.71927 6.6119 4.94847 2.20059 9.84133 6.92664 4.76538 12.12559-2.77269 4.72122 4.35911 6.1995 4.93144 1.0206.93709-5.80971 5.43055 3.37829 7.61212-1.33411 1.39957-5.3717-8.03289-4.71179-5.77605-10.34363 2.93574-3.34331-.9375-7.74365.98083-10.29789 2.8428.97844 4.88963 10.57837 9.42932 4.70991.10906-2.62344-.21799-5.38065.16316-7.92062 1.82833-1.92814.69724-4.76408 1.00719-7.15797-.13903-1.91803-.17694-3.79657 1.57945-4.97417 1.36645-1.84479 3.56131-3.28425 4.37035-5.40178.80222-4.86507-3.81929-8.47269-8.28781-8.3091zm0 3.66151c.815 1.31987 3.63741 2.63935 3.09058 3.95949-1.54018 1.80423-3.35839 3.178-5.42594 4.3032-6.33477-1.95168-.77452-6.40482 2.33536-8.26269zm-63.78139 2.24119c-4.06833 1.61156-8.64725 5.95159-8.78443 10.763.93463 4.28053 4.78716 7.33927 8.9011 7.8321 3.24551.61273 4.5666 3.30121 3.97154 6.33401v7.06316c-2.4352 2.28125-2.04287 4.59932-1.25459 7.20343-3.81354 4.20583-6.61362-7.96183-10.88281-2.612-1.53646 1.3414-2.83037 3.27454-4.51164 4.26261-1.82226-.035-.44653-3.30169-.87415-4.74602-.14334-3.4495-1.26807-7.44779-3.57771-9.93944-1.81073.0945-4.06208-.55059-5.59899.34822-4.1659 2.00682 5.43502 3.72281-.16571 4.70838-4.82078.83662-1.26971 7.17026 2.36768 4.29406 3.90066 3.2846-7.07925 1.58992-2.95453 5.92616 1.94159.1513 4.04334-.31379 5.87954.25362-.0774 3.69439 3.03924 7.85721 6.32534 4.01692 2.73624-1.98449 6.64627-8.48473 8.20147-2.11702.10207 5.73554 8.38836 6.42044 8.03667.60086.95557-5.6924 8.92835 1.2998 7.01838-5.642-4.48069-1.84669 1.13243-2.54454-.1238-5.11046-1.2676-2.6411 5.34346-2.85055 1.02235-5.7182-2.56359-1.88888-5.60832-2.34754-4.81929-5.76317.39106-3.85458 6.8552.29702 6.48234-3.6588-.26272-4.52683-9.32526-1.74948-6.9689-8.07037-.4098-4.29057-2.67189-10.0889-7.68986-10.22905zm0 5.37345c5.15461.69035 3.74152 13.11683-1.7525 7.42815-4.44389-1.77544-1.48216-6.58486 1.7525-7.42815zm27.91204.52654c-2.405.90609-4.61386 1.68181-7.37424 1.3015-5.15305-.8801-1.5354 5.80068 1.64369 6.23255 1.35369 4.48559.0993 8.4949 1.44686 12.86836-2.53173 2.6294 1.17039 4.98726.14204 8.0694-.19875 3.48006 3.9901 8.91061-1.49045 10.08694-3.58995.69033-.62718 4.32538 1.4969 4.06162 2.17288-.19499 4.73179.72248 6.27167-1.29675 2.36096-.98101.96327-3.09835-.55222-4.13368-3.61461-3.34996 4.4651-5.0026 6.30404-6.80809 3.61634-3.71814 6.11074-9.1592 2.92739-14.12188-1.77383-5.4518-7.37695-6.3229-11.56113-7.76375-3.74837-4.52509 10.08744-2.58024 4.94897-7.88975-1.10909-1.01853-2.8558-.38903-4.20352-.60647zm45.9034 17.65802c.63417 7.01266 6.38745-3.48642 9.5671-1.97867 3.49662 3.67352 7.82793 7.06648 9.19533 12.18429-.34653 4.71075-7.68906 9.12538-6.02975 12.85411 1.58927 3.11357 3.7962.96603 6.21026.72261 3.49497.31432 6.03701-3.41197 9.68997-2.36269 5.59568-4.11364-5.28675-8.26611-4.08821-12.98539 3.64438-2.62348 3.3822-9.69074 8.25347-9.96152 1.02419 4.49488 6.28584 2.9093 4.59632-1.25252-1.49061-1.30382-2.74723-3.17856-4.38173-4.13134-2.47465-.6248-3.82657 1.81968-5.60912 3.08693-1.42517 1.01175-3.5229.18489-5.22005.45307-2.65284-.58543-4.82233 1.16671-7.13354-.0134-1.8709-1.20899-3.26857-3.48788-6.05814-2.57095s-8.33623 1.30447-8.99191 5.95544zm-44.78649-3.42783c6.14299.87023 9.13161 10.8371 3.46942 14.39071-2.37488 2.80154-5.998-.0642-1.64033-1.75696 5.58462-3.88662.0332-8.86709-3.58195-11.39434.25613-.74315.93572-1.34511 1.75286-1.23941zm66.41066 3.54c5.38114 2.0304-3.55981 7.68312-2.17612.99654.47458-.7177 1.3684-.98394 2.17612-.99654zm-46.26087 2.89194c6.72208 4.10257-6.58357 3.92758 0 0zm-20.73496 1.29881c3.13811-.38154-.42453 3.09934 0 0zm66.93705 10.50657c5.9975 1.84592-5.17431 6.9101-2.12798 2.14391.72743-.65957 1.10544-1.97667 2.12798-2.14391z" stroke-width="1.37527"/></g></g><path d="m380.78906 135.41406c-48.61262 12.83587-101.35736 19.86806-152.70312 20.58789-49.88607.69936-102.91243-4.52418-148.36719-15.74414-9.110285-2.24841-18.70873.84696-24.789063 7.99414-5.544656 6.51929-15.999181 17.06893-19.316406 27.91797-4.868726 15.92325-7.880287 35.66243.535497 49.99524 4.230438 7.2048 15.36364 10.84283 21.698794 12.28181 59.796368 13.58214 115.794138 15.41683 174.025478 15.42998 58.5296.0132 116.08725-4.8531 174.92366-15.42998 6.04247-1.08624 18.12188-4.88973 22.49641-12.28181 8.38607-14.17078 5.10298-33.8091.12094-49.5343-4.25265-13.42295-15.46766-25.00188-24.38476-34.35938-6.22627-6.53309-15.51425-9.1606-24.24024-6.85742z" fill="#a49476"/><path d="m73.787139 164.29073c-6.366 7.485-11.975667 12.91565-15.14 20.95-3.354981 8.5184-4.611 18.1231-3.442 27.2841 57.141001 12.979 117.476411 16.76888 176.595251 16.59629 59.50181-.17371 119.80275-7.34379 177.64075-17.74129 1.341-6.883.0881-17.67448-3.064-25.6901-3.99016-10.14683-10.45-17.087-19.268-26.3405-50.716 13.39125-105.31985 20.65779-158.67588 21.40581-51.82901.7266-106.61662-4.60881-154.646121-16.46431z" fill="#d1bb94" stroke-width="49.5101"/></g><path d="m73.787139 164.29073c-6.366 7.485-11.975667 12.91565-15.14 20.95-3.354981 8.5184-4.611 18.1231-3.442 27.2841 57.141001 12.979 117.476411 16.76888 176.595251 16.59629 59.50181-.17371 119.80275-7.34379 177.64075-17.74129 1.341-6.883.0881-17.67448-3.064-25.6901-3.99016-10.14683-10.45-17.087-19.268-26.3405-50.716 13.39125-105.31985 20.65779-158.67588 21.40581-51.82901.7266-106.61662-4.60881-154.646121-16.46431z" fill="url(#a)" filter="url(#h)" opacity=".667"/></g><g id="j" transform="translate(27.650449 -129.93281)"><g clip-path="url(#f)"><path d="m-194.04434 182.90556c-4.05849-24.13902-16.92249-50.05796-41.89511-57.91326-35.70278-12.69875-76.44626 5.96443-98.50003 34.88572-22.23623 31.98151-26.49395 73.59787-20.60233 111.29795 6.70401 42.69025 22.72005 86.17946 56.4743 114.91526 42.75005 37.48572 100.91049 49.75052 156.12389 54.22551 33.69421 2.40306 71.769026-14.90034 83.484501-48.22796 7.459838-21.93917 6.727145-47.97239-8.663585-66.42218-14.111742-19.07675-38.254386-23.88219-59.349476-31.13036-25.69621-8.78731-49.55848-27.72384-56.7442-54.87587-5.55985-18.47493-6.8999-37.8442-10.32796-56.75481z" fill="#611e33" stroke-linecap="round" stroke-linejoin="round"/><path d="m-237.55231 143.72646c-13.84698-6.65976-29.37547-5.31244-42.3-.7-30.6 11.2-60.2 44.9-59.3 87 1 50.7 10.6 95.3 38.9 128.7 28.2 33.4 76 56.9 157.2 63.5 37.3 3.1 62.100003-18.9 69.200003-43.2 3.5-12.2 2.5-24.8-3.6-35.6-6-10.8-17.4-20.3-36.500003-25.7-45-12.7-68.5-32.7-80.5-56.6-12-23.8-12.9-49.8-17.4-75.05-4-23.45-13.9-36.05-25.7-42.35z" fill="#862d4b" filter="url(#g)" stroke-linecap="round" stroke-linejoin="round" stroke-width="36"/><path d="m-257.45231 158.22646c4.82905 3.59139 5.0503 13.21533 1.4 18-3.10877 4.07485-10.7 1.5-15.1 2.9l-7.9-16.2c6.5-2.4 15.68741-9.09723 21.6-4.7zm-59.925 114.675c-3.2-15.725-4.875-32.575-3.475-48.675 1.5-16 6.1-31.6 16.4-43.8 2.7-3.3 5.9-6.3 9.5-9l8.1 16.6c-10.072 9.33555-13.24438 24.3981-16 37.8-6.31564 30.71604-.48559 94.07458-.48559 94.07458s-10.83941-31.27458-14.03941-46.99958z" fill="#cd8fa4" filter="url(#e)"/></g></g><g stroke-width="3.19863"><use transform="matrix(.26213147 -.17037303 .17037303 .26213147 462.99386 386.14885)" xlink:href="#j"/><use transform="matrix(-.30906472 -.04710491 -.04710491 .30906472 67.444801 398.2548)" xlink:href="#j"/><use transform="matrix(.26213147 -.17037303 .17037303 .26213147 211.40883 381.38401)" xlink:href="#j"/></g></svg>