<svg height="500" viewBox="0 0 500 500" width="500" xmlns="http://www.w3.org/2000/svg" xmlns:xlink="http://www.w3.org/1999/xlink"><pattern id="a" patternTransform="matrix(.15098575 -.05985926 .05986183 .15099217 7.659857 -124.62843)" xlink:href="#j"/><filter id="b" color-interpolation-filters="sRGB" height="1.384" width="1.384" x="-.192" y="-.192"><feGaussianBlur stdDeviation="4.1180202"/></filter><filter id="c" color-interpolation-filters="sRGB" height="1.384" width="1.384" x="-.192" y="-.192"><feGaussianBlur stdDeviation="2.1370242"/></filter><radialGradient id="d" cx="154.66905" cy="82.585289" gradientTransform="matrix(-1.2466927 1.2592688 -1.2592659 -1.2466955 342.45993 -177.96551)" gradientUnits="userSpaceOnUse" r="40.30827"><stop offset=".12393165" stop-color="#3e1c0c" stop-opacity="0"/><stop offset=".41729519" stop-color="#3e1c0c" stop-opacity=".1"/><stop offset=".66706532" stop-color="#3e1c0c" stop-opacity=".5"/><stop offset=".91683543" stop-color="#3e1c0c" stop-opacity=".75"/><stop offset="1" stop-color="#3e1c0c"/></radialGradient><filter id="e" color-interpolation-filters="sRGB" height="1.037503" width="1.037497" x="-.018748" y="-.018752"><feGaussianBlur stdDeviation=".6671696"/></filter><linearGradient id="f" gradientUnits="userSpaceOnUse" spreadMethod="reflect" x1="109.51291562761" x2="100.45353280125" y1="-33.69928382639" y2="-31.38625150373"><stop offset="0" stop-color="#b7410e"/><stop offset="1" stop-color="#8a533b"/></linearGradient><linearGradient id="g" gradientUnits="userSpaceOnUse" spreadMethod="reflect" x1="124.15967" x2="112.04032" y1="-94.03566" y2="-90.94136"><stop offset="0" stop-color="#5c260f"/><stop offset="1" stop-color="#6d4c3b"/></linearGradient><filter id="h" color-interpolation-filters="sRGB" height="1.384" width="1.384" x="-.192" y="-.192"><feGaussianBlur stdDeviation="4.729404"/></filter><filter id="i" color-interpolation-filters="sRGB" height="1.024" width="1.024" x="-.012" y="-.012"><feGaussianBlur stdDeviation=".43604223"/></filter><pattern id="j" height="333.37414" patternTransform="translate(-771.2202 48.455857)" patternUnits="userSpaceOnUse" width="333.38836"><g transform="matrix(1.3333333 0 0 -1.3333333 -499.3218 660.8287)"><path d="m509.93934 495.62053c-1.4407-1.15214-.5258-5.20556.552-6.74501 1.0955-2.59616-5.3201-2.08818-4.854-5.878-3.1001 2.42621-7.764-3.44224-8.627 1.983-2.7988-.28769-4.56 5.195-2.623 8.227.9603 1.27567 1.0173 1.60284.903 2.41301l-6.265-.014c1.9984-.91223.5362-3.93528.505-5.673-2.1456-3.79394 4.3602-3.22782 3.42-6.673 1.1047-1.38705 3.6413-1.61408 4.704-3.295 2.8349-1.86071 5.2676 2.40132 7.736.012 2.8631-1.25453 3.9254 3.19752 5.637 3.647 4.4601-1.94484 6.2922 4.31205 4.425 7.469-.2809 1.69184.9807 3.55455.4861 4.52801zm-63.46977.001c-2.67629-.50572-.75083-2.61344-.6382-4.23501.28546-4.01575 3.13742-8.94173 7.911-8.745 2.22725-.7743 6.20197 1.11918 5.572-2.39 1.69611-2.64304 2.70425-5.8997 6.006-6.872 3.09596-3.00348 6.62076 1.58918 7.208 4.742 1.47337 3.33548-2.99472 4.88404-1.309 8.245-.29894 3.64518-2.70592 6.11291-3.937 9.25401h-3.951c-.77027-1.14071 1.05423-4.01406 1.051-5.96301 2.06534-7.39514 1.49011-3.59785-4.177-1.676-2.94064-1.83176-11.26463-.49426-9.16 3.428 1.96491 2.62667 4.817 3.31073 4.817 4.21101zm25.41514 0c2.18413-1.97444 5.67323-2.32393 7.19263-.002zm73.55363-.001c2.4697-.82936.7179-3.58494 1.698-5.30101 4.2033-.55699 8.3417 1.47945 10.0343 5.30201zm24.6516.001c.9752-2.16607 3.6505-3.43432 5.8204-4.53001.4249-4.31059 7.5489-3.42389 9.927-1.515 2.6162 1.04232 6.7653-1.65746 9.053 1.567 2.0899 1.27385 4.3211 2.38594 5.7185 4.47801l-7.4375-.001c-3.8605-.00052-7.5635-.41796-10.196-3.69101-4.0175-1.26715-3.9972 3.43614-7.397 3.69101zm-153.79457-6.57501c6.31886 10.55835 3.45295-4.34911 0 0zm-1.36418 6.57501c-1.7433-1.32457-.13942-3.99279-1.03282-4.27701-1.44669-.77824-2.90964 1.63446-3.768-.543-.0487-3.19556 1.7309-6.82492 2.46-9.688 3.80841-6.56605 12.33654 1.52338 12.02 6.774.71637 4.36037-.28924 6.79095-2.58777 7.73401zm42.91418-195.32601c-6.41354.19699-1.69014 6.90232-1.359 10.28-1.04225 2.28493 4.88794-1.47276 5.467.028 2.3049-.28349 7.2975-1.04463 5.646-4.039-.70668-2.40384 1.15438-4.40958.982-6.543-1.48488-2.04685-.11598 4.32361-2.622 2.574-2.25964-.3246.41014-5.54058-2.044-4.971-3.4284 2.19167-3.60212-4.12773-6.07 2.671zm1.635-6.111c5.14778-6.26366 11.9439 1.57164 14.125 6.43 1.13537 1.74517.0129 4.04443-1.821 4.71 1.4107 2.39561.81194 5.4398-1.339 7.181-1.95083 2.69669-5.93938 1.77762-8.371 3.7-3.05677-.59396-7.97035 2.37276-9.165-1.7-.96646-3.88992-.55994-7.95058-1.7-11.811-.47294-3.27401.47107-6.90706 4.441-7.42 1.01182-1.32185 2.86801.0795 3.83-1.09zm139.82997 103.397c.1878 2.71834 5.0118 2.41814 3.978 6.077.1442 1.94699.6685 5.23052 2.869 4.912-3.5124-4.01638 6.5389-4.01449 1.088-6.98-3.6834-.26173-.7885-5.31031 1.252-3.686 1.3274-4.63607-5.9143-5.77608-8.04-2.003-.4227.7411-.9879 1.04303-1.147 1.68zm-4.03-4.511c1.8157-2.76697 5.6846.15588 7.548-2.552 4.1474-1.26883 8.3707 2.69112 10.712 5.699.6072 2.59018 2.4978 5.13425 1.324 7.428-.476 3.03234-3.335 4.49658-4.239 7.123-1.7137 2.56237-7.2146 2.26558-7.329-.599-2.7752.22665-3.4407-3.26731-4.063-5.408-.2228-2.46018-3.8051-1.10862-4.362-3.667-1.9612-2.13362-1.5733-5.9433.409-8.024zm-146.95897-58.503c-3.36915-.98949-7.17474-5.79438-2.438-6.988 4.90818 1.08092-.93557-8.7136-4.96837-5.006-2.46793 1.43198-7.73145 4.55901-3.71363 7.238 6.16801.9559 1.46897 10.08408 6.841 11.963-.26076-2.73744-.28274-6.42314 4.254-6.851zm7.793-2.585c.40145 2.30219-1.06866 5.29035-2.448 7.623-2.93045 1.65597-2.57513 6.41391-6.806 6.731-2.12587.52293-6.31968-.16893-5.841-2.718-3.32546.43877-4.0093-3.31315-5.099-5.611-.1664-1.84742-.81079-4.16615-3.176-3.516-4.77707-2.46472-5.94609-9.38754-2.029-13.31 2.01226-2.82726 5.94359-.065 8.285-2.009 4.11314-3.80895 9.87425 1.26357 13.26938 3.95075 2.52621 2.23796 2.62368 6.04586 3.84462 8.85925zm123.26397 127.035c1.1115 3.86788-.1966 9.42322 3.098 12.115 1.6756 5.6283 7.8003 4.43165 10.857 1.21 1.7773-2.34238 5.2731-2.57394 6.976-4.64-1.4604-2.14651-6.112-3.93484-9.385-4.297-5.2383-1.46596.3045-8.68277-4.643-8.526-2.3888-.58605-7.2564-1.24949-6.833 2.624l-.063 1.324zm-5.576 14.364c-3.1076-1.3154-.3446-4.78977.204-6.834-2.7329-1.85078 1.625-3.33237-.083-5.448-.5302-2.86546 1.3355-5.86019 3.351-7.786 3.8604-1.45929 8.8277-4.86609 12.489-1.404 2.3914 2.71599 1.7654 8.92636 6.808 9.005 2.9488.79228 6.9205-1.17248 8.394 2.575 1.3621 3.71746-.1137 9.682-4.852 9.669-4.5155.16116-4.3547 6.39808-8.999 5.546-2.5109 3.05211-6.1694 1.36602-9.293 2.111-2.0678-.53957-2.688-3.12659-4.897-3.43-1.2344-1.55326-2.9338-1.81706-3.122-4.004zm-97.678-123.804c-1.6669 3.55084-6.3915 4.92451-8.94297 1.893-1.42064-1.39029-3.1117 2.54139-4.162 3.73-2.60101 3.8042 3.52532 5.13147 6.004 6.109 3.41099 2.41088 6.63627 1.35518 10.31297 1.031 4.2333-1.60982 2.7868-6.80475 2.151-10.221-.1804-2.39421.6723-9.02213-3.552-3.791-.3611.64216-1.3226.89652-1.811 1.249zm.267-7.006c3.6982-3.79984 11.5689 1.81658 9.005 6.647-1.774 3.69708 3.3083 6.24921.661 9.593 1.3946 3.3125-1.5082 5.54647-2.229 8.376-1.6206 1.23784-3.8197 1.32697-5.397 2.613-1.4553 1.04671-2.8867.68129-4.43.916-2.35051 1.56907-3.52171-2.48198-5.12297-3.25-2.57547 1.21877-1.9307-2.94313-4.54-2.302-2.29359-1.07271-4.37754-3.74999-4.476-6.353.009-3.79436.28637-10.07928 4.976-10.349 3.14642-.28111 7.20472 2.13866 9.19797-1.565 1.4218-1.03743 1.3257-3.11436 2.355-4.326zm-32.85197-38.704c-.57472 2.83421-3.96896.3075-5.823 1.708-3.83849-.10324-4.22138-4.35736-4.746-7.207-.76503-3.3577 4.13958-5.09503 6.78-4.424 3.21099 2.04704 4.31739 6.27126 3.789 9.923zm-18.654 68.32c.82937-1.96197 2.94323-5.01611 5.443-4.176 1.86469 2.53018 5.32916 4.82587 5.669 7.963-.57521 2.89644-3.75472.72007-5.4 2.732-2.28263 2.92168-4.71168-2.09316-5.105-4.261-.47259-.60142-.69737-1.34577-.607-2.258zm10.704 4.964c.002-.003.002-.003 0 0zm98.24497-126.706c1.9613 1.80144 2.2719 4.35398-.032 5.794-3.1303 3.83352-7.706-.80841-9.727-3.849-1.218-1.28348-2.0188-4.91085.738-4.549 3.2338 1.34319 2.0919-2.32652 4.221-2.222l1.7726.74527c1.0026.49227 1.1512 2.95995 3.0274 4.08073zm-38.544-4.82701c.1938.35455-.077 1.33342-.525 2.04701-.2106 1.01342 2.7109 8.95736 3.046 5.647 1.4589-3.09253 5.1681-5.47834 8.048-2.934 3.1634.47163 2.4559-3.44749 4.08-4.76001h5.999c.601 3.25306-2.0894 6.30149-2.07 9.34901-2.2025-.16187-3.8685.26545-5.75 1.449-2.7656-1.27837-4.3796-.38163-6.425 1.71-3.031 2.68578-8.6779 1.32728-8.859-2.626-2.5766-2.449-4.8998-5.90391-3.856-9.88201zm-120.78298 37.76001c2.53476 1.56091 5.71243-1.14784 8.06801-2.064 1.0627 1.98563 2.34714 4.86308-.722 4.021-8.50992 3.79233 1.33797 10.70946 3.196 1.636-1.30659-.0146-.23856-4.41916 1.166-4.262 3.86881 1.18849 3.27249 6.94552 5.176 9.823-1.54612 4.27185-7.71344 6.10282-11.982 5.23-2.47168-1.05638-5.68287-2.76452-4.108-5.951-.0869-1.16409-.55942-2.41504-.79401-3.711zm81.35501-37.76001c4.98787 1.09775-.55267 9.23153 2.393 11.45001 3.04098 3.03995 5.51114-1.38768 8.577-.842 2.50692-.25585 13.54467-6.02774 8.39737-6.68288-3.05721 3.25724-13.51897-1.95047-11.89837-3.92513h3.951c1.56941.63547 2.77944 2.40919 4.216.46301.25034-.12607.0822-.3845.387-.46301h7.19197c1.4464.7319 3.4647 2.0542 3.032 4.12801.5803 3.57182-1.3144 7.78989-4.615 9.411-3.1462-.52409-3.4114 5.67404-7.15697 2.75-3.93266-2.67341-7.09878 4.89431-11.273.917-2.94517-1.74482-8.81641-4.49118-5.658-8.616.34326-1.01573-.90291-2.86349-.398-4.193-2.70663-.55116-2.56515-5.37459-5.875-3.839-.19868-.23484-.84382-.44565-.664-.55801zm93.89397 0c-.2215.50168-1.4628 1.56922-2.0181 2.96903-.5247 1.32272-.5657 2.99982 1.2691 3.90602 3.117 3.00613 7.8294-.36735 6.8083-4.43513-1.1052-1.91606-3.5991-2.3872-3.8393-2.43988l5.194-.00004c1.7374 2.89045.9791 6.4525.425 9.34301-3.8892.72825-7.4464 3.40573-11.371.798-2.2226-1.54427-2.4485-4.93568-2.276-7.166-1.5276-1.33811-.1343-2.55019 1.49-2.97501zm-175.24898 104.59101c2.16846 1.42066 6.00891 4.90874 5.81201 8.323-.43455 2.5234-5.55038-.61219-4.743 3.153-.16582-.0894-.94105.16988-1.06901.041zm58.50701-76.306c.00033-.001.00033-.001 0 0zm-6.108-12.298c-3.24001-4.31162-7.85052-5.87375-13.273-4.798-3.58176-1.85372-7.53778 2.68461-4.432 5.549.25926 4.67508 2.70647 7.43317 4.531 11.368 2.05152 3.38464 7.59189 3.23612 8.61925 8.00725 6.14278.56082 5.78882-3.85956 7.91675-8.73725 1.87513-4.1234 1.66236-9.75586-3.362-11.389zm1.552-1.983c3.57711.77201 7.70066 4.12744 6.075 7.931-.1596 5.72775-4.4195 9.88212-4.427 15.554-1.79212 2.31518-2.71835 5.02105-4.35 7.351-2.43515 1.44142-4.40125.66698-7.025.103-4.46075-.65863-5.00205-5.52912-8.187-7.864-1.77662-4.79845-6.42974-8.68237-5.041-14.295.93877-3.7322-2.48842-6.46889-1.453-10.091 1.65433-2.66592 3.81775-6.60989 7.551-5.97 3.11814.13748 6.30328.47437 9.602.755 3.12752 1.01532 6.18113 2.83227 6.528 6.214zm-25.682 42.93c-2.80816 2.57176-9.39948.0471-9.794 4.705.88474 4.22354 3.65045 8.97533 7.405 11.841 3.59225 6.80113 5.65853 2.0558 1.996-3.034-1.31238-5.10546 3.79031-9.35398 8.566-7.426 4.31573-1.305 8.65805 1.14651 2.02187-2.92437-1.20792-3.6599.57889-9.74951-4.67587-10.91763-2.47195.46103-3.70781 4.37452-4.545 6.635zm1.184-12.202c3.0382.31689 6.79439-.46675 9.633 1.776 3.02759 2.00392 2.77232 6.84019 4.411 9.306 2.73525-.64308 5.68391 1.20967 8.095 2.123 2.18811 1.99857 4.52853 4.75949 2.039 7.452-2.25693 2.42002-5.89192 4.51249-8.88 2.272-4.47103 2.5891-9.01329-.75437-13.203-.721-2.40862 4.43537 5.56522 4.74795 4.093 9.305-.8455 1.63972-1.68916 2.97075-2.215 4.633-3.3895 2.79126-8.77359 2.16273-12.143-.628.10286-3.805-6.48762-2.51183-4.533-7.022 1.75511-4.41936-6.31784-5.86779-3.342-10.806 1.06653-3.25232 2.46801-9.58031 7.184-7.392 1.06521.11351 2.59815-1.50289 4.007-1.299.48687-2.81288 4.25983-3.96724 2.733-6.941.23174-.85867.72861-3.07843 2.121-2.058zm190.33597 59.941c.014-.0103.014-.0103 0 0zm1.857 1.448c-.01-.014-.01-.014 0 0zm-8.605 9.787c-.1152.17464-.065-.009 0 0zm4.724-13.184c-3.8987-5.20844-11.6598 1.61341-9.343 6.493.2983 2.90387 1.2503 5.76724 4.551 6.755 1.7367 3.67606 6.7786 5.28337 9.589 1.903 2.5663-4.1637 3.942-8.58732 4.193-13.248-2.5846-.49742-6.1345 3.76494-7.25-.869-.6119-.28915-1.1149-.77327-1.74-1.034zm1.239-5.772c2.9395 2.28466 5.5196 3.51482 9.152 4.076 2.5782 1.7327 1.0254 4.55902 2.125 6.923.1363 3.96733-1.842 7.43821-3.148 10.991-2.588.98407-2.8522 4.77615-5.887 4.859-2.8379.9443-5.7447.40409-8.122-1.443-2.3059-.17038-1.9704-3.75657-4.477-3.406-1.9002-1.92716-4.8038-3.95896-3.982-7.336-.7727-5.17175 1.177-10.61235 6.003-13.21 1.9917-2.89995 5.5039-1.51036 8.336-1.454zm-84.004 74.273c.01.006.01.006 0 0zm-29.742-13.307c2.8325 4.44317 1.951 10.59809 6.317 14.122 4.4846.40063 9.6425 2.07096 14.144.653 2.0329-3.58753 10.0468-3.97899 8.005-9.174-3.3191-1.76051-5.5359-5.70767-9.049-6.496-3.5581-.87698-6.4141-4.73766-10.185-1.238-5.4313-3.18631-6.1666-1.67548-9.232 2.133zm-1.276 3.108c-1.8737-2.87633-2.7157-6.08325-2.369-9.437-1.6043-3.02747 1.2726-6.49518 4.201-6.393 2.9804-2.87339 6.9801-.647 10.087.482 3.7219.64178 7.1373 2.99556 10.627 4.452 4.0142 2.39184 4.9301 8.16006 9.678 9.595 2.425 2.70281 1.7541 6.83093.649 9.953-3.0596 2.80948-6.5753 4.29768-10.083 6.553-3.0536.8984-6.5215 1.39441-8.752-1.077-2.9005.71861-7.839 1.66147-9.707-1.167-2.3979-3.79503-3.5244-8.37921-4.21-12.573zm80.242-22.576c1.1351 2.19288.3849 5.65608-1.289 7.721-.895 1.33403-3.4915.5793-3.289-1.122-2.0021.84257-4.3157 1.93614-6.305 2.043-1.9823-2.28106.083-5.82656 1.609-7.987 2.1269-2.71692 6.5227-5.0877 9.305-1.777-.5337.27531.33.89855-.031 1.122zm29.219-125.795c0 .002 0 .002 0 0zm-12.372-12.65501c.091.55491-4.2368 2.62927-2.242 4.82403-5.1275 1.0524.8241 5.29402-.48 8.702-1.4331 5.02681.6093 11.11533 6.197 11.852 9.1098 1.47073 4.1974-7.44161 8.244-11.921 2.6394-3.37809 7.6729-4.85201 9.817-8.957-2.6499-2.44521-4.0613-3.96008-3.943-4.50001l7.4228-.0276c1.4958 2.85634 2.9184 7.75393-.5048 9.74659-1.4373 2.91748-3.8578 4.44662-6.896 5.299-2.0989 1.42762-4.0204 4.71432-.802 5.939 1.1596 1.7535 1.4925 4.25355 1.318 6.252-.9444 2.44352-3.8716 1.60183-5.237 3.675-2.4461.0572-5.2187-.23283-6.655-2.079-2.6-.32674-4.7251 2.51266-6.831.387-2.7336-2.01124-3.3656-5.74943-5.88-7.791-1.059-3.21182-.49-6.28012.126-9.318-1.14-2.68649-1.0421-5.65239-1.05-8.718.4295-1.31533 1.0081-2.75039 1.908-3.36501m40.711 25.45601c-.4205-1.39031-1.9907-8.84735-3.9101-4.37163-7.8015 1.5203 2.2452 7.31914 3.9101 4.37163zm4.936 1.133c.6417 2.8416-1.647 4.26217-4.059 4.556-2.3325 2.16395-4.6333-.99687-6.796-2.093-.4749-1.56346-3.471 1.63694-4.173-1.008-1.0286-2.97-3.2322-5.66493-3.425-8.28.9604-3.65345 3.2251-8.87866 8.335-8.75 7.8823.73202 8.9344 9.46448 10.118 15.575zm-25.379 112.887c-3.3374.74274-8.4312-1.48739-6.658-5.363-.8915-2.90984-5.9451-2.56015-7.994-.872-2.9914 2.23606-6.6122-.25157-6.076 4.985-4.411 2.08592.9938 3.93195-.658 7.29 2.0016 1.69955 4.7255 2.67288 8.074 2.58 3.0046-2.55994 6.6581-3.79516 9.556-5.138.5846-1.64079 3.1643-2.38611 3.756-3.482zm4.648.562c-.8555 2.57199-3.84 2.92037-4.259 5.842-1.3846 2.08474-5.0485 5.05953-7.266 2.984-2.5211.75524-4.8414 2.84583-7.227 3.041-1.7177-1.50742-3.2628-1.92204-5.41-1.407-1.5021-2.33334-6.0274-2.32081-4.858-6.182 1.0863-2.18937-3.5201-3.21786-1.246-5.633.64-1.40637 2.9461-2.61416.93-3.86-1.2083-4.42921 5.0805-5.09464 7.955-5.745 3.2568-3.29885 8.0248-2.14384 11.944-3.092.533 1.90678 1.4446 3.0599 3.102 4.179-.3547 2.83166 1.0399 3.67349 3.552 4.635 1.7703 1.11491 3.3175 3.10774 2.783 5.238zm20.617-77.408c-1.5835-3.7472-1.3974-7.65351-1.7-10.748-2.2647-3.06618-1.438-6.72224-4.324-1.179-1.898 4.42318-6.6901-.77911-8.595 1.604-3.5346 2.52129-1.6365 6.19823-1.51 9.407-4.3045 3.95892 4.4126 2.676 3.813 7.057 2.9121-1.93553 6.8681 2.83824 8.6664-.99888.2364-.87045 3.598-2.52635 3.6496-5.14212zm4.566-11.146c.1396 1.80223 1.2582 4.76415-1.154 5.385-.1923 2.63724 1.1247 5.569.376 7.833-2.1761 1.05131-3.385 2.24473-3.69 4.578-3.0433.50132-4.8366 4.76205-8.354 2.526-2.0301-2.13948-4.8023 2.07468-6.703-.801-1.3233-1.13549-1.8257-3.84609-3.92-2.35-4.4466-.0625-4.2098-5.85757-2.879-8.922-1.5416-3.67541-.5632-8.18222 1.416-11.736-.071-2.33787 3.5972-.11966 4.759-2.273 2.9032-.0919 4.8318 1.17376 6.933-1.596 2.8389-3.01418 9.0934-1.96603 9.272 2.264 1.0628 1.87793 3.4606 2.77653 3.944 5.092zm-32.505 17.32c2.5231 1.46755 5.8177 4.63363 4.462 7.562-3.1884 2.33557-.6214 7.26702-3.399 9.45-1.8393-.43193-2.7545-3.0742-5.375-2.084-4.2945 3.01467-4.3707-4.85194-2.061-3.703 4.2829 2.88278 10.926-5.82068 2.934-5.113-3.481 1.14225-3.6237 3.06936-5.079 5.364-1.8383 1.87775-3.8647-.92339-3.116-3.242.7447-2.56077.5106-5.7247 1.582-7.974 3.0249-1.89109 6.6836-.73322 10.052-.26zm-19.354-16.766c-2.8981 1.98478-2.9765 7.96156 1.934 7.73 3.5775 1.1518 4.8447-3.31854 3.723-6.119-1.3087-1.70675-3.4003-2.31837-5.657-1.611zm.766-2.99c3.8726-2.14277 8.9886.71014 9.121 4.975-1.4409 1.89666 2.4758 4.49117-.889 4.828-1.381 1.45631-3.0491 2.68985-1.965 5.111-.6657 2.30412-4.782 1.0493-6.285-.142-3.9917-1.45486-6.097-7.05584-4.953-11.103-.2475-3.60222 2.5675-2.51432 4.971-3.669zm16.567-8.111c-.741 1.65999-1.3882 5.0253-3.965 3.314-.7769.90117-1.0192 3.44208-3.648 2.225-4.0753-.5272-5.9083-5.89347-3.977-9.418-.4268-5.57362 6.8186-3.96594 8.88-.894 1.3694 1.3875 2.4518 2.97773 2.71 4.773zm-136.04597 117.718c-.002.002-.002.002 0 0zm7.103-10.737c-2.42849-3.91333-8.18798-.59411-11.02-4.584-3.48584-3.75816-4.54749 1.75432-7.293 2.216-2.83143.65857-4.13645 2.88991-3.496 5.611-5.37445 1.59765 2.93801 8.98085-.607 13.422-.28562 4.61083 6.84041 9.21948 10.603 5.889 5.26728-1.70464-.85125-8.34489 4.327-11.467 2.96499-2.99021 7.38787-4.61108 9.547-8.505l-.549-1.349zm1.147-5.602c4.55826 2.0092 7.55409 7.90963 5.117 12.403-2.59144 2.12315-3.61259 5.72211-7.587 5.928-2.19857 1.22204-4.8749 4.96272-1.339 6.31 1.15715 1.75197 1.49291 4.25326 1.317 6.252-.96748 2.42362-3.86466 1.60556-5.236 3.675-2.73344.39375-5.21633-.82455-7.009-2.023-2.46904-.29447-4.46099 2.46621-6.478.332-2.73209-2.01144-3.36513-5.75149-5.879-7.791-1.05978-3.21233-.49014-6.28034.125-9.319-1.13978-2.68594-1.04073-5.65041-1.05-8.718 1.72648-3.53043 3.21069-6.77852 7.488-7.57.48382-4.4999 7.34454-3.82334 10.036-1.968 2.51169 1.45163 6.71856-1.65118 9.048 1.573.40762.40432.94788.64178 1.447.916zm7.757 27.489c1.78848 2.50808 8.37457 3.72542 6.3-.107-1.66703-7.55689-2.88153-2.91277-6.3.107zm-6.423-2.482c-.54853-2.41885.85404-4.95419 2.114-7.06 3.42197-5.63449 11.64192-2.88526 13.72897 2.613.6366 4.20222 3.8753 9.15821 1.438 13.204-2.2789.36055-3.93829 2.37676-6.11897 1.588-1.30004-1.06512-3.70174-2.44965-4.656-3.188-4.16803 2.65583-4.25229-4.49891-6.364-6.646-.63034-.5566.45261-.45052-.142-.511zm5.911-92.915c3.71627-1.72685 8.99617-3.36866 10.83097 1.32 1.5198 3.02095-2.25387 4.18917-4.16397 4.946-1.33929 1.57878-4.75645.43251-4.861 3.487-1.19003 2.15066 2.95429 4.06113 3.457 1.658 1.52657-2.56511 5.99767-3.21393 4.55097.624-.8865 2.6467-3.06476 5.29192-6.16297 4.714-2.33445.2229-4.66992-1.78918-5.886-3.529-.2801-4.46403-1.09548-9.71992 2.235-13.22zm78.66497 166.945c-4.1135-2.73846-6.0942 12.40089-11.291 4.387-3.804-2.99131-9.4665-7.79558-3.181-11.531 9.3308-5.25258 4.2675 3.41144 4.712 6.913 2.6852 7.58196 3.4294-4.66048 6.98-3.911 4.8984 2.52498-.5977-3.79875-1.474-5.22-2.6146-3.15526 2.0136-1.66832 3.588 1.159 4.5344.47782 1.3176 5.72785.666 8.203zm22.882-158.586c2.5206 2.31769 8.1699 3.69106 6.104 7.981.1793 5.33611-5.5156 1.45752-5.684 7.628-4.8072 7.01615-8.5204-3.22189-12.897-5.296-2.1483-5.46147 11.3501-11.19325 8.724-3.865-5.1343 3.98909 2.7741 12.03768 3.512 2.591.8093-4.07139 7.0035 2.078 3.663-3.626-2.3809-1.58383-3.8544-3.3758-3.422-5.413zm-84.969-26.335c1.3887 4.62709 3.4482-4.01343 0 0zm-3.222-5.642c.4721-7.7304 11.4945.35502 9.269 5.471-.774 2.15191-4.4719 6.61836-6.535 5.195-.7745-2.10135-5.056-1.54389-4.434-4.241-1.1475-1.79734-1.5026-5.7418.574-6.713.3389.15112.728.39819 1.126.288zm-70.06497 144.184c4.42433 3.15788 7.59374-3.38157 12.14-3.316 2.95041-.26941 3.27059-5.58869.2-6.422-1.24448-2.47414-5.79202.23272-4.51-3.748.50965-2.76697 1.70205-5.61657 3.055-7.368-1.96794-2.11152-3.23536-6.59105-7.205-6.427-3.90833-.96318-5.24877 2.35923-8.386 2.232-.81785.62048-5.37669 2.71274-1.799 2.979 2.75338.80257 5.67577 4.04928 4.535 6.99.95819 4.08942 4.62468 8.5536.936 12.221-4.19693 2.34593-.74912 1.67342 1.034 2.859zm-.905 7.445c-8.34753-.51777-3.6938-12.16058-3.965-16.761 3.26222-7.89105-10.79087-7.92774-4.78-15.09 5.07934-2.60166 7.51235-7.74909 13.83-8.224 5.7102-2.04941 6.90633 3.45653 9.075 6.639 5.24423.79643 5.44828 7.22739 5.39 11.296-3.15227 4.36136 5.51664 9.60671-.145 13.25-2.7059 2.75437-6.98662 3.05857-9.805 5.844-3.49727 1.22283-5.6466 7.02476-9.6 3.046zm210.75027 47.58401c-.284-.20419.1641-1.00773-.1553-1.33001-3.7564-6.13467-3.3416.0606-1.494 1.32901l-4.3822.001c.3517-.82821-2.0055-1.37451-2.4448-.24301-3.6787-.64986-.2954-5.48642-.137-7.833.038-3.37211 3.7669-7.22899 7.354-4.689 4.7961.94087 6.8154 10.0138 5.2597 12.76501zm-243.74128-51.37401c.49364-.92627 1.7697-1.28712 3.38601-1.485.56813-4.26931.0509-8.87655.264-13.361 2.59306-1.78313-2.52211-1.47433-3.65001-3.072v-10.496c.73361-.50671 2.8506.16376 4.93101 1.533 1.90881 2.45819 5.11784-2.46939 6.345 1.316 1.3385 3.29928 3.15601 10.96185-.38 12.929-4.09938 3.11197-3.23465 9.53932-2.245 13.691-2.44208.68514-4.41122 2.03629-5.95 3.92-.87154.2503-2.13415 2.07781-2.70101 1.812zm0 21.02c.24308.87641.35525 1.54904.38705 2.03021.0381.57615-.28152 1.42093-.38705 1.46279zm0-9.173c.77872.31829 2.40582-.12031 3.29751.54782.91044.68218 2.0027 1.87525 1.4825 3.07418.0786.36936-.049.70941-.263 1.014-1.37516.17955-4.02493-.24337-4.51701-1.565zm18.81401 23.156c.014-.0107.014-.0107 0 0zm1.858 1.448c-.009-.014-.009-.014 0 0zm-10.222 8.888c2.93116 1.64979 4.7793 6.35247 8.782 4.341 4.06754-1.30785 4.82286-6.92286 6.032-10.359.7354-3.06909.60016-5.95635-3.023-3.524-3.84734 2.17326-5.59832-6.00691-9.717-4.609-5.15837 1.23379-6.23978 6.33163-4.678 10.332-.13318 1.69859 1.0231 3.29933 2.604 3.819zm-.20636 6.03501c-.3394-1.7788-1.55812-1.77003-2.92164-2.37401-1.7439-1.82233-4.4536-3.86695-3.631-7.055-.77234-5.17176 1.17671-10.61023 6.002-13.209 2.41761-2.89103 6.85832-2.0215 9.912-.675 1.71026 3.8688 6.36477.89817 8.372 4.204 1.93612 1.56382.0146 4.10609 1.33 6.016.13409 3.96491-1.83993 7.43734-3.149 10.99-.69506.79656-1.57715 1.77526-2.41261 2.10301zm1.82136-5.13801c-.115.17254-.0627-.003 0 0zm145.52497-187.164c3.2579.65667 7.2712 3.91544 6.003 7.526.859 3.95465 4.4931 8.1577 1.257 11.859-6.4252 2.66534 5.4674 5.85805 6.542 2.551 2.1759-2.21124 6.9609-1.63009 8.08-4.07 2.0495-2.85999-1.6758-6.05601-4.331-6.291-3.9941.18803-.4592-5.27898-.395-7.337.5449-1.45376 2.4906-1.94723 1.121-3.028-1.4205-4.39231-5.6911-6.67324-10.1168-5.87875-1.806 2.32706-4.6811 1.37999-6.7182 3.55475.049.71344-1.5044.42753-1.442 1.114zm-2.978.186c2.2362-4.83892 7.5674-4.77366 10.1607-9.07738 4.3729-1.33634 12.12-3.29 12.6653 3.42138 1.5774 3.53005 7.5989 3.96181 6.634 9.675.4679 4.37771-1.5279 8.27912 1.686 12.366 1.3211 5.13756-5.387 6.65215-8.771 8.514-3.8337 1.35127-7.2169 8.03131-11.33 5.396-5.9586.23347-9.7685-10.15762-3.764-14.3-1.7411-6.62819-2.0204-10.14592-7.696-13.526.1808-.78239-.058-1.76847.415-2.469zm61.376 106.088c-3.4327-4.64258-11.9418-4.96008-11.216 2.746-1.762 5.05299 7.0904 7.62613 5.178 1.478 1.8386-3.45301 7.0205 1.09769 6.038-4.224zm.89 6.529c-2.8891 2.15087-5.5698 3.2351-8.781 4.032-4.7826 1.26339-5.6546-3.6139-7.855-6.005-3.6781-2.86453-3.9911-8.75962 2.013-8.956 4.5201-3.04506 10.0759-5.92259 13.188 1.531 3.7552 1.90332 4.3373 6.36681 1.435 9.398zm19.415-84.429c1.7312-5.0824-8.7394-8.68327-6.097-2.425 1.0298 3.88203-4.8733 2.25139-4.642 5.652 2.6073 3.38732 12.3109 4.30947 10.739-3.227zm7.665 1.027c-4.1132 2.4141-5.8651 6.56441-9.365 8.93-5.8677-1.16104-15.9281-5.71293-10.582-13.126 3.0551-1.58685 3.6546-4.82694 7.389-5.49 4.5379-2.27907 5.6595 3.56485 9.313 4.266 1.6614 1.56052 4.6692 2.39606 3.245 5.42zm-67.356-61.048c-1.3636 5.32098 1.8492 12.66301 8.35 8.444 5.0958-1.18554 3.1098-10.9504-1.095-5.722-4.1681.98896-3.0543-5.21876-7.255-2.722zm1.139-3.615c4.4992-1.98329 7.7146 1.68887 10.816 3.141 3.2133 1.76084 4.4967 7.11553 1.153 9.232.2291 3.82419-2.5418 10.37139-7.024 6.421-3.2213-3.97729-11.7901-1.86693-8.998-9.601 1.8136-3.31895-.4039-7.6431 4.053-9.193zm-27.195 3.76c1.306 2.00796 5.8083 7.07204 8.192 3.902 1.7985-2.30764 6.9959-7.62332 1.056-6.234-3.2263 2.04345-10.1232-5.43797-9.29.84.015.49913-.1096.99979.042 1.492zm-1.104-7.542c4.4167.54207 11.2514.96646 15.755 1.946 3.0772 3.63579-1.1206 8.06657-3.547 11.085 1.2191 6.19828-4.7384 7.25069-7.198 4.137-1.9021-1.5259-3.0408-4.05673-5.297-4.896-.5128-3.84176-2.3547-8.94258.287-12.272zm-101.92597-18.65701c-1.13165 1.96394-3.05947 2.84399-4.691 1.34201-1.44955-.52789-2.76142-1.09137-2.402-1.34201zm103.14697 92.54601c6.3218 10.55792 3.4476-4.35177 0 0zm-1.234-10.311c9.3726-.75188 13.1067 13.8587 5.29 18.65-1.5558 1.45023-3.7219-1.12088-5.39-1.729-1.5032-1.45137-.7124-3.6107-.837-4.337-1.5863-.80054-3.0206 1.68456-4.008-.536-.022-3.09095 1.7329-6.84558 2.473-9.671.7609-.82223 1.3435-1.99682 2.472-2.377zm-125.61897 124.439c-5.10467-1.6706-8.68604.40748-9.20263 5.81738 1.95853 6.61306 9.84895 1.20681 8.66363-3.47538.86585-.69908-.78326-1.4601.539-2.342zm4.589 6.667c-4.54635 2.22929-7.53577 11.75873-13.646 6.524-4.51825-3.78577-5.58058-9.77686-1.84-14.731 1.703-5.90939 12.04053-3.60084 14.69.962-2.43916 4.0316-.63891 2.88239.796 7.245zm-4.635-6.701c.005.002.005.002 0 0zm55.046-180.966c-4.67571-1.33268-8.52395-.20151-8.999 5.111.44168 6.60898 8.20235 3.15205 8.6425-1.34825-.24751-1.43931.0596-2.36251.3565-3.76275zm2.88 3.345c4.6361 4.01919-5.19184 10.82765-9.078 11.27-4.69087-2.0863-9.02743-7.60099-6.278-13.044.97473-6.81614 8.70015-8.34637 13.913-4.518 5.22751 2.26369-.13792 4.1913 1.443 6.292zm-2.926-3.379c.005.002.005.002 0 0zm59.21397 17.199c2.9296-4.13963 10.0739-2.05603 11.261 2.143.9184 2.7346-12.1185-3.89645-8.979 1.38 3.7499 3.44876 7.4329-.2558 8.656 3.005-.7036 3.53296-8.2549 3.18504-10.207-.015-2.8689-1.07006-3.0178-4.72808-.731-6.513zm-5.51-9.413c.694-6.90509-10.1246-7.95918-14.371-5.411-3.3726-1.1992-5.7695-.69609-8.353 1.434-1.295 2.88244.5859 8.98038 4.073 10.237 2.3484.64265 5.113 5.42434 7.065 2.333 2.8288-2.59935 4.9923-6.35669 9.179-6.815.7833-.44745 3.0595-.25617 2.407-1.778zm3.765-2.381c3.181 9.72532-9.4974 7.91692-12.237 14.707-5.1063 6.03278-11.1118-.65915-15.717-3.2-3.7372-3.43725-1.024-8.70397-3.704-12.025.3149-7.36198 7.2155-7.80177 12.965-8.897 7.3888-.46054 20.4333-2.43489 18.693 9.415zm-25.689 192.564c5.2898 7.15797 11.9434-2.62632 9.3993-8.45025-.53-3.84893-10.7513 5.78846-9.3993 8.45025zm-4.765.577c.5015-2.28287 2.8039-3.95887 3.441-6.443 4.6193-2.29695 10.7453-13.96266 15.32-6.871 4.1473 6.45123-.745 13.16899-4.713 18.24-.8074 5.96432-10.391 4.27374-11.361-.59538-2.181-.75263-2.6216-2.49472-2.687-4.33062zm-104.35097-207.256c1.0897 8.9333 12.47177 2.7612 13.274-3.259-3.73721.14835-12.56588-1.95617-13.274 3.259zm-1.42801-4.505c3.02839-1.25154 6.15379-3.46354 9.69901-1.8 7.75913-4.52226 15.42828 3.82288 7.68 9.825-3.46283 4.88817-10.2229 3.97068-14.921 6.976-.90689-.0992-2.04044-.1021-2.45801-.604zm210.89798 181.462c-.5931-8.9797-12.3008-3.45012-13.435 2.517 3.7429.0582 12.4375 2.65177 13.435-2.517zm2.419 4.385c-3.7752.48585-6.9762 3.75488-11.029 1.451-7.9993 4.08406-15.1907-4.67533-7.121-10.237 3.7289-4.68714 10.4281-3.39615 15.285-6.136 6.0238.98834 6.0465 7.92777 5.473 12.314-.429 1.15447-1.3947 2.59559-2.608 2.608zm-36.83-89.277c1.2729 3.86971.2902 13.84893 6.133 11.944 8.5458-2.43388-1.1935-12.8539-6.133-11.944zm-2.316-5.521c6.0733-2.27055 13.2359 3.40191 14.631 9.476 3.9307 4.06957 4.5625 10.54429-1.549 12.895-2.9191-.44976-5.8694 2.18882-8.4-.09-1.2156-1.90464-2.292-4.42424-3.835-6.412.7223-5.3391-5.0564-11.46395-.847-15.869zm-59.787-27.638c1.3801 2.86069.9619 6.32329-.961 9.025 3.703.47396 7.9151-2.04014 11.404.806 3.7072-.14594 6.9724-1.66524 10.206-3.215.6145-4.10909.044-8.42823.264-12.775 2.203-2.22632-1.4436-2.13337-3.404-3.445-2.5214-2.57195-6.7997-4.80904-9.87-2.341-2.9739-.0276-.562 4.84308-3.787 4.799-2.7672 1.07011-1.6268 4.79406-3.672 6.733zm-.031-13.404c2.247-6.0288 11.428-11.75216 16.91-7.071 3.4952.38338 6.655 3.95642 9.894 1.316 4.54 2.93643 3.21 9.54996 2.57 13.93-3.7031 1.256-5.1264 7.74937-3.839 11.355 2.8387 4.4905-3.6193 3.19724-4.59 6.189-1.9592 1.65462-3.9234 3.19858-6.827 3.209-2.6296 1.40905-5.3884-2.89232-7.748-.084-2.9854 1.68521-6.4319-.10088-9.175-.66-1.9795 1.04531-4.7735.78148-5.205-1.944-2.1175-4.42251 2.1903-7.09982 3.909-10.485-2.1696-4.65373 1.8184-8.88776 4.171-12.606l-.341-1.309zm6.521 51.81c2.5459-.0631 3.999 3.03297 5.999 4.607 4.938 3.76263 5.5393 10.85243 1.719 15.389-.2471 1.15323-2.5877 2.90094-4.052 1.754-1.5778-.68592-2.3956-3.07016-4.478-1.724-1.6556 1.15936-4.3118 4.6078-6.265 2.249-.792-2.91392 4.1037-1.82431 5.249-4.314 1.6402-3.14485 8.1038-.60593 7.1-4.886-1.1321-1.70313-2.6978-3.19226-3.964-4.557-2.7448 1.01342-3.8398 4.09242-5.315 5.845 1.5306 3.51633-3.3749 6.03391-5.707 4.507-.1-2.77947 1.8432-4.95091 1.205-7.95 1.2747-3.92755 2.427-10.05048 7.688-9.725-.4928-.75988.7225-.79962.821-1.195zm-120.87598-29.692c.5137-2.71775 1.9962-5.00836 4.97301-6.385 2.67003-2.71934 6.38907 1.71016 5.214 4.715.81363 1.89052-1.46202 6.51907-3.666 4.309-2.9159-.37744-2.94128 5.10731-.522 5.783 1.83921 3.21947 7.06779 1.72675 9.213-.381 1.80743-3.42062-1.32072-6.54887-3.682-8.554-.83102-1.48614 1.14037-4.7473 2.073-4.422-.34549 3.36116 4.66893 2.5319 5.095 5.754 1.20748 2.44898.60035 5.37056.939 8.117.52972 3.91971-4.23989 3.755-5.114 6.81-2.55643.93893-5.72743 4.28123-7.99 1.317-.88502-3.38372-4.50684-3.61987-6.53301-6.041zm-.014 57.837c.93475-.88271 1.68776-2.23655 1.54255-2.74161-.20183-.70198-1.06471-1.2286-1.52655-2.10639v-3.631c1.96344-.55247 7.79214 5.18057 5.35501 7.696.11904 3.38789-4.30543 12.05243.785 5.682 3.57191-2.55242 10.048 2.83166 12.452-2.936.40954-2.37625-3.42477-4.60924-5.375-5.884-3.76181-3.06718 1.50695-9.96616-3.211-11.678-2.83268-2.05206-7.89117 3.17983-10.006 1.94l-.00001-5.78c.97297-1.08176 3.26267-.33573 4.97101-1.916 4.23834-1.36341 8.45939 2.23924 11.253 4.969 2.02744 2.29437-1.80854 4.12766-.001 6.16-1.04417 2.94853 2.9308 3.38799 3.434 6.115.5843.55814 1.06563.0535 1.617.066 1.79942-.094 4.29914 1.87614 2.203 3.665.0943 4.59434-3.17041 10.23044-8.579 9.8-2.13537.6176-5.59936-.97896-4.972 2.333-1.69696 2.64271-2.70421 5.89966-6.006 6.873-.86432 1.2567-3.0984 1.41818-3.92001.375zm57.65701-34.988c-.002-.004-.002-.004 0 0zm-5.187.083c-3.00484.67403-4.03284-3.45149-4.501-5.74-2.35989-2.41822-7.22734-.17513-7.523-4.876-.63758-4.40975 3.36239-.15586 3.346-3.353 2.97858-3.70791-4.90226-2.23876-6.5955-3.88313-1.32791 3.14875-2.94102 5.92582-5.2285 8.30113-1.54241 3.62631-3.56419 7.37728-4.196 11.269.17672 3.34739-1.25409 9.87898 4.094 9.573 4.38437-1.50009 7.4437-8.36646 12.863-6.299 1.72235.5924 4.40378 2.78525 5.198-.106.62779-1.58921 3.53035-3.36833 2.543-4.886zm.456-4.403c2.57144.0156 2.02879 2.96985 3.952 3.65 2.79791 2.2821-3.00578 3.38463-1.193 6.273-1.23003 1.82787-2.73957 4.47959-5.091 4.731-3.34107.32104-6.72452.42006-8.92 3.277-1.20429 1.94329-2.47067 7.23126-6.15 5.112-2.01226-2.02591-4.88986-1.9974-7.383-2.904-2.06354-1.73332-3.65346-3.70334-4.139-6.416-1.81311-7.0182-.28397-14.78923 4.314-20.557 1.33664-3.36262 2.757-6.39813 5.72-8.267 2.26716-4.89116 9.41032-6.20749 13.907-3.372 3.96475 2.71874 2.3858 8.05932.008 11.62-.43981 2.34081 3.95308 2.21051 4.704 4.629.65836.61588-.2512 1.60953.271 2.224zm-5.34 10.576c-.006.009-.006.009 0 0zm-14.585 39.456c3.92685 5.96469 14.72161-6.32304 8.153-3.125-3.66708-1.48239-5.87618-6.31598-7.742.914.0826.70361-.97501 1.50451-.411 2.211zm-4.167.285c.14656-3.54152 2.22063-7.45709 3.835-10.852 2.2246-2.72943 6.07759-7.40057 9.785-4.352 1.05075 2.44278 2.39894 4.98809 1.701 7.855-1.12881 2.22938.30206 3.22215 1.465 4.964 1.16196 1.91422-.41393 4.06243-1.069 6.047-1.6558.1228-3.64755-.19656-4.972 1.577-2.24642.79889-5.38194.95701-6.972-1.415-1.236-.38126-2.77131 1.46533-3.379-.951-.9985-.59045.049-2.0557-.394-2.873zm112.37797 6.98c-.4744-5.74061 1.7068-13.80715 8.112-14.668 4.0667 1.34627 3.9781 7.87607 1.04 10.454-1.4145-.36728-4.079-1.44384-3.797 1.283-1.2776 2.94892 2.0545 4.16655 3.574 5.713 3.0761-.15193 8.7756-.77199 7.456-5.138.1017-3.32081-4.1851-4.15652-4.194-7.077.2905-1.20877 2.4895-5.09369 2.344-1.71 1.4087 1.77899 4.8122 2.0507 5.117 4.989.775 3.14708 1.4674 7.40907-.119 10.551-1.5324 1.15821-3.5301 1.87172-4.208 3.857-2.5577.93956-5.7271 4.28092-7.99 1.317-.8806-3.72913-5.4323-3.62682-6.949-6.812-.062-.97541-.4819-1.77105-.386-2.759zm-4.867-60.172c-1.6498 1.04-3.7807-1.5082-5.765-1.704-2.5294.66561-1.8846 4.4925.535 5.766 3.0534 2.72866-1.1311 7.6142-4.273 6.808-1.8105-1.2447-1.5098-3.72007-3.851-4.705-2.2851-3.67971-.099-8.88829 4.198-9.848 3.1719-2.83707 5.4843.31098 8.885.571.5056.92098.5712 2.14052.271 3.112zm-49.01097 110.761c2.88037-.10751 2.0601 5.14057 4.816 3.529 4.09641 1.33948 6.45421.27536 8.30697-1.487 4.696-3.46981.2754-7.94644.781-12.121 1.2227-1.3238-2.55347-8.89976-2.74197-6.55-1.29818 3.21171-5.16714 5.7884-8.099 3.177-3.00463-.37442-5.07287 4.08377-4.256 6.665 2.7176 2.72557-3.62102 6.40127 1.193 6.787zm-.515 4.85c-.71466-1.9921-1.93942-1.53805-3.675-1.174-4.19609-1.06971-2.69409-6.543-2.222-9.446-2.22806-4.19392.90764-8.30098 1.465-12.271 2.20273.16311 3.8685-.26568 5.75-1.448 2.76553 1.27759 4.3809.38108 6.425-1.71 3.03202-2.68804 8.68167-1.32471 8.85897 2.626 2.5786 2.44924 5.2333 5.40997 4.192 9.391-1.0705.94347-1.9148 1.73276-1.157 3.515-.1945 2.4776 1.7895 5.54273-1.569 6.587-2.309.60491-.8012 4.17601-3.924 4.203-1.88122 1.50351-4.18969 3.41-6.75897 1.555-1.9335-1.72414-4.7448 2.24953-6.497-.769-.37541-.3479-.51066-.73736-.888-1.059zm-53.25 1.072c1.23758-5.29845 6.51493-10.5695 12.215-10.833 2.31076.3079 5.98201.0609 6.388 2.989.1584 4.40187 5.0201 6.0585 6.467 9.653-.50689 3.13179-5.1452.43022-6.156 4.044-.56694 6.69573-8.29261 1.13373-5.477-.605 4.48167-1.26435 5.16945-11.62722-.503-8.879-4.57984 3.18264-2.20812 7.4813-1.285 10.804.95031 1.40771-.81763 3.70051-2.686 2.469-3.91579-1.72837-5.5654-6.29168-8.759-8.62-.14329-.36793-.18609-.64189-.204-1.022zm92.71597-21.77c-2.332 2.58495-7.9552 2.17472-7.988-1.592-1.7004-.28648-4.5723.89915-4.862-2.084-1.0368-2.96816-.2313-6.66737 2.712-7.373 3.7725-1.26735 7.6512 1.49389 2.888 3.164-.5491 1.60606.5892 2.50413 1.087 2.893.4403 2.82719 4.1138 1.94432 4.314-.638-.1759-2.25295 3.1028-5.65633 0-6.829.2126-3.50794 5.6234-2.48679 6.255.299 1.7914 2.20178 1.0941 4.52732-.895 6.252-1.0414 2.16107-1.1973 4.4159-3.507 5.908zm7.866 8.105c4.4095-1.09814 12.6781-2.1535 13.742 4.623-1.3803 3.71922-.8403 7.71898-2.617 10.609 2.2903-3.23549 5.3752-4.29725 9.02-3.202 5.3896 1.80418 8.9214-4.40644 3.498-6.918-5.5439-1.26656-3.5704-8.15868-3.8437-12.20475-3.2814-3.10727-6.1765.0815-9.5073.36375-3.3952 1.2298-8.9221 3.09238-10.292 6.729zm-5.246-1.925c.5596-3.40767 2.6281-7.8674 6.414-8.137 2.0442-3.36886 4.9127-2.89259 8.317-1.715 3.0364-2.49967 7.3038-3.52579 10.53-.374 2.648 1.37562 6.3928 4.30272 3.683 7.446-.3423 1.01835.9042 2.86226.398 4.194 2.642 1.08494 2.9481 5.02054 6.184 4.174 1.8895.4576 2.3579 2.25382 1.01 3.769.062 4.50797-3.2615 9.9297-8.528 9.487-2.14.58231-5.5966-.96027-4.971 2.333-1.699 2.64464-2.7042 5.89948-6.006 6.872-3.0968 3.00454-6.6216-1.59007-7.209-4.742-1.4723-3.33674 2.9961-4.88557 1.31-8.246.1344-3.83912 3.2952-6.3543 3.808-9.73-3.8083-3.31266-5.8409 4.40295-9.971 1.977-1.4164-1.18193-2.5375-2.29526-4.042-3.168-.9523-1.15235-.4882-2.73472-.927-4.14zm-69.55197 31.807c-.0437 3.21232 4.83878 4.74341 7.115 2.96 2.5813-2.44227.49641-8.61657-3.804-7.27-3.0277-.24958-2.15736 2.64443-3.311 4.31zm-2.429-1.161c.70026-2.12337-.20066-5.18928 2.753-5.348 3.31229-.6634 7.18801-2.64263 10.203.512 1.39942 1.7275 1.68219 4.57495 1.486 6.515 2.18089 1.82572-1.43802 2.25198-2.253 3.441-1.99493 1.13118.88047 4.52074-1.68 4.963-5.26954.34493-9.52084-3.5529-10.352-8.607-.36729-.34831-.0285-1.0694-.157-1.476zm15.138-221.209c-.67745 2.08119-1.37736 5.46358-4.526 4.876-3.22751-.0286-5.75981-2.94773-8.065-4.938-1.70511-2.53355-2.48335-6.1768-.303-8.323.99539-5.3603 9.10981.11385 5.052 2.811-1.93105-.008-4.11414 3.87164-1.115 3.4.53333-2.15365 5.64288-.53944 4.127-3.049-1.89687-2.48394-.4061-3.7095 2.226-2.561 2.44606 1.9639 2.10532 5.05281 2.604 7.784zm-5.557 103.773c.75829-2.41362 1.66692-4.74285 4.19-5.233 3.54288-3.83564 7.52169 4.41486 3.083 5.077-1.6943-.87045-5.91893.77966-3.087 2.277 1.604-1.53453 5.0517 2.56781 5.118-.363.0222-2.5746.80751-3.63956 2.843-1.609 1.74781 2.94499-.3633 6.27698-1.815 8.748-1.56352 1.61387-4.14087 3.59111-6.413 1.467-2.4278-1.92835-3.12077-5.50891-3.933-8.406zm119.71097 123.375c.8313-2.83701.6443-8.25558 5.072-6.905 3.6295.82037 7.7647 4.5922 7.21 8.472-.9022 1.62095-1.622 3.88092-3.945 2.304.012 3.07494-3.9796 2.60401-5.988 1.372-1.2165-1.40434-1.9732-3.22608-2.349-5.243zm-123.99997-46.666c.83145-2.83688.64262-8.25488 5.072-6.906 3.62803.82218 7.76425 4.58964 7.21 8.473-.90262 1.62042-1.62271 3.88183-3.945 2.303.012 3.0766-3.97891 2.6035-5.988 1.373-1.21581-1.40453-1.97343-3.22681-2.349-5.243zm88.28097-72.251c.014-.0103.014-.0103 0 0zm1.857 1.448c-.01-.014-.01-.014 0 0zm-8.606 9.787c-.1135.1734-.064-.007 0 0zm13.715-11.281c-2.5845-.49711-6.1345 3.76462-7.25-.869-3.5722-4.46548-10.343-3.0737-11.382 2.552.6909 3.17411-.035 8.24607 4.464 9.333 2.0402 2.95435 5.1171 5.39463 8.783 3.417 3.1159-3.32895 4.7201-8.09287 5.108-12.456-.2206-.66127.8597-1.34096.277-1.977zm3.53 4.232c-.1487 3.5976-1.95 6.75564-3.151 10.082-2.5887.98564-2.8527 4.77683-5.888 4.86-2.837.94422-5.7468.40393-8.122-1.444-2.305-.16812-1.9702-3.75621-4.476-3.405-1.8995-1.9261-4.8038-3.95707-3.983-7.337-.7716-5.17326 1.179-10.61224 6.003-13.209 2.4166-2.8912 6.8587-2.02128 9.912-.675 1.7101 3.86917 6.3644.89824 8.372 4.204 1.9361 1.5646.013 4.10154 1.33 6.016zm8.643 4.479c3.9054.48306 1.0972 5.73968 1.563 8.075-1.7007.61401-1.7408 3.26604-3.762 2.943-.074 1.89932-1.9136 3.06387-2.382 4.549-1.7806-.67983-3.616-.98934-5.756-.389-3.0896-4.36271.3918-10.21663 3.156-14.14 1.7395-2.49692 4.7562-1.68227 7.181-1.038zm-98.16897 90.556c-1.74364-1.14803-2.8142-3.08125-3.55762-5.004 1.30317-1.02652 3.00368.0131 3.64562-1.647.75608-2.63088-4.40508-6.96998-4.518-2.62.63824 3.58151-2.59907 4.49267-4.147 1.607-.31305-2.23469-.6306-5.61523 1.755-6.897 4.28175-4.03202 9.46908 1.45342 10.128 5.732 2.09348 1.99792 1.25533 5.63485-.569 7.497-1.03699.19231-1.60394 1.52874-2.737 1.332zm27.789-82.711c-.25714 2.50177-.1796 5.57082-2.881 6.579-4.7573 3.30512-8.93223-2.85799-9.299-6.988-1.9598-2.6017-.32456-7.13383 2.887-7.966 2.77671-1.13204 3.37867 2.7283 4.448 4.571-.71051 1.72248-3.69401-.3172-3.819 2.043-.72825 3.08397 4.27053 6.83306 4.488 2.031-.0425-4.25438 3.17602-2.58766 4.176-.27zm3.80497-93.334c-3.3035 4.99544-8.04895-.23028-10.66797-3.854-3.66159-4.36774-4.72358-11.8301 2.469-12.355 6.15937 5.86373-6.78974 4.96048-.314 9.037 4.96987-2.79805 9.00787 1.9255 8.51297 7.172zm-16.33997 180.698c-2.57747 2.80524-9.76536 4.0207-11.826 1.299.4812-3.84595 6.86976-4.25648 10.018-3.968 1.14918.22893 1.55723 1.87787 1.808 2.669zm-63.4-191.553c-1.98589 3.50493-9.51851-.29816-11.272-3.46412 2.19094-3.59638 8.31163-.61995 10.951 1.38012.6578.49672.60025 1.41699.321 2.084zm145.66597 71.129c-1.6853 1.64124-2.9084 8.71531-5.885 5.916-1.2018-3.46244.2123-10.50162 4.461-10.473 2.447-.93889.883 3.46682 1.424 4.557zm30.67 73.318c0-.004 0-.004 0 0zm-27.399-6.061c-1.6003 4.32057-2.9374 8.38935-2.604 13.253-.4599 3.99474 4.9462 5.57359 7.058 2.443 3.1401-3.09103 7.898-7.01061 12.084-3.623 3.2796 2.02493 4.1477-3.64377 6.015-5.25-2.0413-.47401-4.8378-2.87562-4.566-6.025-1.7879-2.84385-6.5497-.58455-7.398-4.168-1.9527-4.16616 2.2366-2.5585 2.92-4.104 2.9918-3.67485-3.1483-2.68875-5.1832-3.6975-2.7937-.55539-3.7254 4.8494-5.7028 7.0785-1.5892.67395-1.5651 2.8119-2.623 4.093zm.163-9.67c.8877-1.91813 3.6164-2.60349 4.07-4.853 3.5378-4.14217 10.4122-5.08142 14.621-1.295 2.4518 3.1472.9216 7.44334-1.161 10.706-.44 2.34108 3.9534 2.20983 4.704 4.629-.741 3.04907 3.5222 2.39231 3.146 5.383 2.7272.35488 1.9401 3.20698.151 4.016-.3342 2.06069-.3065 4.15411-2.37 5.441-2.2528 4.06398-8.6298.76481-11.255 4.787-2.2024 1.43776-1.8215 5.84232-5.191 6.151-2.8318-.72451-4.7976-3.29022-8.004-2.885-2.5406-1.4087-4.5082-3.82138-5.007-6.678-2.0638-7.04974-.4248-14.99353 4.191-20.825.7003-1.52219 1.4598-3.13734 2.105-4.577zm17.165 21.987c-.01.009-.01.009 0 0zm-14.585 39.456c3.9273 5.96399 14.7217-6.32348 8.153-3.125-3.6671-1.4835-5.8771-6.31544-7.742.914.083.70361-.975 1.50451-.411 2.211zm-3.908 3.039c-1.2393-4.59026 1.6124-9.08942 3.416-13.37 2.2266-2.83171 6.1384-7.65134 9.945-4.587 1.0516 2.44176 2.3986 4.98759 1.701 7.854-1.1288 2.22978.3023 3.2219 1.465 4.964 1.1619 1.9159-.4139 4.06101-1.069 6.046-1.6538.12465-3.6471-.19777-4.972 1.578-2.2508.79727-5.381.95674-6.972-1.415-1.4755-.48223-2.46 1.76744-3.514-1.07zm78.924-182.003c-.3369.40102-1.0229-1.23082-1.31-3.591.2025-.38812.8706-.88318 1.31-1.131zm-.001 73.627c-.3174.41528-1.1216-.0376-2.154-.938-.9055-2.76153-4.5533-4.17966-4.467-7.203-.044-.99197 1.8608-2.94302 3.093-3.429 1.3775-.8231 2.8746-.80468 3.528.053zm0 64.602c-2.4691-2.47955-6.679-4.54972-9.645-2.152-2.9099.0799-.6844 4.80394-3.884 4.901-2.7115.99011-1.5213 4.78213-3.575 6.631.1427 2.78005 1.7605 6.22353-.916 8.868-.2906 1.64803 3.5236.25596 4.742.07 3.8984-.91406 7.2403 2.5845 11.074.445 1.1426-.62284 1.8821-1.32488 2.204-.844v6.78699c-.678 1.03672-2.2124.73608-4.069.69701-2.6768.71524-4.5305-2.95967-7.165-.04-3.0608 1.58229-6.31-.49986-9.105-.75-2.1155 1.28675-5.03.34949-5.12-2.639-2.0141-4.29146 3.1762-6.65713 3.93-10.095-1.9098-4.60081 1.9911-8.67423 4.285-12.341-1.2063-7.64793 10.9273-13.81747 17.244-10.033zm0 32.837c-2.01-1.33074-3.8943 2.8001-1.9 3.859 1.2088.25323 1.1 1.79254 1.9 2.24204v3.49396c-.842 1.93979-2.9476 3.28616-5 2.471-1.6893-1.31063-1.4006-3.61741-3.691-4.577-2.2864-3.6751-.099-8.88935 4.197-9.848 1.5705-1.74562 3.639-1.69346 4.494-.712zm0-186.725c-4.0795-2.80955-3.958-7.74114-3.576-11.842.3191-1.59548 2.9222-3.69962 3.576-2.555zm0 68.752c-.6907-1.58537-.8753-3.34517-.8077-5.13929.075-1.98271.4595-4.00735.8077-5.88473zm0 65.814c-1.7747-1.04731-2.7879-3.75629-3.419-5.644-.7997-3.0701 2.9064-4.54612 1.44-7.72.4205-2.58737 1.545-6.19575 1.979-5.65zm0-32.66c-.4142 1.20923-1.2634.96026-2.3565 1.84373-1.1609.93828-2.6087 1.61782-4.1395 1.87927-4.3005 5.09903 4.287.0507 6.5213 1.46159l-.025 3.62641c-.3952 1.09616-2.7923.73541-3.997 2.202-2.0524 2.06501-5.2367.25939-6.604-1.704-3.3893-.94722-2.5155-5.86599-1.6977-8.35363 1.4729-1.89226 2.2431-5.0256 5.4647-4.59837 1.5389-1.65698 4.1544-5.04002 6.834-2.137zm-2.258-128.72801c.1359.25628-.4979 1.13683-.672 1.60501-1.5028 2.13352-3.7499 5.78691-6.27 3.265-2.0178-.53602-4.3307-2.96839-3.089-4.87001zm-223.99597 0c-1.08686 2.96685-4.64043 3.02033-7.121 3.27201-2.29309-.63644-4.78118-1.60507-6.412-3.29501z" fill="#782e10"/><path d="m495.29034 495.62052c-.5988-2.43376-3.6013-6.71025-.409-9.008 2.196-2.40322 3.6175-5.75575 8.36-2.963 3.4379-2.38292 2.6668 2.98261 5.68 3.278 4.4192.45596-1.8568 6.0197 1.018 8.693zm-39.42797 0c-3.1888-.84855-7.74583-6.49353-2.868-8.29739 4.02351-1.62263 8.53077 2.75941 11.388-1.594 2.99199-4.27585-.79152 5.67107-.886 8.169.0522.64712.46325 1.45344-.165 1.72239zm127.49797-3.352c1.2117 3.72636 9.3619 2.40718 9.811 3.352h-17.593.4505c3.3525-.22316 3.4676-5.50196 7.3315-3.352zm-166.83097-4.191c6.77886.59681 2.95542 10.0695 0 0zm42.696-190.279c.9855-1.17252 4.1872.38852 5.426.065.92016 1.73586-.4738 5.21102 2.433 4.942 1.06671-.7289.30276-4.9781 1.55-2.46-.69439 2.4077-1.64318 5.55886-.63 7.995-3.04017 2.83625-8.19555 2.19117-11.773 2.696 1.14767-3.06684-3.22529-6.27087-1.644-9.746 1.72069-1.00057 4.85966-.46189 4.638-3.492zm140.10797 99.523c1.54-2.81929 7.7448-6.19905 9.312-1.053.5701 3.44564-3.8462-.1937-3.212 4.185 4.5651 2.397 3.7023 3.51714-.053 5.87567 1.9357 3.04665-1.1795 2.60233-1.6568-.0947-.8566-2.4014.2708-6.30709-3.25-6.698-.8974-.55416-1.2805-1.19856-1.14-2.215zm-151.03697-62.398c-4.53674.42786-4.51476 4.11356-4.254 6.851-5.35781-1.87191-.6741-11.01407-6.841-11.963-4.01782-2.67899 1.2457-5.80602 3.71362-7.238 4.03281-3.7076 9.87656 6.08692 4.96838 5.006-4.73674 1.19362-.93115 5.99851 2.438 6.988zm131.15197 122.58c-.1806-3.91933 4.5717-3.28891 6.953-2.484 4.739-.42495-.7012 7.75566 4.85 8.324 2.9562.87496 8.2382 1.97188 8.969 4.551-2.1934 1.81904-5.4948 2.59998-7.596 4.987-2.9288 2.94674-8.8347 3.40826-10.092-1.801-3.5247-2.75145-1.986-8.34486-3.147-12.253zm-102.926-108.226c2.8412-2.93038 6.0873-3.59157 4.801 1.454.3656 3.59946 2.0103 7.58658-.366 10.953-2.9626.56159-6.0466 2.07169-8.78197.662-3.27639-1.32319-11.33258-2.23446-9.201-7.099 1.18525-1.26629 2.50298-4.85482 4.221-3.91 2.20132 3.20171 7.32377 1.88484 8.85297-1.746.1443-.11514.5485.0286.474-.314zm33.417-103.658c-.6849 4.67923-4.0376 5.05691-7.44 3.739-3.3398-1.09997-5.5022 8.89979-5.785 3.163-1.968-1.91997-3.2469-5.6999-1.424-6.902zm-46.60797 0c1.14962 9.36193 12.18267 1.96685 13.17697 5.043-3.17807 3.49334-8.04039 5.55819-12.74397 6.024-2.41199 3.65713-8.21903-.0196-6.541-3.763-.0305-3.45828-2.17757-6.19392-1.361-7.304m97.82597.75388c3.703.20042 2.28 7.25042-1.038 7.114-4.3011 1.34549-6.3862-4.82794-3.804-7.27 1.4016-1.07749 3.3706-.49436 4.842.156zm-124.19297 17.10312c3.77962 3.30441 1.07547 9.67699-1.06 13.517 1.5343 5.25129-8.15926 6.78712-8.209.918-4.59798-1.28795-6.65727-3.67122-8.407-7.99-3.20615-2.08613-1.13345-7.02786-3.696-9.916-.38212-4.11263 4.58859-3.66544 7.256-3.148 6.96145-2.1654 9.07375 3.6268 14.116 6.619zm-25.736 37.946c1.00121-2.37028 2.47969-8.22128 5.898-6.051 5.08392 2.24453.23162 9.56146 5.176 11.489 6.03693 3.25059-3.841.51466-6.326 1.538-5.53589-1.11913-8.17547 7.22753-4.833 10.911 3.1709 8.36624-6.9695-2.33943-7.633-5.117-.12862-3.11171-4.99221-4.5622-2.682-8.19 1.3929-3.16486 8.59385-.81157 10.4-4.58zm190.25297 47.954c.6377 3.56325 3.9817 1.93121 6.035.792 2.5794.2794.1954 4.71203.148 6.758-1.6235 3.65736-2.9513 8.98099-8.019 8.54-3.5031-.81775-4.0552-4.80235-7.539-5.516-1.8548-3.34563-3.3564-9.20462.402-11.878 4.0447-3.84984 5.3446-.48253 8.973 1.304zm-114.065 53.682c2.9524-7.07571 7.9019.56525 12.817-3.345 3.0107 1.34379 6.1601 3.07296 9.291 4.067 1.1636 3.9268 8.3334 3.39269 6.281 8.5-3.8105 2.27485-7.0241 6.47961-11.62 6.786-3.9887-2.0292-10.0602 1.26948-12.379-3.488-2.9469-3.55543-2.2785-9.20992-4.39-12.52zm113.224-157.439c4.8013 4.62348 2.8584 7.21922-2.065 10.298-4.4806 2.11953-7.5715 7.91716-5.329 12.611-3.46 3.58679-9.0145 3.37592-11.953-.776-1.5586-4.60148-1.8377-13.02463-1.901-16.442 3.1955-.3388.3467-5.05936 3.655-5.691zm-2.994 140.039c-3.3183 2.80323-6.1128 3.88197-9.716 5.92-1.8608 1.40304-5.6146 3.66458-8.446 1.458-2.9617.10627-2.8237-3.11897-3.983-6.302-.7298-1.85095 3.7499-4.0129 2.376-6.715 4.2545 1.53679 6.6997-4.00885 10.962-2.132 4.3241-.15263.056 5.98126 4.308 6.509 1.0795.9345 5.026.43441 4.499 1.262zm25.237-76.339c-3.0167 2.41313-3.6075 7.91653-8.623 4.444-3.7117 2.14254-3.6497-1.23295-6.021-3.061-5.6234.0712.8221-4.31048-1.822-6.913-.9824-2.68564 2.1113-8.74339 5.184-5.852 3.7926 1.43885 6.5714-2.22038 7.826-5.239.7546 3.77478 3.366 6.3304 2.115 9.859.027 1.24438 2.2328 5.29115 1.341 6.762zm-45.557-11.951c4.2012-.73507 5.9999 5.39198 3.147 7.596-2.3153 1.44942-6.9584-.0301-6.869-3.138 1.0453-1.92977.5574-4.73192 3.722-4.458zm-111.62497 97.401c1.2689 3.47015-4.29592 6.06019-6.887 7.959-3.62998 2.55141-5.91652 7.62103-3.902 11.8-3.45938 3.58761-9.01361 3.37636-11.952-.776-1.55989-4.59969-1.83861-13.02571-1.901-16.442 3.19371-.34018-.1217-4.74953 3.184-5.383 3.08598-.58743 3.84666-3.22356 6.361-4.095 3.4168.85581 5.77243 4.97576 10.153 3.6 2.09218-.82786 3.05548 2.85431 4.944 3.337zm-50.088 45.677c-5.96693-.48179 1.23326-3.09114.914-5.925.46619-3.87629-3.57627-7.17914-2.239-11.003-.0435-3.41336-6.2028-4.66341-5.841-6.032 1.69265-2.86569 5.18296-.78921 6.14-3.969 4.16943-.60446 8.95028-.37341 10.925 4.124 1.06372 2.36706 1.60848 2.40257-.255 4.39-.35263 2.28067-2.83976 5.27356-1.061 7.677 2.73753-.88567 6.09978 1.97449 6.14 4.478.09 3.88767-4.36616 3.00804-6.813 4.71-2.18553 1.86858-5.28393 3.85848-7.91 1.55zm207.16897 53.76685c-3.3721-8.8845 7.4798 5.82255 0 0zm-240.80597-67.88385c.59333.49613 1.56606.9687 2.313 1.129 4.13164.56897.23179 1.78898 1.377 4.267-.62724 3.84408.53863 7.44628-.34 11.053-1.65104 1.2893-2.37965 1.54081-3.35 1.469zm9.925 62.987c-3.16611-2.17776-2.29239-6.91322-2.369-10.342 3.04347-5.15044 9.32754-3.78554 11.584.739 1.76858 3.11212 5.83851-2.85948 6.659.427-.60763 4.68015-1.94754 9.19375-4.856 13.13-3.36488 2.50464-7.46515.16061-8.945-2.722-.57138-.58811-1.37356-.83689-2.073-1.232zm147.66397-186.126c1.7247-1.30372 3.0572-3.11647 5.589-2.315.9574-3.84688 6.5145-2.20141 9.2611-1.26958 1.3061 1.588 4.2239 4.83442 3.6509 6.28758-1.7137 1.99026-3.0021 5.52085-2.6745 8.42188 1.191 1.08047 3.5749.0893 4.7725 2.00512 3.0636 1.24995 2.1776 6.73701-1.231 6.447-4.2348.35699-7.3759 6.39333-11.653 3.012-5.959-.47509 1.1467-3.11307.914-5.925.5972-3.82682-3.6917-7.0529-2.212-10.81-.9137-3.20187-3.6581-4.9038-6.417-5.854zm-7.085-32.865c-.8332-6.27797 6.0637 1.20345 9.29-.84 5.9399-1.38932.7425 3.92636-1.056 6.234-2.3837 3.17004-6.886-1.89404-8.192-3.902-.1516-.49221-.027-.99287-.042-1.492zm.393 66.869c6.7821.60286 2.9492 10.06502 0 0zm-127.13397 115.165c-.51926 3.4503-.0591 6.61277-4.124 8.28-4.75503 3.20123-6.13299-6.14298-2.26-8.519 1.94955.37729 4.83438-.24133 6.384.239zm55-181c-.51914 3.45086-.0595 6.61288-4.124 8.28-4.75499 3.20114-6.13342-6.14307-2.26-8.519 1.98582.33832 4.81518-.21691 6.384.239zm53.62897 8.651c-4.4305 1.12081-8.3336 3.18777-10.792 7.2375-1.7893 2.34541-2.935 1.06511-4.934.2125-4.9103-1.67179-7.7659-7.23509-7.341-11.691 1.9412-2.05588 4.3512-3.74134 7.364-2.427 4.5888-1.03458 15.8358-2.38079 15.538 5.229.286.22779.5184 1.09651.165 1.439zm-21.883 187.714c1.5988-2.96456 9.7056-12.58987 9.872-5.088 1.1711 6.61071-6.163 13.05812-10.3588 5.81475zm-108.18897-207.311c3.08584-1.34481 15.40482-3.92868 10.909 2.081-3.15195 5.92546-12.9042 6.48322-11.7395-1.808zm207.56797 181.174c-3.1562 1.17249-15.5975 3.06639-10.777-2.684 3.4771-5.74177 13.2454-5.75484 11.6218 2.458zm-33.161-87.16c5.4367-.25912 13.8788 9.61855 5.893 12.13-5.8428 1.90493-4.8601-8.07429-6.133-11.944zm-62.163-33.386c2.0814-2.24583 1.0276-6.57928 4.684-7.051 1.6167-1.47445.5735-4.7292 3.46-5.128 3.2148-1.20937 6.8503.50949 9.325 3.098 3.7808 1.28256 4.009 1.3184 3.384 4.42-.7122 4.05535.4682 7.92323-.4 11.731-4.2274 1.8381-8.9266 4.57116-13.401 1.882-2.6458-.92611-5.9292 1.49037-8.204.282 2.2101-2.57612 2.2331-6.04257.972-8.821zm-114.56397 53.305c6.57032.0167 7.71518-3.95032 10.893-1.444 3.01296 2.75766-1.49046 9.83408 3.574 12.351 3.5282.72933 6.55215 5.96914 1.371 7.339-4.19352.87214-9.16665-2.7654-11.581 2.396-1.23136.88937 1.05537-6.55962 1.586-9.507-.0394-3.57063-4.10443-3.96572-5.843-5.955zm52.795-20.567c-1.79672 1.7328-2.98237 7.29224-6.026 5.243-4.7678-3.79774-9.69925 1.49287-13.232 4.589-3.46853 2.83514-7.34996-2.10951-5.582-5.595-1.04795-5.2825 2.18492-9.87107 3.997-14.467 2.65394-2.06301 3.58734-6.63867 5.862-8.136 1.67974 1.53224 9.04378.11795 5.935 3.824-.0973 2.89775-4.107-1.04263-3.314 3.427.40492 4.62049 5.21851 2.23049 7.518 4.696.3536 2.15143 1.44692 5.97495 3.948 5.713.35201-.046 1.29477.0297.894.706zm32.52 102.17c2.55703-2.60759.24873-5.30386.99788-8.1025-.61812-3.47567 3.76044-6.24762 6.47312-3.6535 3.95287 2.05451 6.3947-8.9615 6.73897-3.204 3.1891 2.87325.8718 6.33558 2.107 9.256 1.8796 2.64155 1.1055 7.57707-1.859 8.178-.99946 4.72589-5.12679.41962-8.55697 1.976-1.74357-.69591-2.33176-4.98562-5.901-4.45zm49.41597-8.267c3.1773-3.49436 8.0398-5.55829 12.745-6.025 2.4129-3.6574 8.218.0202 6.541 3.763-2.3461 5.8158 3.2985 7.57744 5.806 11.114 3.4652 3.78685-5.7415 5.92871-8.571 3.882-3.4313-.76846-8.5306 7.66302-4.425-.017-1.1433-3.47133 3.3266-7.60417-.912-10.363-1.0143-5.42475-12.9938 1.28434-11.184-2.354zm-74.55297 29.123c.0867-4.65456 9.03393-2.44688 7.164 2.066.97503 4.18316-4.71881 4.14763-7.19287 2.32313-.37825-1.18903-1.73905-3.151.0289-4.38913zm97.28797-111.332c-.6086 4.68091-1.9469 9.19255-4.857 13.13-3.3383 2.39514-7.4321.37211-8.909-2.774-2.4801-.77278-4.5833-3.05064-4.317-5.633-3.2071-6.88809 6.0814-12.82614 10.505-6.694.6038 1.96125 2.9395 3.39606 4.611 1.612.4817-.46381 3.8194-1.49609 2.967.359zm15.061 49.313c1.4328-3.03116 3.4527-5.28691 5.26-7.99.6204-5.48972 5.5938-1.3872 8.934-1.36-.9207 2.04596-1.1911 4.42694-3.455 3.053-2.6309 3.24786 1.1429 6.15143 4.074 6.131 3.8823-.55054 1.8324 3.89054 4.311 4.752 1.2235 3.0999 5.0129 2.14636.936 5.908-.8304 2.8464-2.7676 2.94594-4.721 1.664-5.5975-3.59601-9.5343 4.05622-14.016 5.781-5.2742.39934-3.9067-6.32916-4.094-9.573-.5015-3.04041 2.4016-5.4459 2.771-8.366zm77.473 29.425c-3.0613 1.31058-6.9626 2.42901-10.039.452-2.3895-1.04898-6.6077 1.74661-8.091.115 2.1313-2.54562 2.0708-5.9486.847-8.656 1.5283-1.93748 1.6169-4.50098 2.711-6.529 2.4779-.6374 3.4247-2.35407 3.603-4.826 1.8661-1.42964 4.3727-2.0958 6.591-1.279 1.6556.73539 3.7143 1.21762 4.378 2.84zm0-64.685c-7.4976 2.55685-9.2525-1.20264-2.125-3.716.8878-1.7634 1.6434-1.98474 2.125-1.464z" fill="#b6410f"/></g></pattern><clipPath id="k"><ellipse cx="66.152519" cy="-66.146759" rx="43.604259" ry="43.593754" transform="rotate(90)"/></clipPath><g clip-path="url(#k)" stroke-width=".884192" transform="matrix(0 -4.2745567 4.2745567 0 -32.742491 532.73129)"><ellipse cx="66.152519" cy="-66.146759" fill="#3e1c0c" rx="43.604259" ry="43.593754" transform="rotate(90)"/><ellipse cx="66.152519" cy="-66.146759" fill="url(#g)" rx="40.308334" ry="40.30827" stroke-width=".802184" transform="rotate(90)"/><circle cx="66.146767" cy="66.152458" fill="url(#f)" filter="url(#h)" r="29.558775" stroke-width=".802187"/><ellipse cx="66.152519" cy="-66.146759" fill="url(#a)" filter="url(#i)" opacity=".5" rx="43.604259" ry="43.604187" transform="rotate(90)"/><ellipse cx="66.152519" cy="-66.146759" fill="url(#d)" filter="url(#e)" opacity=".33" rx="42.702686" ry="42.695023" transform="rotate(90)"/><path d="m64.75637 40.032365a30.644657 19.640671 45 0 1 7.78099 35.557096 30.644657 19.640671 45 0 1 -35.55709-7.780994 30.644657 19.640671 45 0 1 -7.781-35.557095 30.644657 19.640671 45 0 1 35.5571 7.780993z" fill="#3e1c0c" filter="url(#b)" opacity=".25" transform="matrix(.90725093 0 0 .90725093 6.135896 30.277237)"/><path d="m95.61188 9.4458012a15.608357 10.637955 45 0 1 3.5146 18.5589498 15.608357 10.637955 45 0 1 -18.55894-3.51461 15.608357 10.637955 45 0 1 -3.51461-18.5589424 15.608357 10.637955 45 0 1 18.55895 3.5146026z" fill="#b56a4a" filter="url(#c)" opacity=".5" transform="matrix(.90725093 0 0 .90725093 6.135896 30.277237)"/><path d="m109.73882 66.13403c0-11.164738-4.24884-22.329695-12.746662-30.827392-8.497763-8.497765-19.67365-12.76755-30.826022-12.76768-11.152477-.000129-22.330571 4.270206-30.828307 12.76768-16.995636 16.995637-17.076893 44.725747-.07402 61.728349 17.003075 17.003073 44.733181 16.921403 61.728349-.074021 8.497832-8.497582 12.746662-19.662197 12.746662-30.826936zm-3.28388 0c0 10.311988-3.9328 20.62382-11.799008 28.489797-15.73196 15.732193-41.323466 15.807833-57.055898.075391-15.732206-15.731954-15.657041-41.323007.075392-57.055441 7.86622-7.865977 18.178113-11.799589 28.490253-11.799469 10.312139.00012 20.624032 3.933247 28.490253 11.799469 7.866208 7.866097 11.799008 18.178266 11.799008 28.490253z" fill="#3e1c0c"/></g><path d="m-771.2202 48.455857h333.38836v333.37414h-333.38836z" fill="url(#j)"/></svg>