<svg height="500" viewBox="0 0 500 500" width="500" xmlns="http://www.w3.org/2000/svg" xmlns:xlink="http://www.w3.org/1999/xlink"><filter id="a" color-interpolation-filters="sRGB" height="1.094601" width="1.07385" x="-.030559" y="-.036038"><feFlood flood-opacity=".498039" result="flood"/><feComposite in="flood" in2="SourceGraphic" operator="in" result="composite1"/><feGaussianBlur in="composite1" result="blur" stdDeviation="5"/><feOffset dx="5" dy="7.5" result="offset"/><feComposite in="SourceGraphic" in2="offset" operator="over" result="composite2"/></filter><path d="m109.23036 83.51068-2.72852.9336c-1.71626.58804-3.11813.83984-4.12891.83984-.13609 0-2.09489-.1755-4.966795-.56054-2.791649-.51722-5.068196-.79688-6.927734-.79688-11.702697 0-21.162092 6.76302-27.482422 19.21484-6.329088 12.46908-9.339844 29.78137-9.339844 52.01172 0 22.98399 2.813141 40.70763 8.742188 53.30274l.0039.01.0039.01c6.072601 12.61961 15.708603 19.45703 27.884766 19.45703 2.448017 0 5.054085-.27795 7.824218-.82031 1.317923-.25804 2.320723-.45119 2.999993-.57813.33699-.063.59471-.11002.76172-.13867 1.28004.0105 2.31053.24682 3.16797.6875l2.85938 1.46875 5.8457-28.59766-7.67773-2.32226-.75196 2.32031c-1.01429 3.12767-2.35284 4.90959-3.82031 5.79688l-.0293.0176-.0254.0176c-1.30881.84082-4.209306 1.55664-8.511713 1.55664-2.61207 0-4.620961-.7909-6.464844-2.50195-1.840922-1.70829-3.490671-4.45498-4.783203-8.37305-2.473629-8.00948-3.841797-21.91494-3.841797-41.3125 0-17.29575 1.596778-30.33657 4.570312-38.90625l.002-.002c1.553394-4.3594 3.381626-7.47004 5.298828-9.38672 1.917611-1.91709 3.825387-2.72656 6.162109-2.72656 3.90409 0 6.501948.69785 7.695318 1.51562l.0762.0527.082.0449c1.43758.83118 2.66307 2.29665 3.64648 4.76758l.84375 2.11914 7.44532-2.25195zm322.38672 27.57227-2.67578.91602c-1.77863.60941-3.08309.83984-3.37696.83984-.34415 0-2.28693-.17611-5.15429-.56055-2.94007-.39418-5.0437-.60351-6.54883-.60351-10.31111 0-19.04227 5.03568-25.43164 14.47656l-.002.004-.002.002c-6.37801 9.48512-9.31055 23.67598-9.31055 42.58008 0 20.02455 2.58038 34.7577 8.28711 44.39453l.008.0117.006.0137c5.80196 9.56979 14.96438 14.58203 26.44727 14.58203 10.90438 0 20.30516-2.27699 28.05273-6.94531l2.34765-1.41602-1.60156-2.26172c-.33785-.47749-1.03711-2.9251-1.03711-6.85351v-33.76367c0-1.35526.29365-1.95195.52344-2.20704.2298-.25511.60116-.49804 1.73048-.49804h2.46483v-7.78516h-2.46483-30.78321v7.78516h2.46679c1.59278 0 2.40616.36198 2.76758.68554.36141.32356.61915.75816.61915 2.01954v31.95507c-.55023.0728-1.44439.24414-1.6875.24414-5.53949 0-8.82556-2.1403-11.1504-7.23632-2.17579-5.16585-3.56445-16.38394-3.56445-32.91797 0-14.4362 1.47029-24.57247 3.9121-29.95117 2.60178-5.45431 5.90285-7.6836 10.99024-7.6836 3.31842 0 5.71921.47112 7.07422 1.1211 1.32237.6343 2.61168 1.87519 3.81836 4.01757l1.00586 1.78907 6.78515-2.32422zm-282.23633.39648c-10.25703 0-18.58409 4.72222-23.99024 13.61329-5.48383 9.01885-7.92578 23.03882-7.92578 42.28515 0 21.79089 2.20845 37.11777 7.29883 46.45117 5.03655 9.23466 13.63563 14.10352 24.61719 14.10352 10.97651 0 19.56992-4.86539 24.60742-14.0918 5.21616-9.4534 7.4961-24.86029 7.4961-46.65625 0-19.36402-2.43133-33.37831-7.92774-42.28711-5.29583-8.78721-13.69881-13.41797-24.17578-13.41797zm34.91211 1.35938v7.5918h2.4668c1.17769 0 1.57114.2519 1.84375.56445.27262.31255.5957 1.03226.5957 2.5293v92.16992c0 1.41883-.30612 2.06344-.56641 2.35156-.26027.28813-.67954.54883-1.87304.54883h-2.4668v7.78516h31.92773v-7.78516h-2.46679c-1.50423 0-2.22002-.34533-2.56446-.67578-.34444-.33044-.63281-.86614-.63281-2.22461v-49.7793l11.63866 34.46289h10.87306l11.06836-33.00586v48.32227c0 1.34339-.28185 1.85315-.65039 2.19531s-1.1568.70508-2.73633.70508h-2.4668v7.78516h32.6836v-7.78516h-2.46681c-1.19351 0-1.61471-.2607-1.875-.54883-.26029-.28812-.56835-.93273-.56835-2.35156v-92.16992c0-1.49704.32504-2.21675.59766-2.5293.27261-.31255.668-.56445 1.8457-.56445h2.4668v-7.5918h-28.71875v2.53516c0 2.0577-.49713 4.88058-1.58008 8.34375l-12.40235 37.91406-13.0957-39.23828c-.69846-2.39697-1.10335-4.77227-1.21875-7.14453l-.11719-2.41016zm88.916 0v7.5918h2.46486c1.1777 0 1.57308.2519 1.8457.56445.27261.31255.59766 1.03226.59766 2.5293v92.16992c0 1.41883-.30808 2.06344-.56836 2.35156-.26029.28813-.6815.54883-1.875.54883h-2.46485v7.78516h32.30469v-7.78516h-2.46679c-1.11287 0-1.45658-.23238-1.69922-.51172-.24266-.27935-.55469-.95475-.55469-2.38867v-92.16992c0-1.65883.34125-2.58813.48633-2.79688-.0486.07.26337-.29687 1.76758-.29687h2.46679v-7.5918zm34.54688 0v7.5918h2.46484c1.1777 0 1.5731.2519 1.84571.56445.27262.31255.59765 1.03226.59765 2.5293v92.16992c0 1.41883-.30807 2.06344-.56836 2.35156-.26028.28813-.6815.54883-1.875.54883h-2.46484v7.78516h30.98242v-7.78516h-2.46484c-1.19351 0-1.61471-.2607-1.875-.54883-.26029-.28812-.56835-.93274-.56835-2.35156v-53.76953l16.02343 33.97851v21.92578c0 1.55173-.11682 3.47435-.36133 5.73633l-.30469 2.81446h27.11915v-7.78516h-2.4668c-1.19351 0-1.61276-.2607-1.87304-.54883-.26029-.28812-.56836-.93273-.56836-2.35156v-92.16992c0-1.49704.32308-2.21675.5957-2.5293.27261-.31255.668-.56445 1.8457-.56445h2.4668v-7.5918h-31.36133v7.5918h2.4668c1.2576 0 1.72477.2785 2.01562.59961.29084.3211.61524 1.01167.61524 2.49414v27.76562l-13.61328-30.00586-.004-.004c-.9067-1.98045-1.52657-4.07069-1.86914-6.30079l-.33008-2.14062zm-158.375 12.80664c2.50754 0 4.90164.96425 6.73047 2.71875 1.82294 1.74887 3.12543 4.16895 4.09179 7.13867 2.12826 6.14408 2.96876 16.52087 2.96876 31.875 0 14.66605-.92081 25.71526-2.91407 33.39844-.99663 3.84159-2.24627 6.86891-3.99609 9.11719-1.74981 2.24826-4.22247 3.67968-6.88086 3.67968-2.57276 0-5.00867-1.23028-6.78906-3.26367-1.7804-2.0334-3.05946-4.78732-4.06836-8.24414l-.008-.0293-.008-.0273c-1.89699-7.10321-2.73242-18.49439-2.73242-34.63086 0-15.22967.79234-25.54037 2.76953-31.64453.96361-3.03902 2.25902-5.50827 4.08203-7.29883 1.82482-1.79234 4.23311-2.78906 6.75391-2.78906zm-21.71094 146.83789c-9.16038 0-16.78488 2.81605-22.32031 8.50586-5.42243 5.57365-8.085933 13.34443-8.085933 22.74805 0 6.80612 1.330794 13.60703 3.953123 20.3457l.008.0195.008.0195c2.7544 6.74099 7.31271 14.62816 13.67188 23.7793 5.23676 7.56184 9.1384 14.00538 11.69336 19.25781l.006.01.006.0117c2.48718 4.99134 3.69335 9.94033 3.69335 14.95117 0 5.32716-1.14699 8.66549-2.86523 10.43164l-.0234.0254-.0234.0234c-1.6852 1.82845-4.35729 2.89648-8.59179 2.89648-4.69239 0-8.06043-.92708-10.25586-2.44531-2.14062-1.69649-3.73126-4.17172-4.74414-7.75781l-.64063-2.26563-7.119133 1.56836 4.101553 31.16602 2.82422-.96875c.82077-.28122 1.8808-.45118 3.18555-.45118 1.16776 0 3.65331.29585 7.11719.93164 3.57547.78401 6.4378 1.20313 8.74023 1.20313 9.67146 0 17.64033-3.02253 23.30469-9.12891 5.66727-6.10948 8.42188-14.62429 8.42188-25.03515 0-8.54382-1.36344-16.07808-4.16797-22.54297-2.60863-6.42792-6.70124-13.90193-12.28321-22.50977l-.01-.0137c-2.86881-4.48763-6.37442-10.14769-10.50196-16.96094-3.89254-6.88151-5.69531-12.60124-5.69531-16.94922 0-3.78187.87983-6.16323 2.34375-7.66796 1.46391-1.50475 3.77971-2.40821 7.45899-2.40821 4.43442 0 7.34001.75358 8.44921 1.51367l.0313.0195.0312.0195c1.5046.96661 3.1836 2.88216 4.81836 5.88281l.95313 1.74805 6.62891-1.94727-4.375-27.45312-2.59961.66796c-1.35389.3479-2.54079.50586-3.55274.50586-1.23626 0-3.43588-.23599-6.39062-.74218l.11718.0234c-2.98885-.66786-5.36808-1.02734-7.32031-1.02734zm238.04102 1.74609v7.78711h2.46484c.39529 0 .24974-.14104.56836.46485.31861.60589.68691 2.07151.74414 4.24804v.0391l5.23438 92.85156h12.57812l5.41992-92.72461c.23627-2.41491.57046-4.05071.77539-4.65234.10645-.29867-.12647-.22657.54297-.22657h2.4668v-7.78711h-2.4668zm-178.00782 25.8086c-10.25702 0-18.58408 4.72026-23.99023 13.61133-5.48384 9.01885-7.92578 23.04077-7.92578 42.28711 0 21.79089 2.21039 37.11776 7.30078 46.45117 5.03655 9.23466 13.63369 14.10156 24.61523 14.10156 10.98 0 19.57645-4.86554 24.61329-14.09766 5.21341-9.45402 7.49023-24.85984 7.49023-46.65039 0-19.36402-2.42938-33.37636-7.92578-42.28515-5.29584-8.78722-13.70076-13.41797-24.17774-13.41797zm67.39454 0c-10.25703 0-18.58409 4.72026-23.99024 13.61133-5.48383 9.01885-7.92578 23.04077-7.92578 42.28711 0 21.79089 2.2104 37.11776 7.30078 46.45117 5.03655 9.23466 13.63368 14.10156 24.61524 14.10156 10.98 0 19.57645-4.86554 24.61328-14.09766 5.21341-9.45402 7.49219-24.85984 7.49219-46.65039 0-19.36402-2.43133-33.37636-7.92773-42.28515-5.29582-8.78722-13.70076-13.41797-24.17774-13.41797zm34.91211 1.35742v7.5918h2.46679c1.17771 0 1.57115.2519 1.84375.56445.27263.31255.59767 1.03227.59767 2.5293v92.17187c0 1.41883-.30807 2.06149-.56836 2.34961-.26028.28813-.67954.54884-1.87305.54883h-2.46679v7.78516h30.98437v-7.78516h-2.4668c-1.1935 0-1.61276-.2607-1.87304-.54883-.26029-.28812-.56836-.93078-.56836-2.34961v-53.76953l16.02148 33.97656v21.92774c0 1.55175-.11682 3.47436-.36133 5.73633l-.30468 2.8125h27.12109v-7.78516h-2.4668c-1.1935 0-1.61471-.2607-1.875-.54883-.26028-.28812-.56836-.93078-.56836-2.34961v-92.17187c0-1.49703.32505-2.21675.59766-2.5293s.668-.56445 1.8457-.56445h2.4668v-7.5918h-31.36328v7.5918h2.46484c1.2576 0 1.72869.28045 2.01953.60156.29085.3211.61328 1.00972.61329 2.49219v27.76562l-13.61329-30.00586-.002-.004c-.90669-1.98046-1.52854-4.07069-1.87109-6.30079l-.32813-2.14062zm-102.30664 12.80859c2.50754 0 4.90361.96426 6.73242 2.71875 1.82295 1.74887 3.12543 4.16895 4.0918 7.13868 2.12826 6.14407 2.96875 16.52086 2.96875 31.875 0 14.66604-.92276 25.7133-2.91601 33.39648-.99663 3.84159-2.24629 6.86891-3.99611 9.11719-1.7498 2.24828-4.22247 3.67969-6.88086 3.67969-2.57275-.00001-5.00865-1.23029-6.78906-3.26368-1.78039-2.03339-3.05945-4.78928-4.06836-8.24609l-.008-.0273-.008-.0274c-1.897-7.10322-2.73242-18.49244-2.73242-34.6289 0-15.23366.79121-25.54879 2.76953-31.65235 0-.001.002-.003.002-.004.96335-3.03526 2.2587-5.5001 4.08008-7.28907 1.82481-1.79234 4.23312-2.78711 6.7539-2.78711zm67.39454 0c2.50752 0 4.90359.96426 6.73242 2.71875 1.82294 1.74887 3.12542 4.16895 4.09179 7.13868 2.12824 6.14407 2.96875 16.52086 2.96875 31.875 0 14.66604-.92274 25.7133-2.91602 33.39648-.99663 3.84159-2.24628 6.86891-3.99609 9.11719-1.74982 2.24828-4.22248 3.67969-6.88086 3.67969-2.57276-.00001-5.00672-1.23029-6.78711-3.26368-1.7804-2.03339-3.06142-4.78928-4.07032-8.24609l-.008-.0273-.008-.0274c-1.897-7.10322-2.73047-18.49244-2.73047-34.6289 0-15.23366.78926-25.54879 2.76758-31.65235 0-.001.002-.003.002-.004.96336-3.03526 2.25872-5.5001 4.08008-7.28907 1.82482-1.79234 4.23311-2.78711 6.75391-2.78711zm125.72851 76.64844c-3.3083 0-6.39858 1.49352-8.78125 4.0957l-.002.002-.002.002c-2.25596 2.47347-3.49805 5.59198-3.49805 8.91211 0 3.32011 1.26004 6.4187 3.55469 8.77734l.0273.0312.0293.0274c2.40635 2.31887 5.44184 3.5957 8.67187 3.5957s6.26358-1.27683 8.66992-3.5957c2.43254-2.34411 3.79883-5.4756 3.79883-8.83594 0-3.34697-1.34153-6.48194-3.71875-8.93945-2.37902-2.5842-5.45405-4.07227-8.75-4.07227z" fill="#d1d0c7" filter="url(#a)"/><path d="m394.03987 276.55659v2.71664c-1.38439 0-2.3283.58213-2.83172 1.74642-.37755 1.03491-.69218 2.846-.94389 5.43327l-5.28586 90.42525h-7.92879l-5.09708-90.42525c-.12585-4.78646-1.38438-7.17969-3.77561-7.17969v-2.71664zm-6.22977 119.92019c2.01366 2.06982 3.02049 4.46305 3.02049 7.17969 0 2.71663-1.00683 5.04518-3.02049 6.98564-2.01366 1.94045-4.34195 2.91068-6.98487 2.91068-2.64293 0-4.97123-.97023-6.98489-2.91068-1.8878-1.94046-2.8317-4.26901-2.8317-6.98564 0-2.71664.9439-5.10987 2.8317-7.17969 2.01366-2.19918 4.34196-3.29877 6.98489-3.29877 2.64292 0 4.97121 1.09959 6.98487 3.29877zm-31.71513 13.00106v2.71663h-21.89855c.25171-2.32855.37756-4.33368.37756-6.01542v-22.50929l-20.95464-44.43644v64.81123c0 3.62219 1.6361 5.43328 4.9083 5.43328v2.71664h-26.05172v-2.71664c3.27219 0 4.90829-1.81109 4.90829-5.43328v-92.17167c0-3.75154-1.6361-5.62731-4.90829-5.62731v-2.5226h21.89855c.37755 2.45791 1.06975 4.78646 2.07658 6.98564l18.31172 40.36149v-39.19722c0-3.75154-1.69903-5.62731-5.09708-5.62731v-2.5226h26.42928v2.5226c-3.27219 0-4.90829 1.87577-4.90829 5.62731v92.17167c0 3.62219 1.6361 5.43328 4.90829 5.43329zm-71.35913-53.94468c0 21.60374-2.39122 36.7393-7.17367 45.40667-4.65658 8.53801-12.14487 12.80701-22.46488 12.80701s-17.80831-4.269-22.4649-12.80701-6.98488-23.60888-6.98488-45.21263c0-19.01647 2.51708-32.66434 7.55123-40.94362s12.33366-12.41892 21.89855-12.41892c9.81659 0 17.17903 4.07495 22.08732 12.22487 5.03415 8.14992 7.55123 21.7978 7.55123 40.94363zm-18.31172.19403c0-15.26492-.9439-25.61402-2.83171-31.0473-1.76195-5.43327-4.59366-8.14991-8.49512-8.14991-3.90147 0-6.73318 2.78132-8.49513 8.34396-1.76195 5.43329-2.64293 15.7177-2.64293 30.85325 0 16.04111.88098 27.36044 2.64293 33.95799 1.88781 6.46819 4.71952 9.70228 8.49513 9.70228 7.55122 0 11.32683-14.55342 11.32683-43.66027zm-49.08303-.19403c0 21.60374-2.39122 36.7393-7.17366 45.40667-4.65659 8.53801-12.14488 12.80701-22.46489 12.80701s-17.80831-4.269-22.4649-12.80701c-4.65658-8.53801-6.98487-23.60888-6.98487-45.21263 0-19.01647 2.51707-32.66434 7.55122-40.94362s12.33366-12.41892 21.89855-12.41892c9.81659 0 17.17904 4.07495 22.08733 12.22487 5.03415 8.14992 7.55122 21.7978 7.55122 40.94363zm-18.31171.19403c0-15.26492-.94391-25.61402-2.83172-31.0473-1.76195-5.43327-4.59366-8.14991-8.49512-8.14991-3.90147 0-6.73318 2.78132-8.49513 8.34396-1.76195 5.43329-2.64293 15.7177-2.64293 30.85325 0 16.04111.88098 27.36044 2.64293 33.95799 1.88781 6.46819 4.71952 9.70228 8.49513 9.70228 7.55123 0 11.32684-14.55342 11.32684-43.66027zm-47.7616 26.3902c0 9.96101-2.58 17.72284-7.74001 23.28548-5.16 5.56264-12.33366 8.34396-21.52099 8.34396-2.01366 0-4.78244-.38809-8.30634-1.16427-3.52391-.64682-6.04098-.97023-7.55123-.97023-1.51024 0-2.8317.19405-3.96439.58214l-3.398048-25.80807 2.642928-.58213c1.13268 4.01027 3.02049 7.05031 5.66342 9.12013 2.76878 1.94046 6.67025 2.91069 11.7044 2.91069 4.65658 0 8.11756-1.22896 10.38293-3.68687 2.39122-2.45791 3.58683-6.53286 3.58683-12.22487 0-5.43327-1.32147-10.80187-3.9644-16.10579-2.64292-5.43327-6.60731-11.96614-11.89317-19.5986-6.29269-9.05546-10.7605-16.81728-13.40343-23.28547-2.51707-6.46819-3.775611-12.93637-3.775611-19.40456 0-8.9261 2.454151-15.91174 7.362451-20.95693 5.03415-5.17455 11.89317-7.76182 20.57708-7.76182 1.6361 0 3.90147.32342 6.7961.97022 3.02049.51745 5.28586.77618 6.7961.77618 1.25854 0 2.64293-.19404 4.15318-.58213l3.58683 22.50929-2.64293.77618c-1.76195-3.23408-3.64975-5.49795-5.66341-6.7916-1.88781-1.29363-5.16001-1.94045-9.81659-1.94045-8.1805 0-12.27075 4.20432-12.27075 12.61298 0 5.04518 2.01366 11.12527 6.04098 18.24027 4.15318 6.85629 7.67708 12.54829 10.57171 17.07602 5.53757 8.53801 9.56489 15.91174 12.08196 22.1212 2.64293 6.08009 3.9644 13.25978 3.9644 21.53905zm292.61014-213.78293v2.71664c-3.14634 0-4.71951 1.74641-4.71951 5.23923v33.76392c0 4.13964.50341 6.92097 1.51024 8.34398-7.29951 4.39837-16.23513 6.59755-26.80684 6.59755-10.82342 0-18.94099-4.46305-24.35271-13.38915-5.28585-8.92609-7.92878-23.28547-7.92878-43.07813 0-18.62838 2.95756-32.34094 8.87269-41.13766 6.04098-8.9261 13.84391-13.38915 23.4088-13.38915 1.25853 0 3.33512.19404 6.22975.58213 2.89464.3881 4.71952.58214 5.47464.58214.88097 0 2.26537-.32341 4.15318-.97023l3.58682 19.40456-2.8317.97024c-1.38439-2.45792-3.02049-4.13965-4.9083-5.04519-1.88781-.90555-4.59366-1.35832-8.11757-1.35832-5.91512 0-10.32 3.04005-13.21464 9.12014-2.76878 6.08009-4.15317 16.42919-4.15317 31.0473 0 16.68792 1.25854 28.00725 3.77561 33.95798 2.64293 5.82137 7.11074 8.73206 13.40343 8.73206.88097 0 2.26536-.19405 4.15317-.58215v-34.15202c0-3.49282-1.95073-5.23923-5.8522-5.23923v-2.71664zm-70.03758 52.58635v2.71665h-21.89855c.25171-2.32856.37756-4.33368.37756-6.01541v-22.50929l-20.95465-44.43645v64.81122c0 3.62219 1.6361 5.43328 4.90831 5.43328v2.71665h-26.05174v-2.71665c3.2722 0 4.9083-1.81109 4.9083-5.43328v-92.17165c0-3.75156-1.6361-5.62732-4.9083-5.62732v-2.52261h21.89856c.37756 2.45791 1.06975 4.78647 2.07658 6.98564l18.31173 40.36149v-39.1972c0-3.75156-1.69903-5.62732-5.09708-5.62732v-2.52261h26.42928v2.52261c-3.2722 0-4.9083 1.87576-4.9083 5.62732v92.17165c0 3.62219 1.6361 5.43328 4.9083 5.43328zm-70.79285 0v2.71665h-27.37318v-2.71665c3.27219 0 4.90829-1.81109 4.90829-5.43328v-92.17165c0-3.75156-1.6361-5.62732-4.90829-5.62732v-2.52261h27.37318v2.52261c-1.8878 0-3.14634.45276-3.77561 1.3583-.62927.90556-.9439 2.32856-.9439 4.26902v92.17165c0 3.62219 1.57317 5.43328 4.71951 5.43328zm-34.54697 0v2.71665h-27.75075v-2.71665c3.90147 0 5.8522-1.81109 5.8522-5.43328v-63.45291l-15.29123 45.60071h-7.36244l-15.85757-46.95902v64.81122c0 3.62219 1.8878 5.43328 5.66341 5.43328v2.71665h-26.99562v-2.71665c3.2722 0 4.9083-1.81109 4.9083-5.43328v-92.17165c0-3.75156-1.6361-5.62732-4.9083-5.62732v-2.52261h24.73026c.12585 2.58728.56634 5.17456 1.32147 7.76184l15.48001 46.37689 14.72488-45.01857c1.13268-3.62219 1.69902-6.66224 1.69902-9.12015h23.78636v2.5226c-3.2722 0-4.9083 1.87577-4.9083 5.62732v92.17166c0 3.62219 1.6361 5.43328 4.9083 5.43327zm-89.48208-53.94468c0 21.60375-2.39122 36.73931-7.17367 45.40667-4.65659 8.53801-12.14488 12.80701-22.46488 12.80701-10.32001 0-17.80831-4.269-22.4649-12.80701s-6.98488-23.60888-6.98488-45.21262c0-19.01647 2.51708-32.66435 7.55123-40.94362 5.03415-8.27928 12.33366-12.41892 21.89855-12.41892 9.81659 0 17.17903 4.07496 22.08732 12.22488 5.03415 8.14991 7.55123 21.79778 7.55123 40.94361zm-18.31172.19405c0-15.26491-.9439-25.61402-2.83171-31.0473-1.76195-5.43328-4.59366-8.14992-8.49512-8.14992-3.90147 0-6.73319 2.78132-8.49514 8.34396-1.76195 5.43328-2.64292 15.7177-2.64292 30.85326 0 16.0411.88097 27.36043 2.64292 33.95798 1.88781 6.46819 4.71953 9.70228 8.49514 9.70228 7.55122 0 11.32683-14.55342 11.32683-43.66026zm-53.04753 33.37584 3.20927.97023-4.71951 23.09143c-1.25854-.64682-2.70586-.97023-4.34196-.97023-.12585 0-1.51024.25873-4.153174.77618-2.642929.51745-5.097076.77618-7.362443.77618-11.326837 0-19.884891-6.01541-25.674163-18.04624-5.663419-12.03083-8.495127-29.43025-8.495127-52.19827 0-21.99183 3.02049-38.93848 9.061469-50.83995 6.040979-11.901455 14.47318-17.852185 25.296601-17.852185 1.636099 0 3.838538.25872 6.607321.77618 2.894636.38809 4.656586.58213 5.285856.58213 1.38439 0 3.02049-.32341 4.9083-.97022l3.58683 21.733105-3.20927.97022c-1.13269-2.846-2.70586-4.85113-4.71952-6.01541-1.8878-1.29364-4.908291-1.94046-9.061467-1.94046-5.915126 0-10.508787 4.59242-13.780985 13.77724-3.146343 9.05548-4.719515 22.31525-4.719515 39.77935 0 19.53393 1.321465 33.56989 3.964393 42.1079 2.768782 8.40864 7.299517 12.61296 13.592204 12.61296 4.530735 0 7.80294-.64682 9.8166-1.94045 2.13951-1.29364 3.7756-3.68687 4.90829-7.17969z" fill="#23221d"/></svg>