<svg height="500" viewBox="0 0 500 500" width="500" xmlns="http://www.w3.org/2000/svg" xmlns:xlink="http://www.w3.org/1999/xlink"><filter id="a" color-interpolation-filters="sRGB" height="1.152577" width="1.071168" x="-.029449" y="-.058125"><feFlood flood-opacity=".498039" result="flood"/><feComposite in="flood" in2="SourceGraphic" operator="in" result="composite1"/><feGaussianBlur in="composite1" result="blur" stdDeviation="5"/><feOffset dx="5" dy="7.5" result="offset"/><feComposite in="SourceGraphic" in2="offset" operator="over" result="composite2"/></filter><path d="m138.29688 146.03711-3.17579 2.17578c-1.45967 1.00034-4.57225 1.80664-9.21093 1.80664h-59.943363c-5.205506 0-8.838151-.79835-10.710938-1.89844l-3.105468-1.82226-6.052735 39.62109 8.519532 2.33594.689453-2.3457c.768493-2.60692 1.995476-4.31093 3.794921-5.50782 1.799446-1.1969 4.301641-1.89453 7.677735-1.89453h12.996094v154.43946c0 3.16481-.674629 5.15094-1.632813 6.28515-.958183 1.1342-2.343167 1.77539-4.853516 1.77539h-2.464843v8.97266h48.871091v-8.97266h-2.46484c-2.51035 0-3.89337-.64119-4.85156-1.77539-.95817-1.13421-1.63282-3.12034-1.63282-6.28515v-154.43946h13.8086c5.95738 0 9.20927 2.22666 11.26758 7.59766l.82031 2.13867 8.0625-2.36719zm55.42187 1.47266c-15.44827 0-27.71265 8.07827-35.79883 23.34961l-.00586.00976-.00781.01172c-7.96907 15.40847-11.67969 40.21764-11.67969 74.79687 0 26.50772 1.71326 47.65877 5.21485 63.57227v.00391l.00195.0039c3.49327 15.68665 8.43991 26.91654 15.35742 33.6211l.02734.02539.02735.02343c6.9926 6.38942 16.09495 9.5625 26.86328 9.5625 10.77258 0 19.81232-3.28235 26.625-9.875 7.10585-6.69991 12.15418-17.94563 15.64844-33.63671l.00195-.00391v-.00391c3.5016-15.9135 5.21484-37.06455 5.21484-63.57226 0-34.56978-3.7945-59.28929-11.96093-74.53125-7.9032-15.27131-20.08591-23.35742-35.5293-23.35742zm212.375 0c-15.44733.00069-27.71103 8.07893-35.79687 23.34961l-.00586.00976-.00586.01172c-7.96908 15.40847-11.67969 40.21764-11.67969 74.79687 0 26.50772 1.71129 47.65877 5.21289 63.57227l.00195.00391v.0039c3.49327 15.68665 8.44185 26.91654 15.35938 33.6211l.02734.02539.02539.02343c6.99259 6.38942 16.093 9.5625 26.86133 9.5625 10.77528 0 19.81758-3.28295 26.63086-9.8789 7.10382-6.70034 12.15287-17.94455 15.64648-33.63281v-.00391-.00391c3.50161-15.9135 5.21485-37.06455 5.21485-63.57226 0-34.56978-3.79255-59.28929-11.95899-74.53125-7.90285-15.27066-20.08881-23.35673-35.53125-23.35742zm-115.54297.27734c-12.38055 0-25.38721.6571-39.01758 1.96484l-2.23632.21289v9.02735h2.46679c2.04717 0 3.07531.50645 3.81641 1.40429.74109.89785 1.3125 2.55122 1.3125 5.25977v169.24414c0 2.49955-.54599 3.96641-1.26367 4.7832s-1.78871 1.32422-3.86524 1.32422h-2.46679v8.69727l2.18359.25976c9.55477 1.13329 22.0154 1.68946 37.44336 1.68946 21.60607 0 37.6553-8.84353 46.91211-26.12696 9.23291-17.23882 13.5957-44.23121 13.5957-81.24414 0-34.79416-4.31959-59.41-13.68945-74.15429-9.31645-14.84464-24.73861-22.3418-45.19141-22.3418zm-96.83203 27.375c2.38503 0 4.21694.88257 6.06445 3.0918 1.84751 2.20922 3.54397 5.84249 4.8418 10.91211l.00195.00586.00196.0039c2.57093 9.86645 3.98242 28.8912 3.98242 56.50195 0 29.46957-1.48318 50.32367-4.26953 62.13868l-.00391.01562-.00391.01758c-1.31286 5.9381-3.02718 10.25297-4.88086 12.87305-1.85367 2.62006-3.5727 3.55664-5.73437 3.55664-2.27624 0-4.06542-.95977-5.95508-3.57618-1.88869-2.61507-3.61837-6.9182-4.92969-12.8457v-.0039c-.00036-.002-.00195-.00191-.00195-.00391-2.62111-12.04036-4.00586-32.88887-4.00586-62.17188 0-27.42429 1.40961-46.43881 3.98828-56.51171 1.29783-5.06961 2.99234-8.70289 4.83985-10.91211 1.84752-2.20923 3.67943-3.0918 6.06445-3.0918zm99.81445 0c3.78966 0 6.9014 1.2229 9.75 3.83594 2.84862 2.61305 5.39316 6.71975 7.46875 12.43164 4.15119 11.42375 6.35352 29.12601 6.35352 52.85351 0 27.36864-2.26741 47.82279-6.58594 61.09571-2.15926 6.63644-4.82455 11.43935-7.79297 14.48047-2.96841 3.04112-6.14485 4.41992-10.00586 4.41992-1.14764 0-2.93322-.10092-4.58789-.18164v-148.7461c1.60583-.0891 3.13289-.18945 5.40039-.18945zm112.5625 0c2.38504 0 4.21695.88257 6.06446 3.0918 1.84751 2.20922 3.54396 5.84249 4.84179 10.91211v.00586l.00196.0039c2.57092 9.86645 3.98632 28.8912 3.98632 56.50195 0 29.46957-1.48512 50.32367-4.27148 62.13868l-.00391.01562-.0039.01758c-1.31286 5.9381-3.02522 10.25297-4.87891 12.87305-1.85369 2.62006-3.57467 3.55664-5.73633 3.55664-2.27623 0-4.06348-.95977-5.95312-3.57618-1.88871-2.61507-3.62032-6.9182-4.93164-12.8457v-.0039c-.00036-.002-.00196-.00191-.00196-.00391-2.62109-12.04036-4.00781-32.88887-4.00781-62.17188 0-27.42429 1.40961-46.43881 3.98828-56.51171 1.29783-5.06961 2.99624-8.70289 4.84375-10.91211 1.84751-2.20923 3.67748-3.0918 6.0625-3.0918z" fill="#d1d0c7" filter="url(#a)"/><path d="m451.12091 245.39951q0 39.59207-5.15346 63.01274-5.15346 23.14185-14.91791 32.34282-9.49322 9.20098-24.95361 9.20098-15.46038 0-25.22484-8.92216-9.49322-9.20098-14.64668-32.34282-5.15346-23.42067-5.15346-63.01275 0-51.58122 11.39186-73.6078 11.6631-22.02658 33.63312-22.02658 21.97002 0 33.36189 22.02658 11.66309 21.74776 11.66309 73.32899zm-27.66595.27881q0-41.54379-4.06852-57.15757-4.06852-15.89259-13.29051-15.89259-9.22198 0-13.2905 15.89259-4.06853 15.89259-4.06853 57.15757 0 44.05316 4.06853 62.73393 4.06852 18.40195 13.2905 18.40195 8.95075 0 13.01927-18.40195 4.33976-18.40195 4.33976-62.73393zm-76.48826-1.39408q0 55.20585-13.29051 80.0206-13.2905 24.81475-44.75374 24.81475-23.05496 0-37.15917-1.6729v-3.90344q7.59457 0 7.59457-8.64334v-169.24219q0-9.20098-7.59457-9.20098v-4.18226q20.34261-1.95172 38.78658-1.95172 29.83583 0 43.12633 21.19013 13.29051 20.9113 13.29051 72.77135zm-27.39472 0q0-71.65608-26.03854-71.65608-4.88223 0-7.86581.27881v153.62841q4.33976.27882 7.0521.27882 26.85225 0 26.85225-82.52996zm-80.82819 1.11527q0 39.59207-5.15347 63.01274-5.15346 23.14185-14.91791 32.34282-9.49322 9.20098-24.95361 9.20098-15.46038 0-25.22483-8.92216-9.49322-9.20098-14.64668-32.34282-5.15347-23.42067-5.15347-63.01275 0-51.58122 11.39187-73.6078 11.66309-22.02658 33.63311-22.02658 21.97003 0 33.36189 22.02658 11.6631 21.74776 11.6631 73.32899zm-27.66596.27881q0-41.54379-4.06852-57.15757-4.06852-15.89259-13.29051-15.89259-9.22198 0-13.2905 15.89259-4.06852 15.89259-4.06852 57.15757 0 44.05316 4.06852 62.73393 4.06852 18.40195 13.2905 18.40195 8.95075 0 13.01928-18.40195 4.33975-18.40195 4.33975-62.73393zm-74.58989-95.35556 5.4247 33.73691-3.79729 1.11527q-3.52605-9.20098-13.56174-9.20098h-16.27409v156.97422q0 10.59507 8.95075 10.59507v3.90344h-43.940045v-3.90344q8.950749 0 8.950749-10.59507v-156.97422h-15.460385q-11.120628 0-13.832976 9.20098l-4.068523-1.11527 5.153462-33.73691q3.797288 2.23054 11.934333 2.23054h59.942895q7.32334 0 10.57816-2.23054z" fill="#cc0000"/></svg>