<svg height="500" viewBox="0 0 132.29167 132.29167" width="500" xmlns="http://www.w3.org/2000/svg" xmlns:xlink="http://www.w3.org/1999/xlink"><linearGradient id="a" gradientUnits="userSpaceOnUse" spreadMethod="reflect" x1="766.5434" x2="766.5434" y1="921.8623" y2="171.8773"><stop offset="0" stop-color="#c79b79"/><stop offset=".4603" stop-color="#d6b69c"/><stop offset="1" stop-color="#c79b79"/></linearGradient><linearGradient id="b" gradientUnits="userSpaceOnUse" spreadMethod="reflect" x1="45.917747" x2="71.494064" xlink:href="#a" y1="87.613121" y2="109.97166"/><linearGradient id="c" gradientUnits="userSpaceOnUse" spreadMethod="reflect" x1="113.9983" x2="82.553261" xlink:href="#a" y1="60.00713" y2="108.37167"/><linearGradient id="d" gradientUnits="userSpaceOnUse" spreadMethod="reflect" x1="49.550137" x2="113.23688" xlink:href="#a" y1="61.250359" y2="56.209209"/><linearGradient id="e" gradientTransform="matrix(.44366181 -.85904117 .85904117 .44366181 280.8563 -18.228211)" gradientUnits="userSpaceOnUse" spreadMethod="reflect" x1="-156.08487" x2="-154.44003" y1="-179.41003" y2="-168.55896"><stop offset="0" stop-color="#93a0aa"/><stop offset=".25" stop-color="#9da9b2"/><stop offset=".375" stop-color="#7f8f9a"/><stop offset=".5" stop-color="#93a0aa"/><stop offset=".75" stop-color="#7c8c98"/><stop offset="1" stop-color="#93a0aa"/></linearGradient><filter id="f" color-interpolation-filters="sRGB" height="1.013454" width="1.01424" x="-.00712" y="-.006727"><feGaussianBlur stdDeviation=".095242493"/></filter><filter id="g" color-interpolation-filters="sRGB" height="1.013999" width="1.014333" x="-.007166" y="-.006999"><feGaussianBlur stdDeviation=".095242493"/></filter><filter id="h" color-interpolation-filters="sRGB" height="1.018705" width="1.020365" x="-.010183" y="-.009353"><feGaussianBlur stdDeviation=".042329997"/></filter><g transform="translate(-.673996 -8.502702)"><path d="m15.407242 49.665728.723583 45.5706 12.460207 4.227748 3.695056 1.253734 30.903828 10.48567 3.694368 1.2535 9.219654 3.12823 3.500536.8349v-45.458662l-2.711886-.543367-10.008039-3.286668-3.694688-1.253568-5.745708-1.949047-19.982261-6.779982-5.175013-1.750476-3.632073-1.237859z" fill="#8d5e3a"/><path d="m32.286088 96.362737 30.90296 10.726393 3.695138 1.28254 9.219752 3.19997v-37.417689l-9.219851-3.129733-3.695039-1.254338-5.744895-1.950361-19.982261-6.782072-5.175804-1.756824-3.695731-1.253946-8.218009-2.789809-.0069 36.987615 8.22493 2.855506z" fill="url(#b)"/><path d="m20.372536 55.236801v.266134c6.81123 2.222119 13.634322 4.687843 20.429244 6.668327l-3.339848-1.133781-5.175911-1.756999-3.695899-1.25367zm0 .953947v.261483c9.366487 2.971324 18.771414 6.716816 28.107845 9.11779 1.380509.160103 2.766995.371244 4.15737.61805l-2.986898-1.013892c-.971732-.1556-1.942007-.298154-2.909384-.414445-8.756074-2.37865-17.582919-5.734088-26.368933-8.568986zm-.000517 1.060917v.297656c5.538118 1.541192 11.112611 3.530031 16.613457 5.443596-.902299-.351481-1.805722-.691621-2.708879-1.033529 9.942487 3.648758 19.928772 6.964175 29.758908 12.212175 3.965782 1.722156 8.046553 3.190758 12.068514 4.402832v-.398425c-6.722948-2.161926-13.447068-4.71037-20.084046-8.337993-7.328213-3.273785-14.722047-5.429956-22.058602-7.998478-4.530871-1.708842-9.068574-3.283819-13.589352-4.587834zm0 1.118278v.210323c9.589099 2.493968 19.249538 5.842721 28.860771 9.418547 7.573973 3.221708 15.025005 8.032969 22.682337 9.900171 1.385718.422218 2.803148.863198 4.188892 1.257288v-.058911c-7.357896-2.287972-14.725333-5.287579-21.950599-9.340516-11.244319-4.521779-22.53804-8.160079-33.781401-11.386902zm-.000517.968933v.391708c3.244345.529829 6.511165 1.230704 9.828341 2.383317 9.517721 3.036553 19.167283 6.038288 28.485084 11.706262 5.771954 2.726781 11.622674 4.069167 17.419092 5.970695v-.00465c-7.494028-2.515444-15.115012-4.229262-22.388815-9.197889-7.958972-4.000038-16.058545-5.981489-24.075017-8.807214-3.113011-1.059405-6.201812-1.83948-9.268685-2.442229zm0 1.413351v.510563c5.092825-.079619 10.809621 2.104692 16.157154 3.58066 7.384683 2.487492 15.012532 4.974252 22.072555 9.989055-3.621913 1.437508-9.026268.43848-13.620874-.505396-.878487-.253493-1.758078-.522691-2.638082-.80977-.033062-.011273-.067297-.022891-.100253-.034106.015656.005839.031367.01123.047026.017053-7.389749-2.416307-14.810143-6.007193-21.918043-10.596769v.573608c2.893372 1.581725 6.325692 3.061717 4.098458 2.284615 6.167705 3.482181 12.798903 6.365115 18.997291 8.160226 5.665509 1.953921 11.451272 2.831874 16.464112 1.746147-3.203207-3.658773-8.805621-5.320065-13.051917-7.28121-8.832557-3.33892-17.8182-6.450394-26.507427-7.634676zm2.567285 1.517737c-.771179.004487-1.529955.063634-2.273246.188102 4.682935 3.488149 10.248561 5.956995 15.356686 8.357629.930999.411378 2.166136.847464 2.606559.974618 6.095003 2.146871 12.427946 3.675049 17.997868 2.869076-3.589426-4.298564-11.455376-6.233028-16.655831-8.344711-5.623759-1.443273-11.633782-4.076126-17.032036-4.044714zm1.104843.61805c6.810236-.094477 14.34477 3.227638 21.44882 5.846155 3.003437 1.541987 8.079071 2.988981 9.73274 5.376416-5.194225.567763-10.978399-.432598-16.558163-2.310454.319816.086752.040548-.056733-1.630909-.679028-5.003284-2.018581-10.752854-5.182661-15.08125-8.089946.687733-.087464 1.384254-.13337 2.088762-.143143zm-3.672645.905888v.380855c6.431079 3.698643 12.95933 7.075966 19.532142 9.027356-6.629759-1.984445-13.116236-5.586036-19.532142-9.408211zm5.388819.114205c-.293095-.004243-.584127.000301-.872815.014469 2.264359 2.682749 6.207111 4.356878 9.821106 5.786727-2.98584-1.281379-6.164946-2.916566-8.682157-5.145423 5.044145-.570238 10.842966 2.050709 16.232601 3.794601 2.102356.348512 4.748738 1.772885 6.793901 3.006018-3.14306-1.696952-6.981644-2.452313-10.208163-3.753776-4.025116-1.162797-8.158389-2.404716-12.052495-2.717664 1.20837 1.274219 4.698161 2.912977 7.383012 4.03903-2.24313-1.191926-4.383065-2.850553-5.231722-3.556372 6.884963 1.119815 14.018605 3.274974 20.922238 6.797518-4.194161-.104471-8.619389-.917813-12.97802-2.166793.13005.046823.307672.11367.395842.143144-.001708-.000357-.003459-.000674-.005168-.001033.004995.001558.009991.003092.014986.004651.046869.015624.071395.022832.104904.033072 4.650614 1.448586 9.378153 2.774846 13.766085 2.570903-.202482-.165057-.411268-.322426-.624252-.473873.78999.503015 1.379607.890373 1.588534.991154-4.42686.302859-9.336542-.81211-14.017749-2.197282.052781.02245.112109.045239.164331.067696-.066335-.025308-.138665-.05394-.205673-.079581-.153223-.045405-.308254-.088416-.460953-.134359 5.564354 1.90196 11.414837 3.73201 16.486332 2.813265-3.845166-3.479413-9.831007-4.769247-14.494723-6.593396-4.576729-1.139849-9.443556-3.17906-13.839982-3.242696zm12.309326 7.157186c.013728.004067.02761.007822.041342.011885-1.051274-.447151-2.205895-.894496-3.402377-1.367875 1.168359.501403 2.304832.951816 3.361035 1.35599zm-.791166-.91674c-.371695-.115973-.744221-.231103-1.11466-.347783.240784.071788.482739.136542.723986.205672-.594955-.214207-1.551113-.587257-2.712496-1.074353 1.053554.559824 2.12653 1.011309 3.10317 1.216464zm-16.907495-5.640483v.23151c1.835182.921528 3.664885 1.906143 5.484936 2.987932 11.402809 5.501816 23.380281 10.697549 34.527609 10.920264 4.805063-1.219463 10.375974 1.057737 15.721005 2.802929v-.094567c-5.608392-2.229213-11.357547-3.94272-16.504419-3.130042-12.788613-.549943-26.337259-6.516808-39.229131-13.718026zm0 .74259v.398942c1.412944.736867 2.820918 1.528985 4.222481 2.389519 11.509389 5.827145 23.301241 9.3502 34.792709 11.689726 5.101955-.22773 10.351533-.287762 15.891537 1.952852l.826823.285771v-.018604c-5.767548-2.318718-11.54928-3.315228-16.839799-2.692342-11.080619-1.714234-22.579314-5.311047-33.718873-11.052556-1.714518-1.082599-3.441037-2.053616-5.174878-2.953308zm0 1.030428v.38654c.744255.426024 1.4874.865528 2.227254 1.332219 10.01129 5.146194 20.217165 7.831479 30.308745 11.139372 7.844442 2.978681 14.873877.786213 22.694739 3.686596.1371.040106.341453.110152.502812.161231v-.205156c-5.296627-1.82855-10.54608-2.667787-15.490528-2.284615-8.660581-1.022759-17.633596-4.765123-26.443348-7.67085-4.707525-1.27327-9.243037-3.976087-13.799674-6.545337zm11.485087.120406c-.458528-.010096-.86922.025783-1.220081.117306 1.433763.988262 5.315526 2.374492 5.673556 2.402954-.30953-.108224-.619353-.212566-.928109-.331246.211948.069606.647626.222184.950847.327629.037442-.031256-.58241-.312073-2.311487-.976168-9.103751-3.994463 11.990446 2.370614 5.709212.619084 2.565488.70607 5.91795 2.398326 1.590084 1.661397-1.333029-.22031-2.686264-.552543-4.039547-.977201 3.033714 1.050042 7.730038 2.579593 7.011459.809769-3.67882-1.259104-9.226239-3.582849-12.435934-3.653524zm5.424475 2.843755c-.367306-.127134-.645829-.221941-.948262-.327112-.003295.00275-.009497.00467-.022738.003617.323635.113156.647069.221846.971.323495zm18.327564-1.887741c-3.129977 1.62725 6.375869 5.033167 8.468217 6.18567 3.987131 1.62441 8.02718 3.002611 12.028207 4.17959v-.166399c-6.815572-2.093141-13.701392-4.525278-20.216338-8.972579.895711-.385916 2.019397-.388203 3.2582-.186552l-1.701705-.577742-.772563-.262c-.354907-.067697-.709818-.137587-1.064018-.199988zm-35.237643.172083v.22841c2.615563 1.203003 5.228015 2.433216 7.835181 3.701583 7.564518 2.88257 15.14371 5.211048 22.711276 7.547343-.795357-.25345-1.593024-.530537-2.39417-.843876-9.390832-3.089597-18.869393-5.468608-28.152287-10.63346zm30.546457 11.477336c.265376.084565.530498.167855.7953.246496-.265147-.081913-.530123-.164629-.7953-.246496zm.7953.246496c1.097657.339105 2.195796.677026 3.292822 1.01906 7.110523 1.930928 14.025488 1.863142 21.099488 3.74189v-.16278c-8.210543-2.47797-16.167143-2.155448-24.39231-4.59817zm-16.478581-11.527462c-.398713.003922-.35679.168289.537951.536402 2.707798 1.577742 7.642659 1.7904 1.996778.076481-.849429-.373293-2.025394-.617893-2.534729-.612883zm.103353.097669c.534996-.09004 7.143261 2.274291 2.399336.944128-.647939.039825-1.334339-.444719-1.99471-.626318-.368846-.197761-.497958-.302102-.404626-.31781zm-14.966529.543636v.192236c1.878856.81841 3.756759 1.651268 5.633248 2.504757 11.873178 4.592309 23.843263 9.121135 35.666041 11.731067 4.82389.871084 9.575195.9479 14.434778 2.176612v-.106454c-7.834866-2.277423-15.40208-1.792955-23.322608-4.626591-10.804482-3.142896-21.645023-7.038859-32.411459-11.871627zm0 .946195v.234095c.720116.325255 1.439994.655659 2.159558.991154 9.67357 3.887164 19.382772 7.421627 29.069544 10.456726-.439445-.158445-.879126-.323242-1.320333-.501261-9.976745-3.279717-19.968152-6.84174-29.908769-11.180714zm31.229102 11.681975c1.195272.430963 2.383798.786714 3.568258 1.098124-1.189038-.35716-2.378425-.725321-3.568258-1.098124zm3.568258 1.098124c1.223488.367509 2.447131.73233 3.669544 1.082622 5.819871 1.423099 11.441975 1.724046 17.267163 3.204455v-.213423c-7.043144-2.146558-13.90957-2.226126-20.936707-4.073654zm5.162476-12.66486c.696539 3.558213 9.322736 5.467765 13.169222 6.874516.859968.258898 1.733782.529961 2.605009.798918v-.126091c-4.971239-1.590625-9.990781-3.189017-14.752071-6.385657 1.550648-1.057752 7.054672 2.000387 9.91154 2.439645 1.608463.506486 3.223825 1.052753 4.840531 1.611271v-.220659c-5.270187-1.923589-10.540575-3.699836-15.774231-4.991943zm-39.960353 1.67535v.519865c5.735887 1.549003 11.477385 3.260692 17.238742 5.539714 11.997708 4.472602 24.066197 8.495717 35.903235 10.278959.858349.191955 1.725188.402849 2.592607.615983v-.132808c-4.249271-1.013167-8.485894-1.878812-12.7-2.648418-14.31097-3.610733-28.709928-10.189826-43.034584-14.173295zm0 1.193209-.000517.412378c.686884.16172 1.374401.329661 2.060857.486792 15.894774 4.497046 31.873973 11.248665 47.727837 14.784627 1.975762.500041 3.960092 1.043043 5.946407 1.638143v-.17725c-8.640629-2.681192-17.279151-4.345264-25.941053-7.510136-9.932808-3.383464-19.884551-6.924802-29.793531-9.634554zm47.311325.26665c1.928664 1.923467 5.299963 2.80165 8.423259 3.676778v-.071313c-2.96791-1.064103-6.319632-2.372645-6.641972-2.808097 2.147872.523197 4.408739 1.197164 6.641972 1.909961v-.338481c-2.820926-.98734-5.639104-1.830331-8.423259-2.368848zm-28.140918.554488c7.993382 2.708466 16.442932 5.720742 23.624915 3.944462 4.202025.457149 8.632504 2.225556 12.939262 3.598747v-.100252c-4.550386-1.533858-9.122906-3.289329-13.610539-4.103109-5.888804 1.299591-12.57998-.008479-19.186943-2.179195-1.251129-.37063-2.541837-.816244-3.766695-1.160653zm-19.170924.581877v.347782c1.799731.498131 3.598696.977279 5.39657 1.434021 14.216536 4.061973 28.52214 10.242229 42.673366 13.028146 2.542749.622639 5.105088 1.373887 7.665165 2.158008v-.21239c-9.858776-2.975079-19.66254-4.771531-29.552202-8.402072-8.739717-3.25241-17.464333-5.871308-26.182899-8.353495zm24.200591.531234c.065087.017622.129844.034306.19482.051676-.023487-.00484-.048388-.009634-.07183-.014469-.040701-.011017-.082194-.025844-.12299-.037207zm-24.201107 1.975073v.176217c7.925365 2.127896 15.798978 3.355419 23.782528 6.56084 10.68064 4.018479 21.293245 5.938855 31.953089 9.486243v-.106971c-7.069399-2.414591-14.136362-4.421377-21.177002-6.100919-10.53585-3.215798-21.145814-7.611692-31.585153-9.249565-.986947-.22803-1.979493-.490028-2.973462-.765845zm0 1.07487v.147278c6.520722 1.795962 13.034918 2.905074 19.586401 5.404321 10.26047 3.662072 20.533337 6.97335 30.688567 8.789128 1.814114.393267 3.635844.876086 5.460649 1.407666v-.177767c-5.711972-1.673186-11.408876-2.970689-17.086296-4.169771-12.323118-3.458968-24.737025-8.771842-36.996192-11.052556-.425042-.05124-1.000999-.178857-1.653129-.348299zm-.000517 1.334285v.141077c2.957948.568204 5.903633 1.044294 8.833053 1.489315 12.802047 3.220356 25.731334 9.74016 38.492741 12.003919 2.795919.637661 5.601318 1.248744 8.41034 1.941483v-.305408c-9.870342-2.716884-19.690566-4.171357-29.626616-8.375199-8.752003-3.377294-17.547095-5.956665-26.109518-6.895187zm0 1.702739-.000517.320394c4.521299.955123 8.916059.773039 13.447242 1.736328-.994002-.271137-1.987711-.5334-2.979664-.780314-3.510819-.651608-6.969906-.709893-10.467061-1.276408zm13.446725 2.056722c1.165331.317871 2.331507.651704 3.499011 1.000456-1.178281-.434775-2.343117-.754723-3.499011-1.000456zm3.499011 1.000456c.349179.128843.698934.264121 1.050582.413928 9.97645 3.162291 19.960518 7.0442 29.832288 12.060246 2.630925 1.048913 5.268263 2.0547 7.907528 3.025138v-.420129c-5.265322-1.889756-10.521655-3.973528-15.743225-6.655408-7.656096-3.2016-15.371264-6.130864-23.047173-8.423775zm-16.946253-1.683102v.19172c5.526402 1.04004 10.833041.325053 16.538526 2.48977 10.17066 2.733049 20.366048 6.937743 30.432768 12.031308 2.900639 1.267533 5.829636 2.464945 8.765357 3.597711v-.458368c-6.675131-2.589693-13.339029-5.47482-19.972942-8.664588-11.285278-4.261779-22.965972-9.21374-33.819641-8.975163-.639765-.04091-1.28956-.114334-1.944068-.21239zm0 1.009241v.236678c5.477375 1.144047 10.759492.6406 16.28066 2.025199-.488369-.154799-.977191-.304091-1.465026-.465604-5.05363-1.36592-9.866392-.970188-14.815634-1.796273zm16.28066 2.261877c.897807.28458 1.796274.563462 2.695443.833025-.906028-.337683-1.803785-.609415-2.695443-.833025zm2.695443.833025c.301417.112339.603643.229908.906922.357084 7.427342 2.325513 14.973139 4.171538 22.232752 8.863025 4.502127 2.279521 9.056408 4.311247 13.620874 6.084897v-.46974c-6.040697-2.312396-12.06387-4.96805-18.012854-8.260991-6.211223-3.062495-12.492404-4.698998-18.747694-6.574275zm-18.97662-1.845366v.202055c3.469226.912614 6.847129 1.041354 9.98027.440283 7.353803.415353 15.15924 3.909483 22.710242 6.432683 6.066934 2.154003 11.587496 7.718744 17.75654 9.165851 1.75822.58495 3.52325 1.2038 5.290116 1.82521v-.32711c-4.073841-1.38892-8.138998-2.952571-12.168767-4.956289-8.880241-6.312538-18.399162-8.406439-27.600383-11.386386-5.66478-2.159641-10.48803-.092114-15.968018-1.396297zm0 1.060917v.109038c4.107294 1.351895 8.07126 1.337596 11.710914.611849 10.05967 1.255667 20.724891 4.818489 30.571261 11.629264 4.450232 2.262777 8.950325 3.893854 13.454993 5.345414v-.43874c-1.932355-.6353-3.858646-1.27437-5.721098-1.94406-7.396033-2.13842-14.262087-8.344995-21.67413-10.503239-6.200893-2.004335-12.651493-4.431435-18.608167-4.489132-2.994153.855677-6.307938.671139-9.733773-.320394zm0 .484725-.000516.236678c3.752927 1.351683 7.522403 2.064921 10.764201 1.046965 10.236889-.505913 21.536401 4.983746 31.821831 11.549683 4.337485 2.123654 8.756317 3.670914 13.151652 5.063254v-.12299c-6.349729-2.11162-12.694367-4.558812-18.828825-8.62376-8.935541-4.658431-18.711699-9.160272-27.23038-8.128187-2.798795 1.223786-6.287182.111969-9.677963-1.021643zm-.000516.795817v.192753c4.830564 1.66317 9.65284 3.121007 13.684953 1.245402 4.032136-.13457 8.436701 1.381054 12.628687 2.595191-6.090654-2.00918-12.745644-4.465141-17.876429-2.177645-1.827301.366545-5.583839-.87876-8.437211-1.855701zm0 .804086v.055293c5.179866 1.591679 10.432478 3.005584 15.335498 6.815605 6.722863 3.589737 13.641536 5.180774 20.434929 7.439339 5.183115 1.93253 9.9353 1.1565 14.981515 2.33991 1.651373.55558 3.316417 1.1328 4.985742 1.71152v-.17931c-2.59711-.9075-5.192702-1.80599-7.782988-2.6293-9.46302.25528-19.701199-3.349294-29.590959-7.532875-4.925525-2.746165-9.82273-6.082947-14.927255-6.975285-1.142296-.342179-2.290564-.695416-3.436482-1.044897zm0 .582393v.146761c5.049911 1.666535 10.086342 3.959248 14.987199 7.000607 9.66322 4.008568 19.417701 7.091076 29.055591 9.468156 3.837031.21741 7.752354 1.02332 11.694894 2.14974v-.37776c-3.943215-1.2275-7.851935-2.0905-11.657687-2.05517-9.093551-1.9689-18.36505-4.907526-27.503231-8.822715-5.453204-3.112907-10.97215-6.181906-16.576766-7.509619zm-.000517.683679v.396358c4.706174 1.616697 9.401031 3.657571 14.017232 6.358786 5.464415 2.517199 11.010332 4.111706 16.476514 6.003771 7.60407 2.96338 15.247226 5.18824 22.621359 5.60586.866153.1087 1.741968.27247 2.623096.47439v-.22738c-3.356902-.78061-6.689266-1.31107-9.98027-1.56528-5.761364-.98415-11.684856-3.13645-17.46405-5.15679.631377.25757 1.263845.50127 1.896008.74931-7.808766-2.835694-15.644835-5.638166-23.312273-10.030398-1.468749-.78521-4.179162-1.755565-6.877616-2.608627zm15.945797.05426c-2.086033-.053621-4.004285.308623-5.471501 1.324984 5.665464 4.903666 12.419171 6.765107 18.614885 8.915735 4.771225.93832 11.257859 4.063296 14.740186 1.803506-6.570259-4.950151-13.976771-8.87477-20.904668-10.717174-2.28566-.725008-4.728761-1.269211-6.978902-1.327051zm.897103.558623c1.82707-.028891 3.725971.188446 5.621879.67386 6.9387 1.954628 13.995284 5.652361 20.416842 10.677902-5.260935 1.46176-11.872745-1.405501-17.793229-3.151229-4.432926-1.78531-9.962124-3.51002-13.52579-7.378878 1.632473-.509351 3.419216-.792227 5.280298-.821655zm-16.8429.195337v.187068c4.662076 1.476667 9.334333 3.371744 13.65033 6.778915-.434752.179914-.911184.285979-1.420069.333313l1.920813.666626c2.256137-2.189609-13.065803-7.868543-8.433594-5.979997-1.89366-.732731-3.808413-1.395497-5.71748-1.985925zm17.280082.408243c-1.468985-.009359-2.884079.156515-4.208012.542086 2.449918 3.791579 8.898795 5.400452 12.910841 7.047115 4.989205 1.193038 10.559828 3.789401 14.959294 2.351795-3.788937-3.164179-8.436697-5.535142-12.712403-7.502901-5.492355-2.418929 10.038515 4.839855 5.78311 3.070613 2.906597 1.592004 8.874733 5.264344 2.782259 4.408517-7.299863-.702213-15.083963-3.8368-22.356776-8.132837 1.218699-2.696919 8.957137-.954937 12.921693.360701l.003617-.019637c-3.359287-1.237105-6.851854-2.10486-10.083623-2.125452zm-17.280082.255799v.148828c3.453693 1.068626 6.946634 2.32654 9.563241 5.063257-1.894333-.402138-3.809294-.917959-5.73195-1.492416l4.393013 1.524972.938444.325562c.351934.083038.704005.165047 1.055233.240812-.565724-3.218442-6.403511-4.683293-10.217981-5.811015zm18.545638.433048c-1.318226.006813-2.532515.255337-3.554305.873332 6.508834 4.4295 13.653507 5.944459 20.354831 7.362858 2.61433.164571 2.329678-.643341.985986-1.691369-.07466.041347-.261883.041362-.610815-.018604.167327.238986.263767.438021.310058.608749-1.667533-1.602864-4.045801-2.734328-6.263184-3.59358 3.426832 1.571141 7.874402 4.497635 2.119768 3.086117-.827299-.148795-2.061001-.606285-3.438033-1.187008 2.518829.785774 5.319311 1.603243 4.106726.090951-.73713-.452919-2.265057-1.049401-3.164148-1.354956-1.749127-1.06581-5.564107-1.603145-6.543787-1.270207-1.005569-.462893-1.927835-.878221-2.628264-1.153935 2.41292.052409 4.906358.38367 7.419703 1.012342-.090653-.03152-.187264-.065948-.275952-.096635-3.550583-1.025275-9.40034-2.737957-9.459372-.561723 6.014483 2.677278 12.329257 4.872119 18.154965 5.175395.148131 1.735021-6.771091-.58333-8.675956-1.11001-3.172707-1.326258-9.746583-3.061148-10.836032-5.28805 3.448197-.689539 7.458897.125785 11.267013 1.216464-2.96581-.960981-6.369105-2.115118-9.269202-2.100131zm8.818584 2.668055c.320106.092434.660765.188533.934826.265616-.383098-.136554-.727985-.241884-.982885-.28267.015405.005328.03259.011701.048059.017054zm.934826.265616c.041386.014752.077881.025653.120406.041342.171079.046893.341966.088849.513147.138492-.159836-.042551-.447829-.127596-.633553-.179834zm.120406.041342c-.259848-.071226-.519781-.145414-.77928-.210323.671134.233351 1.386709.489427 2.128035.776696-.480751-.220416-.939375-.415347-1.348755-.566373zm7.912696 3.569808c.238347-.131999-.788822-.727732-2.201933-1.441256.840507.488111 1.617864.985704 2.201933 1.441256zm-2.201933-1.441256c-1.810081-1.051177-3.865171-2.040215-4.687052-2.371432-4.480994-1.798812 1.249679.635793 4.687052 2.371432zm-8.095113-5.099947c.599364.169575 1.196827.364668 1.793689.571024-.595274-.209442-1.1923-.405978-1.793689-.571024zm1.793689.571024c6.377603 2.24391 12.422589 6.878055 18.505331 10.705803 3.126586 1.15633 6.266802 2.1995 9.404077 3.18017v-.23668c-3.401332-1.12771-6.798584-2.3571-10.17819-3.83335-5.760764-3.840419-11.681349-7.724293-17.731218-9.815943zm-27.828793-.220141v.270267c1.504194.603822 2.821558 1.201965 3.121256 1.521355-1.028891-.219269-2.073159-.490696-3.121773-.788066v.475423c1.791694.575699 3.408643.890561 4.435388.531234-1.436192-.940162-2.932044-1.530631-4.434871-2.010213zm45.856633 1.843298c1.085993 2.492337 5.907632 3.656121 9.881568 4.970239v-.257348c-3.121676-1.138898-6.230472-2.386382-9.276437-3.939295 2.811958-.055808 6.039671.749451 9.276437 1.704806v-.444934c-3.320896-.940507-6.623856-1.673273-9.881568-2.033468zm-21.41523.890902c1.269737.005722 2.938654.414154 4.333585.896586-.29032-.063797.085858.139956 1.825729.826823 3.274884 1.694517.274643 1.158143-2.951241.280086-1.37571-.601629-2.833181-1.2789-4.17649-1.901693.280619-.070881.60751-.103429.968417-.101802zm-1.7601.179834c.08732.118305.276788.260536.584977.428397-.583236-.235101-.867626-.403826-.584977-.428397zm3.40341.376204c-.730142.039835-.629421.444965 1.602486 1.05885 1.380322.670636 3.087604.559075 1.53169-.095084-1.069112-.717433-2.456938-1.000714-3.134176-.963766zm.326078.310576c.126028-.020042.731459.107388 2.143539.502811l.447001.159164c1.881773 1.105118-3.010893-.595128-2.59054-.661975zm24.670847.097151c.11228.099682.240758.194279.365869.289905 1.377076.373468 2.822957.740704 4.290694 1.112594v-.495577c-1.559444-.375666-3.112797-.688184-4.656563-.906922zm.365869.289905c-.00149-.000404-.003162-.00063-.004651-.001033.002251.001041.004467.002059.006718.0031-.000779-.000595-.001289-.001472-.002067-.002067zm.002067.002067c1.070866.817778 2.593248 1.492095 4.288627 2.105815v-.270268c-1.431524-.566889-2.861438-1.175308-4.288627-1.835547zm-33.643425 3.79305 2.107364.731739c.122324.006859.245273.018113.36742.023771 11.782367 2.849647 23.856317 8.759707 35.457268 9.868127v-.64647c-1.777255-.25538-3.545988-.45272-5.303552-.6041-10.55661-1.6718-21.355957-7.2446-31.921567-9.328625-.234141-.009462-.471267-.02943-.706933-.044442zm18.915124 6.565487 6.101954 2.1177 3.695382 1.28261.72502.25167c2.849951.75877 5.68539 1.36529 8.494572 1.69912v-.53537c-2.470678-.38203-4.939496-.75101-7.416085-1.24437-3.854644-1.00856-7.727624-2.28457-11.600843-3.57136zm16.957622 5.88595 2.059306.71469v-.44184c-.401871-.02468-.804562-.05236-1.205094-.07131-.28461-.06417-.569453-.13456-.854212-.20154z" fill="#8d5e3a" opacity=".3" stroke-width=".264584"/></g><g stroke-width=".895619" transform="matrix(1.1150438 0 0 1.1180488 -7.12977 -16.163665)"><path d="m39.386492 61.444906v11.391432l17.920606 6.013937v-11.339378z" fill="#4a4c4f"/><path d="m42.701096 70.468668 11.291929 3.789721v-7.86904l-11.29184-3.822277z" fill="url(#e)"/><path d="m48.347062 66.308243a1.210454.81897309 38.677477 0 1 1.074613 1.282931 1.210454.81897309 38.677477 0 1 -.556478.620373v2.13178l-1.036272-.347787v-2.130862a1.210454.81897309 38.677477 0 1 -.556478-.994812 1.210454.81897309 38.677477 0 1 1.074615-.561623z" fill="#4a4c4f"/></g><g transform="translate(-.673996 -8.502702)"><path d="m118.23242 54.683087-4.88843 2.060053-33.739516 14.218308-3.500536 3.192503v41.431259l3.500536.83491 38.625996-16.27754z" fill="#8d5e3a"/><path d="m79.604474 74.501173v37.333447l34.393636-14.50124.0002-37.326256z" fill="url(#c)"/><path d="m113.99835 61.048333c-3.60769 1.57591-7.21361 3.235559-10.80451 5.13147-7.793208 4.848903-15.695825 8.43462-23.589259 11.608077v.366903c4.923771-1.852344 9.960278-4.060895 14.837337-6.57841 6.472402-3.94948 13.007732-7.174265 19.556432-10.194727zm0 .730188c-2.92398 1.323009-5.84712 2.682602-8.76639 4.101041-8.432634 5.361042-17.042352 9.511419-25.627379 12.836943v.001551c2.023443-.707471 4.161749-1.56949 6.234245-2.385901 8.360701-2.813426 16.496244-8.635985 24.765934-12.835393 1.13043-.517162 2.26207-1.02836 3.39359-1.539441zm0 .644405c-2.77278 1.276085-5.53806 2.665519-8.28787 4.262272-8.25863 6.202393-16.928612 8.813414-25.424804 12.488644 6.648363-2.83658 13.371576-4.921759 19.998784-8.581389 4.51466-3.071957 9.10088-5.608573 13.71389-7.852234zm0 .822689c-.27414.126455-.54932.250394-.82321.377238-4.63634 2.513996-10.75389 4.877042-14.251325 9.019088 4.619065.452707 9.839455-.603219 15.074535-2.548165v-.199988c-4.72208 1.388024-9.99221 2.705812-13.62294 1.732194 4.39399-3.412862 8.99004-5.999308 13.62294-8.227405zm0 .492476c-4.40856 2.007994-8.92077 4.332298-11.46649 7.480164 3.60479.108744 7.50343-.659741 11.46649-1.909444v-.282154c-3.41209.917237-6.77459 1.453767-9.93635 1.463994 1.68789-2.47921 6.61884-4.457421 9.93635-6.287989zm-9.71362.362252-1.53944.649056c.20584.02707.40477.06641.59324.12299-7.643068 5.736816-15.753565 9.127347-23.733949 12.247315v.149344c4.908154-1.82855 9.888416-3.92758 14.793929-6.33553 2.041806-1.278577 10.54122-5.098174 9.88622-6.833175zm9.71362.531234c-3.19181 1.432881-6.32356 3.065159-8.70231 5.349544 2.73932.176884 5.68741-.362381 8.70231-1.267106v-.478007c-2.24166.558458-4.44933.944957-6.55464 1.033012.22848-.128315.8737-.597179 1.73839-1.208712-.23396.181768-.46338.368555-.68574.563273 1.78978-.111909 3.63224-.452776 5.50199-.93741v-.529167c-1.3771.295729-2.74212.540383-4.08399.714685 1.35426-.796181 2.71657-1.546537 4.08399-2.25516v-.335896c-1.10572.503179-2.18682 1.041104-3.19722 1.663464.97916-.661337 2.06585-1.365503 3.19722-2.010213zm-15.59905 1.949235-2.117701.892452c.447479-.057826.826493-.040785 1.09089.101286-5.729582 4.239735-11.801633 6.515831-17.767908 8.974129v.101803c1.502933-.593606 3.014759-1.196913 4.504634-1.778703 4.078666-1.841612 13.077616-4.695619 14.290085-8.290967zm-7.936984 3.762561c-1.729604.49972-3.471978 1.109034-5.21932 1.781803l-5.638415 2.376083v.299206c2.971132-1.234995 6.029158-2.458947 8.913151-3.428731-.394561.544982-4.959841 2.671769-8.413957 4.179073 3.704681-1.4148 8.009948-2.747167 10.358541-5.207434zm-10.358541 5.207434c-.169009.064544-.332971.129809-.499194.19482v.016537c.188654-.081466.302332-.12545.499194-.211357zm33.894575-5.052405c-6.1946 2.330225-12.35598 3.817082-17.872297 3.255099-5.446149 1.511403-11.00695 4.234986-16.521472 6.503996v.067179c5.215377-1.999725 10.658785-4.797487 15.7887-5.869926 5.710139.725264 12.153909-1.246853 18.605069-3.807003zm0 .756026c-4.96066 1.87867-9.88685 3.275502-14.7128 3.98477-6.040864-.257466-12.843699 2.56519-19.396232 5.805847 6.245484-2.481932 12.881683-6.034136 18.540987-5.280814 5.068775-.634827 10.295645-2.183526 15.568045-4.270024zm0 .499195c-4.81812 1.811976-9.6171 3.314128-14.346414 4.507735-5.849444-.02761-12.248836 1.712065-18.62522 4.844666l.004134.006718 1.137399-.492477c6.048893-2.95224 11.780294-3.500171 17.350879-3.858162 4.790342-1.429991 9.628682-3.044843 14.479222-4.900993zm0 .58136c-5.31861 2.230247-10.62101 4.229495-15.819709 5.361946-5.915071.196708-12.229723 1.944825-18.57406 4.896342v.145211c.755767-.30851 1.605848-.670298 2.209684-.901237 8.539251-3.897 16.214365-2.454328 24.779365-6.434749 2.46307-1.023954 4.93294-2.016485 7.40472-3.012736zm0 .481624c-.87284.355006-1.74629.707378-2.61793 1.070736-.87997.418413-1.75623.79862-2.62981 1.153934 1.74891-.695606 3.49792-1.399773 5.24774-2.10013zm-5.24774 2.22467c-.28582.113678-.57154.227861-.85732.341582.28548-.110348.57123-.225222.85732-.341582zm-.85732.341582c-9.532238 3.684643-18.734721 4.127912-28.288709 8.25531v.107487c8.30515-3.289011 16.379194-3.915411 24.698239-6.932394 1.19615-.479203 2.39363-.95414 3.59047-1.430403zm6.10506-1.740979c-2.42358.989294-4.84701 1.956626-7.26829 2.878894-9.206322 4.087668-17.975531 4.256714-27.125479 8.147306v.056328c5.887451-2.320969 11.606739-2.92762 17.421676-4.537191 5.634243-1.773184 11.298733-3.926601 16.972093-6.298324zm0 .941544c-1.51195.642282-3.02359 1.28023-4.53513 1.909961-.48316.235376-.96519.456393-1.44642.671277 1.99321-.80139 3.987-1.618063 5.98155-2.455664zm-5.98155 2.581238c-1.29734.521609-2.59425 1.038649-3.89072 1.544092 1.29158-.457886 2.58737-.962106 3.89072-1.544092zm-3.89072 1.544092c-8.224108 2.915592-16.246741 3.717645-24.521499 7.320483v.133326c6.957423-2.647337 13.608403-3.583584 20.513989-5.911784 1.33512-.503092 2.67122-1.021058 4.00751-1.542025zm9.87227-3.367753c-6.29684 2.781457-12.58932 5.443295-18.866551 7.605737-5.149993 1.435474-10.33059 2.997211-15.527218 4.76095v.151412c1.506693-.526391 3.007833-1.036886 4.491715-1.507918 9.869087-2.453027 19.885294-6.270851 29.902054-10.609689zm0 .727604c-1.4697.632135-2.93994 1.264359-4.40904 1.892908-10.012552 4.51764-19.996367 7.29582-29.984729 11.423592v.170532c2.723167-1.097662 5.445633-2.103738 8.153507-3.038574 8.72175-2.763636 17.478362-6.372445 26.240262-10.101709zm0 1.387512c-.15543.070781-.31069.139716-.46612.21084-11.35327 5.141061-22.602901 8.184454-33.927649 12.75271v.218592c3.346729-1.33607 6.703685-2.653327 10.030395-3.775997 8.087747-2.363023 16.221434-5.691562 24.363374-9.162232zm0 1.497066c-3.206 1.363411-6.41154 2.72031-9.61079 3.982186-8.238716 2.731207-16.510346 5.850366-24.782979 9.462472v.110588c11.4804-4.990978 22.904729-8.181733 34.393769-13.237952zm0 1.28726c-4.69698 1.991163-9.39347 3.965938-14.077696 5.705079-6.748962 2.063161-13.522841 4.247579-20.316073 6.925159v.180867c2.547835-1.008584 5.092407-1.93994 7.623307-2.726965 8.865643-2.439158 17.813242-5.878298 26.770462-9.694499zm0 .803569c-.12843.06013-.25709.116307-.38551.176733-11.40572 5.767419-22.671529 8.391298-34.008259 12.692766v.268201c3.621934-1.269491 7.239691-2.393782 10.843266-3.552755 7.811404-2.138708 15.680723-5.661488 23.550503-9.191171zm0 .913123c-5.18907 2.288522-10.37867 4.768309-15.543757 7.35614-6.250059 3.694345-12.545723 6.65366-18.850012 9.420614v.448034c3.436039-1.538464 6.870135-3.132554 10.294462-4.785237 7.983611-4.677628 16.034347-8.71832 24.099307-12.295891zm0 .860929c-3.65662 1.647056-7.30998 3.383176-10.92595 5.056539-7.79337 4.365437-15.624094 8.370739-23.467819 12.02614v.469737c3.761386-1.737604 7.517501-3.574309 11.231356-5.500955 7.671313-4.479162 15.411093-8.517538 23.162413-11.908834zm0 .740523c-4.36807 1.72732-8.73241 3.60263-13.06535 6.079733-7.040391 4.426692-14.176552 8.092975-21.328419 11.37398v.48886c5.539293-2.553817 11.071299-5.435681 16.532841-8.626345 5.842918-4.185003 11.855378-6.792652 17.860928-9.180836zm0 .590145c-6.58562 2.696326-13.16284 5.779854-19.446878 10.663949-4.947392 2.847849-9.943094 5.124074-14.946891 7.219199v.36432c2.483877-1.08746 4.965813-2.18254 7.436238-3.220995 6.735704-2.207679 12.763761-8.582588 19.387961-11.506791 2.50458-1.056259 5.03535-2.204513 7.56957-3.33158zm0 .598413c-.94176.393969-1.88802.790533-2.82154 1.174605-8.09287 3.084816-15.589806 10.27774-23.665218 13.340272-2.567474 1.144378-5.243 2.251778-7.907011 3.360518v.43822c5.47243-2.20464 10.94618-4.580382 16.351974-7.749402 5.833525-4.428535 11.930255-7.892425 18.041795-10.534757zm0 .461471c-4.10723 1.961225-8.21689 4.31179-12.17497 6.680212-7.232887 5.292491-14.732623 8.676962-22.218799 11.770862v.09766c5.344753-2.13314 10.737939-4.410588 16.020728-7.413496 5.927171-4.201318 12.162391-8.115873 18.373041-10.984343zm0 .743107c-.20129.084439-.40645.17061-.60668.254248.20028-.076049.40556-.156418.60668-.233578zm-.30128.165881c-.65505.239343-1.30548.5101-1.95388.794267.65002-.281144 1.30114-.550542 1.95388-.794267zm-1.95388.794267c-6.60733 2.857763-13.073192 7.548531-19.364712 12.176001-4.239978 2.198898-8.505563 4.070798-12.773897 5.825488v.21704c3.977356-1.57238 7.962871-3.2294 11.928471-5.03535 6.642971-4.651694 13.244988-10.130659 20.210138-13.183179zm2.25516-.485759c-6.64063 2.83343-13.52668 7.18705-19.730065 12.257651 3.802197 1.923947 10.884615-2.04926 16.094105-3.570325 1.19184-.517214 2.41613-1.036012 3.63596-1.556494v-.143661c-6.27467 2.474704-13.16529 5.884152-18.695502 5.022433 5.903662-4.988222 12.299292-9.062938 18.695502-11.909351zm0 .565857c-.58636.243174-1.1716.492929-1.75235.756543l.00413.019637c.52705-.221125 1.11929-.45549 1.74822-.69143zm-1.39837.529684c.01382-.02541-.36265.160443-1.29966.649573-4.66845 2.524226-9.74279 5.506724-13.879772 9.20719 4.803582.970255 10.885372-2.351628 16.332852-4.16047.07647-.037755.16689-.077326.24495-.115238v-.257349c-4.05827 1.851036-8.11843 3.251982-12.04991 4.027145-6.652096 1.589538-.13552-2.887324 3.03805-4.865337-3.9203 1.955237 7.53889-4.348303 7.61349-4.485514zm1.39837.046509c-.76331.307638-1.51805.617188-2.24483.91674.74263-.279727 1.49285-.54557 2.24483-.800985zm0 .795817c-.6774.249818-1.16206.429348-1.74873.65164-.08746.037862-.19138.086309-.28061.125057.67834-.23185 1.35465-.438552 2.02934-.633037zm-2.02934.776697c-.29063.099336-.58177.207965-.87281.314192-.44996.204404-.9547.45987-1.48363.745174.82467-.389471 1.61176-.735959 2.35644-1.059366zm-2.35644 1.059366c-2.4187 1.142288-5.01135 2.58347-6.83008 4.426604.05054-.181309.15524-.397281.33797-.663009-.38053.102197-.58437.12366-.66611.089917-1.46745 1.236136-1.77882 2.101619 1.0759 1.628325 3.42364-1.048085 6.95315-2.133279 10.4681-3.532085v-.349332c-.64736.290961-1.259.571426-1.77405.829406-2.07963.763876-9.63294 3.955545-9.47281 2.151807 3.62857-.564337 7.4305-1.781639 11.24686-3.365686v-.956531c-.69516.375008-1.37781.732493-2.05311 1.083138-3.52737 1.282092-6.81371 2.189118-3.23339.059945 1.90896-.914285 2.31158-1.164317 1.98592-1.060917 1.04031-.45061 2.21378-.871195 3.30058-1.147734v-.213424c-1.42547.379391-2.95375.953735-3.92948 1.609721-.97628.415039-2.67856 1.222001-3.49281 1.78077-1.32395 1.699083 1.73379.531206 4.48397-.571024-1.50353.758327-2.85049 1.373224-3.75378 1.62264-6.27894 2.121426-1.43425-1.404884 2.30632-3.422531zm-7.15822 3.853512c.638-.537436 1.48748-1.140222 2.40554-1.740979-1.54432.900121-2.66701 1.633048-2.40554 1.740979zm2.40554-1.740979c3.7533-2.187643 10.00787-5.361587 5.11596-2.987931-.89716.436649-3.13996 1.694874-5.11596 2.987931zm6.23631-2.857707c.04628-.021025.08621-.036394.13126-.056327-.20357.075695-.51891.197309-.69402.259932.18777-.071362.37511-.135114.56276-.203605zm.13126-.056327c.29982-.111488.67195-.25023 1.02216-.382922.01514-.006558.03348-.015174.04857-.021705-.2777.071476-.65361.220043-1.07073.404627zm2.41484.476457c-.7397.04061-2.25558.494053-3.42305 1.358056-1.69692.854184.167.770561 1.6738-.080615 1.27309-.465894 1.89993-.802443 2.1053-1.014408v-.223759c-.07439-.032143-.18932-.048428-.35605-.039274zm-.35554.358117c.45907.020054-4.88519 2.341394-2.82721.982369l.48679-.214974c1.54179-.571467 2.20282-.773406 2.34042-.767395zm-21.232293.448035c-4.099492.863887-8.264659 2.242237-12.449886 3.876766v.472839c4.07945-1.608958 8.237134-3.170607 11.788944-3.481958-3.865493 2.271032-7.82372 4.123355-11.788944 5.873027v.258382c4.536644-2.093592 11.106658-3.946997 12.449886-6.999056zm-5.705078 2.517676c-2.232844.536111-4.483789 1.240271-6.744808 2.050004v.514181c2.177237-.757561 4.326054-1.490645 6.344832-2.222087.136873-.113263.277162-.226136.399976-.342098zm-.399976.342098c-.001049.000868-.00205.001715-.0031.002584.002929-.001591.005855-.00306.008785-.004651-.001845.000668-.00384.001399-.005685.002067zm-.0031.002584c-2.109384 1.145266-4.224573 2.189685-6.341732 3.165181v.223242c2.501284-1.045862 4.829588-2.138289 6.341732-3.388423zm28.052037.575158c-8.20913 3.738366-16.461709 6.670704-24.235216 7.299814-3.380303 1.37355-6.768478 2.85541-10.158553 4.33669v.1757c2.378746-1.0297 4.754167-2.06145 7.104476-3.0577 5.509734-1.80554 10.698444-1.55784 16.357663-4.151167 3.62488-1.522951 7.28229-2.887294 10.93163-4.404899zm0 .725538c-6.68751 2.952524-13.38895 5.471126-20.004466 7.526676-4.689061.45777-9.521251 2.10689-14.389303 4.1522v.3514c4.865307-1.91888 9.70195-3.46052 14.42961-4.21628 6.623049-2.24616 13.296809-4.786909 19.964159-7.670336zm0 .628902c-1.6151.734045-3.23028 1.461423-4.84467 2.18643.69245-.330029 1.38529-.655461 2.07688-.995288-6.31005 2.753046-12.777505 5.658892-19.068089 7.342192-4.135443.74141-8.330692 1.86435-12.55789 3.33002v.25425c1.522446-.55063 3.036546-1.03752 4.524271-1.37201 8.038987-1.28488 16.371248-4.45677 24.661028-8.385015 1.73025-.7497 3.46776-1.480949 5.20847-2.210201zm0 .979268c-8.97934 3.573206-18.039848 8.260716-26.942544 10.538376-2.465772.46274-4.950874 1.00333-7.451225 1.65416v.54726c11.22319-1.81043 22.883009-7.85443 34.393769-12.385296zm-20.873664 9.681576c-1.255431.4844-2.510172.95589-3.762561 1.39837-3.258914.95937-6.504647 1.73054-9.757544 2.56573v.46509c2.553763-.47128 5.129138-1.15754 7.718392-1.98282zm-11.572937 4.87929c-.647474.10439-1.296474.21759-1.947168.33797v.48317z" fill="#8d5e3a" opacity=".3" stroke-width=".264583"/><g filter="url(#h)" opacity=".9" transform="translate(.264583 -2.116667)"><path d="m87.311663 78.106006c-.28824.116464-.60282.337038-.93112.662993-.5252.521442-1.04637 1.298833-1.38347 2.178597-.33709.879765-.41714 1.671667-.29953 2.213997.11761.542331.40511.819679.80827.832794.40316.01311.89355-.238956 1.41875-.760398.5252-.521441 1.04637-1.298966 1.38347-2.178735.3371-.879764.41714-1.671528.29953-2.213859-.11761-.54233-.40511-.819678-.80827-.832795-.15121-.0049-.31465.02748-.48763.09741zm8.321321 3.713272-2.063307-.927486-.172587 1.307288 2.578167.457666 3.966943-3.943607.26458-1.322915-2.405717-1.764821-.264583 1.322915.21223 2.237714-2.063247-.927445-.264583 1.322916zm-11.668641 3.02102c-1.88099 2.999629-1.18293 5.183588-1.56438 10.887866-.20411 3.600247-.3193 8.552466-1.2535 12.554346l3.705986-.36544c-.22984-.75691-.499936-1.76784-1.908406-1.3929 1.17715-3.65808 1.15229-7.459082 1.88448-10.860347.98818 2.828743 1.20551 7.291397 1.50121 10.414587l4.067357-.50241c-.45182-.79894-1.001417-1.78085-2.466947-1.33893.16472-6.238071-.99509-12.472069-.71707-17.263949.83367.802565 1.33287 1.340638 2.96795 1.401766.954222-.723566 2.834109-1.567845 4.087637-3.043965.250211-.294641.03253-1.013621.264583-1.322935l-.9256-.763948c-1.41183 1.181516-2.07124 1.839864-3.28058 3.221364-.70243-.86644-1.87185-1.703061-2.81809-2.421001-.77648.766727-1.69611 1.290229-2.50652 1.263858-.43703-.01423-.78334-.187344-1.03811-.468056zm15.81347-3.59857c-.35604.143293-.65941.370851-.89583.663781-.34388.42606-.52198.960733-.4871 1.548794.0349.588114.30289 1.187403.81412 1.598178.51115.410815 1.155237.544331 1.738507.452969.5832-.09127 1.06868-.378878 1.41263-.804974.34382-.426102.52211-.960855.48724-1.548982-.035-.587943-.3031-1.187385-.81426-1.598191-.51122-.410785-1.15517-.544228-1.73837-.452895-.18226.02849-.355047.07617-.516937.14132zm4.131057 2.572184c-.14772.513481-.40524 1.029306-.78522 1.500085-.5662.701509-1.28784 1.160714-2.0037 1.38023l-1.193817 3.97491c-1.60531-.602282-1.41183-.716611-2.2588-1.038997l-.97111 1.412931c.140821.149481-.426066 1.193725-.259387 1.315355 1.018543.743257 3.161721.05752 3.994404-.243584 1.09564-1.351101 1.63959-3.078233 2.25807-4.402441.81949 1.070562 1.53831 1.478819 1.88394 3.140864-1.7705.968968-3.17144 1.861177-4.48737 2.833698-.801617 2.268151-.325467 4.032492-.222037 5.418955-1.4664.752979-2.71674 2.620382-3.3111 3.836082l4.561457-1.97621.26274-1.285516c.0897-1.780755-.10712-3.093705-.0106-4.707335.99174-.480502 2.44591-.946757 3.91345-2.149333-.67392 2.326011-.94556 5.614909.0893 5.159078 2.74523-1.209221 3.70753-2.3357 5.35438-3.894772.36549.666148 1.5102 1.581316 1.99571 1.595345.47488.01372.29505-.861277.26458-1.322919-.63173-.578018-1.41365-1.125641-1.67944-2.136487-2.13065 1.896984-2.97958 2.673078-4.44927 3.42113.75034-1.719595 2.37621-5.101132 2.29839-6.624564-.18858-3.686755-3.57131-4.868131-5.24464-5.206475z" fill="#8d5e3a" filter="url(#g)" opacity="1"/><path d="m86.782497 80.751836c-.28824.116464-.60282.337038-.93112.662994-.5252.521442-1.04637 1.298833-1.38347 2.178597-.33709.879764-.41714 1.671667-.29953 2.213997.11761.542331.40511.819678.80827.832794.40316.01311.89355-.238956 1.41875-.760398s1.04637-1.298967 1.38347-2.178736c.3371-.879763.41714-1.671528.29953-2.213858-.11761-.542331-.40511-.819678-.80827-.832795-.15121-.0049-.31465.02748-.48763.09741zm10.753983-3.803518-.05235 3.560629-2.063247-.927444-.05248 3.56069-2.055209-.921544 2.132899 3.081927 4.23153-5.266522.264577-1.322915zm-14.101303 10.53781c-1.88099 2.99963-1.18293 5.183588-1.56438 10.887866-.20411 3.600226-.3193 8.552446-1.2535 12.554326l4.235152-3.01125c-.22984-.7569-1.0103.35949-2.41877.73443 1.17715-3.65808 1.133488-6.94061 1.865678-10.341856.98818 2.828736 1.20551 7.291366 1.50121 10.414566l4.596523-3.14821c-.45182-.79894-1.612434.49077-3.077964.93268.16472-6.23806-.913239-12.097869-.635219-16.889749.83367.802566 1.33287 1.340639 2.96795 1.401767 1.14469-.867993 2.9576-2.507955 4.35222-4.3669l.264583-1.322876-1.190183.558927c-1.41183 1.181517-2.07124 1.839865-3.28058 3.221365-.70243-.86644-1.87185-1.703062-2.81809-2.421002-.77648.766728-1.69611 1.29023-2.50652 1.263859-.43703-.01423-.78334-.187344-1.03811-.468057zm15.81347-3.598569c-.35604.143293-.65941.37085-.89583.66378-.34388.42606-.52198.960734-.4871 1.548794.0349.588114.30289 1.187403.81412 1.598179.51115.410814 1.15524.544331 1.738513.452969.5832-.09127 1.06868-.378878 1.41263-.804975.34382-.426101.52211-.960854.48724-1.548981-.035-.587944-.3031-1.187386-.81426-1.598191-.51122-.410785-1.15517-.544228-1.738373-.452895-.18226.02849-.35505.07617-.51694.14132zm4.131063 2.572184c-.14772.513481-.40524 1.029306-.78522 1.500085-.5662.701508-1.28784 1.160714-2.0037 1.38023l-1.193823 3.97491c-1.60531-.602282-1.41183-.716612-2.2588-1.038998l-.701331.08246-.269779 1.330475c1.00135 1.06293 2.76607 1.422154 3.73502 1.071772 1.095643-1.351101 1.639593-3.078233 2.258073-4.402442.81949 1.070562 1.53831 1.47882 1.88394 3.140865-1.7705.968968-3.17144 1.861177-4.487373 2.833698-.80162 2.268151-.32547 4.032482-.22204 5.418942-1.136884.58377-2.181263.44717-2.781934 1.19026-.174099.21538-.22683.97195-.264586 1.32291l4.559623-1.93882c.0204-.40565.26887-.99415.26643-1.36033-.008-1.241315-.35156-2.100936-.27703-3.346986.99174-.480503 2.44591-.946757 3.91345-2.149333-.67392 2.32601-.94556 5.614889.0893 5.159069 2.74523-1.209212 3.70753-2.335691 5.35438-3.894763.72298 1.317713 2.58649-.116876 2.52487-1.050491-.63173-.578018-1.67823.197275-1.94402-.813571-2.13065 1.896985-2.97958 2.673079-4.44927 3.42113.75034-1.719594 2.37621-5.101132 2.29839-6.624563-.18858-3.686755-3.57131-4.868132-5.24464-5.206475z" fill="#d6b69c" filter="url(#f)"/><path d="m385.37342-67.645029c-.28824-.0061-.60282.08071-.93112.267068-.5252.298119-1.04637.853901-1.38347 1.590325-.33709.736429-.41714 1.494293-.29953 2.086633s.40511.991937.80827 1.176482c.40316.184541.89355.140994 1.41875-.157125s1.04637-.854035 1.38347-1.590464c.3371-.736424.41714-1.494154.29953-2.086494s-.40511-.991937-.80827-1.176483c-.15121-.06922-.31465-.106317-.48763-.109942zm10.4894 1.979642.21223 2.327957-2.32783-.594356.2121 2.327963-2.32789-.594423 2.40558 2.787841 4.23153-3.467214zm-13.83672 3.331321c-1.88099 2.199805-1.18293 4.680589-1.56438 10.222669-.20411 3.51345-.3193 8.416685-1.2535 12.021328h3.97057c-.22984-.854636-.76452-.770025-2.17299-.993953 1.17715-3.157534 1.15229-6.969103 1.88448-10.059027.98818 3.248932 1.20551 7.803981 1.50121 11.052913l4.33194.01666c-.45182-.991063-1.266-.996241-2.73153-1.17749.16472-6.168022-.99509-12.895188-.71707-17.56885.83367 1.157054 1.33287 1.907394 2.96795 2.663782 1.14469-.381254 2.9576-1.25034 4.35222-2.516273l-.9256-1.157527c-1.41183.581186-2.07124.959143-3.28058 1.826414-.70243-1.165123-1.87185-2.498999-2.81809-3.619294-.77648.436557-1.69611.569019-2.50652.19805-.43703-.200066-.78334-.520432-1.03811-.909476zm15.81347 3.125547c-.35604-.0081-.65941.09046-.89583.282861-.34388.279837-.52198.73878-.4871 1.341672.0349.602954.30289 1.316196.81412 1.944354.51115.628163 1.15524 1.035556 1.73851 1.192209.5832.156719 1.06868.07554 1.41263-.204304.34382-.279904.52211-.738846.48724-1.3418-.035-.602826-.3031-1.316268-.81426-1.944426-.51122-.628163-1.15517-1.035423-1.73837-1.192075-.18226-.04901-.35505-.0748-.51694-.07849zm4.13106 4.328771c-.14772.450668-.40524.856992-.78522 1.166198-.5662.460752-1.28784.613106-2.0037.528228l-1.19382 3.46728c-1.60531-1.284883-1.41183-1.316942-2.2588-1.999472l-.97111 1.000001c1.00135 1.488718 2.76607 2.598327 3.73502 2.659956 1.09564-.885219 1.63959-2.381055 2.25807-3.442277.81949 1.419021 1.53831 2.132931 1.88394 3.941943-1.7705.216126-3.17144.512635-4.48737.925603-.80162 1.927291-.32547 3.894097-.22204 5.324545-1.4664.129433-2.45216.254767-3.04652 1.217741h4.55962c.0897-1.742611-.10712-3.139252-.0106-4.71184.99174-.0588 2.44591.09328 3.91345-.485277-.67392 2.03945-.94556 5.212843.0893 5.19705 2.74523-.04191 3.70753-.759205 5.35438-1.618012.72298 1.625135 2.32191 2.193351 2.26029 1.233534-.63173-.846639-1.41365-1.726746-1.67944-2.85061-2.13065.991001-2.97958 1.406118-4.44927 1.529236.75034-1.400539 2.37621-4.090733 2.29839-5.647255-.18858-3.766942-3.57131-6.386704-5.24464-7.436572z" fill="#c79b79" opacity="1" transform="matrix(1 -.42521451 0 1 -298.32634 310.94032)"/></g></g><g transform="translate(-.673996 -8.502702)"><path d="m55.246383 32.876953-35.248015 14.853227-4.591054 1.935518 4.965034 5.57117 55.73159 18.917083 3.500536.347222 34.393826-14.494045 4.23412-5.324041-.26692-1.339244-3.36784-1.142671-56.953129-19.324219z" fill="#8d5e3a"/><path d="m113.23688 56.209208-56.29165-19.099139h-2.793743l-33.786053 14.237919 55.738504 18.912075 3.500536.701385 33.739516-14.218308" fill="url(#d)"/><path d="m314.45343 130.50724.00214-.18481c-3.70413.04718-7.40392-.01166-11.08456-.32591-6.39684-1.93362-12.97039-3.85407-19.68803-3.85306 7.08154.04043 13.79418 2.70186 20.54881 4.50541 3.35435.07438 6.72249.03382 10.08851-.06873zm-30.77045-4.36378c-.66638-.00381-1.33502.00684-2.00829.05252.67101-.04016 1.3401-.05242 2.00829-.05252zm29.61184 4.99829c-2.42309-.0025-4.84489.00845-7.26227.07346-.19996.07045-.40211.13053-.60268.19827l3.22868-.00304c.16093-.02016.32174-.04374.48319-.06077 1.25663-.01175 2.52642-.01024 3.79383-.01118zm1.17405-1.96881.00175-.131c-6.98554.08361-13.96278-.1929-20.71163-2.20739-9.92946-1.63979-20.79308-2.81022-30.25932 1.36609-3.14214 2.32356-7.06632 2.40279-10.87069 2.44499l-.00232.24553c4.20931.06776 8.44259-.5445 12.07895-2.8106 11.37557-4.24858 23.9318-2.59537 35.36131.5545 4.74998.64218 9.58788.66756 14.40195.53788zm.00852-.71899.00511-.46144c-2.08014.03399-4.15267.06052-6.15809.03547-8.21872.44374-15.84851-3.5713-24.08501-3.14255-6.89063.15028-14.05855-.05173-20.67779 2.05121-3.35918 2.00388-7.08091 3.01333-10.92679 3.20411l-.00058.1119c4.60368-.05202 9.04688-1.51422 13.1241-3.61407 11.17862-2.33688 23.02963-2.47436 33.97124 1.09173 4.87784.74628 9.81045.83061 14.74781.72364zm.00779-.73001.00395-.34131c-4.46243.01741-8.91531-.15031-13.32975-.7789-9.86801-3.39449-20.44513-2.13257-30.66983-1.91568-6.32839-.20841-11.71194 3.75422-17.84176 4.34467l-.0026.20966c3.89001-.29183 7.67901-1.38672 11.19058-3.1702 8.1718-2.23534 16.84473-1.4064 25.23566-1.50291 6.74176.0553 12.87677 3.88604 19.73201 3.16298 1.88869-.02432 3.78392-.01771 5.68174-.00831zm.01155-.96666.00596-.4909c-6.65252-.23545-13.28575-.83389-19.83762-2.11494-6.90082-.95547-13.87916-.39081-20.82896-.08539.33366.00835.66782.02211 1.00353.04524 8.25349-.2589 16.63893-1.064 24.70606 1.21916 4.94209.74612 9.94078 1.22051 14.95103 1.42683zm-40.66062-2.69123c-1.00846-.02526-2.00772.01591-3.00016.10544.99935-.02769 1.99929-.06146 3.00016-.10544zm-3.00016.10544c-.5423.01503-1.08502.03609-1.62673.04389-5.64397.4051-11.0176 2.58892-16.54653 3.51234l-.00304.24504c6.11681-.77756 12.01269-3.24521 18.1763-3.80127zm43.67348 1.4419.00597-.48827c-7.36193-.29386-14.71163-.89688-22.02829-1.82547-12.54056-.37041-25.52071-1.32103-37.58166 2.87121-.73367.19553-1.47935.35921-2.23029.49656l-.00202.19879c6.16721-.90609 12.08554-3.60536 18.45059-3.40673 11.30197-.82791 22.63159-.12129 33.81806 1.56397 3.16672.27088 6.36292.46765 9.56764.58994zm.01413-1.18685.00465-.43923c-5.79974-.07241-11.58853-.35175-17.34025-1.2597-8.50644-.57666-17.07861-.84613-25.60708-.46301.38656.00834.77432.0232 1.16361.05247 11.08615-.30724 22.18033.13723 33.15017 1.812 2.8709.14182 5.74897.23792 8.6289.29747zm-42.94268-2.16194c-1.31073-.02827-2.60639.05915-3.89218.22143 1.29593-.08997 2.59383-.1631 3.89218-.22143zm-3.89218.22143c-1.10485.0767-2.20874.16218-3.31131.26355-3.91934.59454-7.78133 1.79795-11.68581 2.4723l-.00406.33522c5.04468-.63404 9.94657-2.43312 15.00118-3.07107zm32.41625 8.93189c.47863-.29018.93321-.61413 1.34314-.99916-7.30018-2.80444-15.52877-4.23058-23.22646-3.64701-4.89529.13426-10.44858 1.19619-13.83838 4.52011.11022.054.22146.1044.33241.15623l1.65867-.00163c-.26882-.15271-.52984-.31593-.78184-.49175 3.59387-2.23284 7.85935-3.75136 12.11088-4.1144 7.71177-.47106 15.55475.84331 22.69181 3.78166-.50626.29821-1.02735.55621-1.55465.79693zm14.43572-8.49354.00317-.27762c-3.42249-.06289-6.83022-.24204-10.17008-.75732 3.09263-1.06872 6.63773-1.40021 10.19731-1.5754l.0054-.46687c-3.6548.22184-7.28997.65264-10.87562 1.45046 1.19425 2.19616 6.45091 1.70056 10.83982 1.62675zm.00906-.75618.00304-.28897c-1.55029-.07504-3.09862-.19239-4.64429-.36216 1.49442-.10591 3.06194-.24204 4.65327-.38168l.00559-.5197c-1.69442.17159-3.38249.40528-5.06018.72929 1.16837.597 2.98994.78633 5.04257.82322zm-17.24152 8.85102c.31524-.16561.62595-.34504.9315-.53914-4.21039-1.94205-9.3749-2.74035-14.12621-3.25095-6.10328-.54185 11.15492 1.42963 6.42618 1.11983 2.80148.5324 8.14843 1.86888 5.10361 3.07245l.82107-.00068c.28398-.12538.56666-.2559.84385-.40151zm17.27175-11.49114.00408-.32469c-10.93529.74131-21.81538 2.76916-32.82379 1.97185-9.73692-.36338-19.52261.12761-29.048 2.25962l-.00124.13511c3.29822-.47946 6.58468-1.04124 9.85099-1.64055 14.22605-1.2726 28.59311.86814 42.77401-1.39286 3.07314-.34301 6.15649-.71604 9.24395-1.00848zm-20.76794 11.23914c.8332-.52816.36434-1.02472-.69096-1.45528-.08009.07159-.28884.14105-.68229.20584.18592.18982.2926.3637.34404.52591-1.85232-1.0746-4.49339-1.39784-6.95642-1.49368 3.80765.40338 8.74492 1.85674 2.35167 2.46646-.91929.14444-2.28999.11245-3.82012.00361 2.79901-.09082 5.91117-.25027 4.5637-1.39577-.81891-.20718-2.5164-.27819-3.51561-.27211-1.94319-.48244-6.18065.33948-7.27036 1.04438-1.11882-.12036-2.14456-.21987-2.92353-.25458 2.68283-.82198 5.4549-1.38068 8.24944-1.63417-.10083-.00013-.20848-.0014-.30713-.00137-3.94515.21439-10.44891.54324-10.51453 2.84741.35683.03327.71764.05666 1.07624.08625l12.43459-.01014c2.26038-.24122 4.49273-.63911 6.66381-1.24201.05257.56855-.71409.96029-1.84269 1.23759l1.12769-.00079c.81506-.22254 1.37373-.44283 1.71246-.65755zm-10.65757-2.26076c.35454-.01927.73241-.04179 1.03607-.06044-.42564-.00405-.80905.01066-1.09226.06046.01807-.00001.03804-.00002.05619-.00002zm1.03607-.06044c.04634.00044.08748-.00121.1351-.00019.18982-.01293.37921-.03097.56914-.04107-.17768.01344-.49778.02858-.70424.04126zm.1351-.00019c-.28794.01963-.57648.03592-.86404.062.7457.00097 1.54124.01013 2.36481.04218-.53483-.05666-1.04533-.09444-1.50077-.10418zm8.79544.86611c.25065-.22405-.88614-.47299-2.44756-.70678.92974.20575 1.79989.44254 2.44756.70678zm-2.44756-.70678c-2.01214-.4453-4.29792-.73711-5.21167-.78596-4.98081-.25895 1.39232.21408 5.21167.78596zm23.92051-10.30079.00224-.18662c-6.31866.32201-12.62072 1.02769-18.90132 1.82867-13.69384.84843-27.48904-.21461-41.11184 1.8462-.47612.10145-1.12256.17701-1.85464.23636l-.00129.15534c7.25256-.48408 14.49767-1.6899 21.78443-1.44828 11.40177.11372 22.81698-.1451 34.1018-1.92932 1.98677-.24291 3.98223-.39694 5.98062-.50235zm.00759-.63325.00078-.11289c-7.82941.03823-15.65601.50078-23.45358 1.29398-11.70779.4543-23.49742-.30201-35.09796 1.77197-1.09843.11951-2.20299.20553-3.30925.27736l-.00225.18398c8.80925-.64671 17.56124-2.21933 26.43513-1.75739 11.8421.33412 23.60831-1.49823 35.42713-1.65701zm.02136-1.84627.00237-.22183c-10.93653.46417-21.81224 2.13473-32.78323 1.91976-9.70367-.23625-19.38987.18531-29.07005.74817l-.00461.36452c1.99304-.13098 3.98527-.28087 5.97626-.45428 15.79789-.90376 31.69515.38151 47.42045-1.8367 2.80609-.26872 5.63356-.41234 8.45881-.51964zm-26.51855 14.46492c-.64379.28348-2.61752.51546-4.66669.65789-1.51762-.13111-3.12941-.3157-4.60965-.47954 1.40892-.79621 3.90049-1.09111 5.89103-1.09205-.32261.03853.09602.11553 2.02942.20388 1.57011.25351 1.84197.49578 1.35589.70982zm26.53093-15.56471.00194-.18645c-9.58692.32937-19.17181 1.71744-28.78234 1.54479-11.02375.05933-22.06829-.03983-33.06572.71436l-.00558.43182c.75099-.07867 1.50264-.15089 2.25316-.23407 17.66279-1.05705 35.41947.21977 53.0368-1.83028 2.18019-.19187 4.36994-.34268 6.56174-.44017zm-28.88965 15.52447c.30569-.1596.24117-.32972-.51323-.38317-2.46755-.76816-6.51204.98054-1.72179.65827.86062.1133 1.84343-.07065 2.23502-.2751zm-.28081-.07378c-.28321.33937-6.81909.14121-.99083-.22353l.49427.00432c.39072.08871.54399.16238.49656.21921zm29.18902-17.0863.00204-.13906c-4.71322.48053-9.41241 1.11002-14.08667 1.83219-15.88409 1.4096-31.86659-.25529-47.76606.76251l-.00645.54652c6.35756-.45681 12.72184-.74552 19.1076-.44886 13.33224.33274 26.74264.16882 39.89635-2.26036.94473-.1094 1.89856-.20211 2.85319-.29294zm.02093-1.76168.00237-.22447c-7.8281.30793-15.46004 2.71885-23.27056 3.33233 1.36276-.05907 2.72562-.12049 4.08718-.19731 6.4648-.62117 12.71048-2.34664 19.18101-2.91055zm-23.26819 3.10786c-1.31528.05701-2.63056.10305-3.94671.1441 1.32206.01742 2.63656-.0412 3.94671-.1441zm-3.94671.1441c-.49128-.00648-.98294-.01899-1.4762-.04559-11.06102.18378-22.13797.07738-33.1592-.85638l-.00212.24718c.77562.07741 1.55054.15959 2.32558.24729 10.75243.56307 21.54484.74327 32.31194.4075zm-8.86366 16.49507c-.64276-.03454-.9509-.10854-.64671-.23539.09754.09154.30727.1717.64671.23539zm5.05612-3.32692c-4.79375.10098-10.61614.10972-14.24957 3.37113.37175.11725.74534.22343 1.12066.32376l1.95556-.00167c-.63345-.21261-1.10876-.4955-1.3466-.87657 3.83174-1.97548 8.28824-2.57731 12.51995-2.81665zm-.50539-.50959.00432-.02257c-5.42975-.11233-11.17381.69778-15.88163 3.5304.22863.2592.49123.49008.77832.69927l.79409-.00084c1.49952-3.18286 9.94918-4.14669 14.3049-4.20626zm31.54428-17.38947.00159-.11158c-8.71049.45506-17.12243 3.7148-25.9279 3.61993-11.97691.62678-23.99339.48075-35.92854-.66911l-.00241.20077c2.05914.17393 4.11741.36206 6.17398.57262 13.19387.5035 26.49554.90537 39.6334-.65168 5.36352-.83905 10.64653-2.48553 16.04988-2.96095zm.01157-1.00533.00269-.17017c-9.13394.37897-17.9845 3.61389-27.13433 4.03901 1.22155-.04312 2.44373-.08771 3.66457-.12753 7.90856-.55813 15.59882-3.14528 23.46707-3.74131zm-27.13164 3.86884c-.28648.01012-.57313.01955-.85965.02972.2867-.00762.57355-.01642.85965-.02972zm-.85965.02972c-.89019.02366-1.78268.02302-2.67939-.01487-10.402.17023-20.90175 1.1186-31.18559-.90045l-.00329.21706c2.875.30905 5.74583.65359 8.61169 1.03264 8.41229.27565 16.84092-.03565 25.25658-.33438zm-4.72639 13.40954c-6.76813.10515-14.16374-.05364-19.86525 4.20871-1.6162.8342-4.68295 1.03956-7.46784 1.0963l3.76788-.00312c3.38676-.34856 6.64189-1.2243 9.53135-3.43712 4.48064-1.60559 9.3756-1.61548 14.03386-1.86477zm32.73042-18.38436.00198-.21459c-5.89794.00202-11.74342 1.02894-17.24902 3.23105-9.62391 2.07299-19.59563 1.40703-29.3853 1.55958-5.19231.37174-10.19604-.79407-15.22158-1.8278l-.00463.40055c.79106.17055 1.58005.35808 2.36663.56923 11.12487 1.76058 22.46587.86947 33.67996.67311 8.717.27457 16.52886-4.57792 25.21965-4.3769.16149-.00821.40092-.00902.59231-.01423zm.01215-1.06803.00037-.01778c-6.42445-.34435-12.86562.70991-18.75877 3.29084-12.31315 2.22681-25.09086 2.63136-37.46949.65628-1.86446-.50162-3.74091-.89585-5.62599-1.20661l-.00508.42804c1.52981.25595 3.05464.56819 4.57241.95154 12.78961 1.93057 25.89268 1.34208 38.66238-.37823 5.66945-2.09183 11.50294-4.06119 17.65917-3.72365zm.00656-.54307-.00002-.01053-8.20155.00709c-3.51127.31976-6.95874 1.07943-10.19094 2.61748-14.16675 4.05542-29.17331 2.74032-43.45899-.11051l-.00246.22628c1.99552.29671 3.98401.66747 5.96338 1.13078 12.67117 1.62811 25.98128 2.72626 38.36856-1.08891 5.35525-3.03291 11.5665-2.65731 17.52202-2.77168zm-13.9461.00148-1.80878.00125c-6.40249 3.26216-13.61583 4.2694-20.74335 4.38911-1.3903.0657-2.82405.06802-4.18515.15168 8.8825-.0629 18.27141.02697 26.25225-4.44423.16094-.03608.3235-.06475.48503-.09781zm-4.46298.00333-2.01397.00204c-3.98577 2.36475-9.4865 3.19897-14.21756 3.82807-.97818.05331-1.9575.09033-2.93737.10883-.03393.00017-.06901.00078-.10284.00097.01611.00041.03236.0003.04848.00069-8.15765.14868-16.34881-.90777-24.19975-3.10959l-.00688.58717c3.18277.58941 6.84526.88492 4.40804.87902 6.85458 1.41173 14.22437 2.0263 21.11294 1.65725 6.15146-.00885 12.42843-1.14174 17.90891-3.95445zm-3.41288.00288-1.72947.00174c-5.69452 2.39146-12.00668 3.41152-18.10052 3.46807.35213-.02524.03943-.07406-1.81452-.1195-5.5598-.29965-11.94883-1.52924-16.75869-3.00596.12308-.055.24904-.09928.37263-.15223l-1.29929.19932c5.09647 1.80974 11.06458 2.3662 16.55908 3.0072 1.0356.09336 2.41003.10194 2.8981.07522 6.72728.03728 13.71376-.65367 19.87268-3.47386zm-2.89681.00228-2.50215.00229c.24036.0643.42439.10944.52566.12244-4.9202 1.9258-10.37743 2.53968-15.58023 2.7872.05966.00445.12692.00685.18594.01151-.07495-.00248-.15666-.00631-.23239-.00891-.16903.00797-.34016.01915-.50861.02637 6.10765-.02607 12.52435-.23224 18.11178-2.9409zm-17.60317 2.91453c.0155-.00073.03094-.00186.04645-.0026-1.16294-.08661-2.4392-.13622-3.76223-.19767 1.29158.10058 2.54776.16021 3.71578.20027zm-3.71578-.20027c-3.32238-.25875-6.86223-.81832-9.66373-2.2436.37506-.1626.75501-.30907 1.1372-.44531l-1.86265.00175c-.18003.06101-.36124.11828-.53972.18488 2.51943 1.99343 6.90876 2.31554 10.9289 2.50228zm11.15273 1.14348c-.02398.00317-.04917.007-.07311.01016-.0416.00297-.08367.0027-.12535.00539.0665-.00475.13206-.01061.19846-.01555zm6.91542-3.85489-1.99095.00173c-4.43692 1.27277-9.08473 1.96968-13.66957 2.22847.14244.00183.33738.00823.43453.00716.05376-.00059.08763-.00267.12617-.00408 5.09838-.16762 10.27917-.48997 15.09982-2.23328zm-15.22599 2.23736c-.41373.01341-.82765.02811-1.23998.04032.26805-.01219.53688-.03232.80545-.04748-.66063-.0085-1.72252-.05234-3.01325-.14131 1.17056.2042 2.36285.2883 3.44778.14847zm-3.44778-.14847c-2.49366-.435-4.87214-1.39731-5.81556-1.82941.51058-.08851 1.02489-.16081 1.53777-.2403l-1.47417.00163c-.82493.14708-1.64532.31072-2.45421.51375 1.34307.89756 5.22243 1.34867 8.20617 1.55433zm6.36335 2.39749c-7.31809.32472-14.47984-1.07425-21.56293-2.73753l-.00434.39512c7.10192 1.52815 14.31025 2.68111 21.56727 2.34241zm4.5374-4.00492c.22351-.13445.3602-.29278.40096-.47527l-1.12536.00126c.28928.21251-.22379.50461-2.23859.83938-1.48058.25299-2.98405.39642-4.48711.44268 2.58572-.00057 6.2069-.06028 7.4501-.80805zm-7.4501.80805c-.40958.00009-.72004.00211-1.05709.00166-.00752.00749-.05038.01385-.09429.02001.38348.00203.76751-.00985 1.15138-.02167zm-1.15138.02167c-.32078-.0017-.64116-.00687-.96118-.01836.23529-.00398.71894-.00209 1.05547-.00165.04661-.04637-.64042-.11608-2.56817-.18472-4.43626-.38696-2.4178-.79331.65699-1.09082l-2.00688.00167c-.94119.19488-1.76946.459-2.41075.82646 1.54153.49888 5.6103.555 6.23452.46742zm4.51048-.85438c.28091-.21509-.37953-.39338-2.81944-.29489-1.68173-.14779-4.50123.50725-2.24489.64689 1.83869.41718 4.62143-.01287 5.06433-.352zm-.97114-.0252c-.07964.04845-.61845.11287-1.88364.19161-.72053.2773-1.48421.0176-2.21852.06749-2.19037-.393 4.41216-.44771 4.10216-.2591z" fill="#8d5e3a" opacity=".3" stroke-width=".264583" transform="matrix(-.94670496 -.32210206 1.3759405 -.58815233 172.27578 215.15449)"/></g><path d="m118.92734-102.02766-35.247978 14.853362-4.590934 1.935283.72347 45.570863 12.460222 4.227649 3.694865 1.253673 30.904055 10.48566 3.69435 1.25367 9.21959 3.12798 3.50057.83509 38.62606-16.27756.002-45.45976-.26665-1.338937-3.36776-1.142566-56.95311-19.324407zm-1.09502 4.233338h2.79363l56.29165 19.099093.10748.533818-33.73953 14.218254-3.50057-.701249-55.738715-18.912025zm-33.77882 18.126543 8.217586 2.790011 3.695899 1.25367 5.175915 1.756999 19.98224 6.782015 5.74487 1.950268 3.69486 1.254704 9.22011 3.129525v37.417877l-9.21959-3.20033-3.69538-1.28261-30.903025-10.725956-3.695899-1.283126-8.224821-2.855123zm93.62581 4.770252v37.326404l-34.39376 14.500923v-37.333121z" fill="#8d5e3a" transform="translate(-64.35496 126.40188)"/><g fill="#4a4c4f"><path d="m66.210552 58.628712 35.032118-14.76303-3.694687-1.253567-35.032118 14.763029zm-3.694687 2.638702.0611-3.871539 3.633588 1.232837v3.893033l-.000296 37.347224-3.694324-1.28238z"/><path d="m31.612883 46.895639 35.039395-14.766098-3.639349-1.23479-35.03212 14.763029zm-3.695847 39.682049v-37.053407l.06388-3.866465 3.631966 1.237823v3.882549 37.082141z"/></g></svg>