<svg height="500" viewBox="0 0 500 500" width="500" xmlns="http://www.w3.org/2000/svg" xmlns:xlink="http://www.w3.org/1999/xlink"><linearGradient id="a" gradientTransform="matrix(391.593 0 0 -391.593 60.7962 7618.49)" gradientUnits="userSpaceOnUse" spreadMethod="pad" x1="0" x2="1" y1="0" y2="0"><stop offset="0" stop-color="#a06122"/><stop offset=".511236" stop-color="#efbd76"/><stop offset="1" stop-color="#b57720"/></linearGradient><linearGradient id="b" gradientTransform="matrix(.92382544 0 0 .92238029 -157.17213 -415.40092)" gradientUnits="userSpaceOnUse" spreadMethod="reflect" x1="231.9437" x2="651.0459" xlink:href="#a" y1="524.57825" y2="857.90717"/><linearGradient id="c" gradientTransform="matrix(3.7795275 0 0 3.7795275 168.70524 -1656.2256)" gradientUnits="userSpaceOnUse" spreadMethod="reflect" x1="-13.926189" x2="56.234142" xlink:href="#a" y1="505.79187" y2="527.67462"/><filter id="d" color-interpolation-filters="sRGB" height="1.041293" width="1.026636" x="-.013318" y="-.020646"><feGaussianBlur stdDeviation="1.5370606"/></filter><filter id="e" color-interpolation-filters="sRGB" height="1.033429" width="1.025607" x="-.012804" y="-.016715"><feGaussianBlur stdDeviation="1.5370606"/></filter><filter id="f" color-interpolation-filters="sRGB" height="1.021262" width="1.019333" x="-.009666" y="-.010631"><feGaussianBlur stdDeviation="1.119728"/></filter><filter id="g" color-interpolation-filters="sRGB" height="1.028139" width="1.027902" x="-.013951" y="-.01407"><feGaussianBlur stdDeviation="1.3190438"/></filter><filter id="h" color-interpolation-filters="sRGB" height="1.006366" width="1.005674" x="-.002837" y="-.003183"><feGaussianBlur stdDeviation=".32449015"/></filter><linearGradient id="i" gradientTransform="matrix(3.7795275 0 0 3.7795275 168.70524 -1656.2256)" gradientUnits="userSpaceOnUse" spreadMethod="reflect" x1="-1.75535" x2="48.924618" xlink:href="#a" y1="551.84802" y2="500.85083"/><g stroke="none" transform="translate(.000494 .864027)"><path d="m34.682069 285.61261c9.847983-12.3844 36.348217-34.63625 57.970275-46.8917 23.289296-13.20044 46.133286-21.69503 75.409426-27.62618 23.47696-4.75628 51.45552-6.21104 75.40942-6.2002 23.70615.0107 52.2872.97103 75.40943 6.2002 25.66523 5.80429 51.16981 16.26466 75.40942 27.62618 25.87953 12.13018 56.43961 24.54418 74.17674 43.0097l16.90724-32.08163v-47.73492c0-13.73608-7.53786-21.27614-13.88574-30.44922-5.71868-8.26385-13.29301-15.25234-21.26367-21.37304-18.21025-13.98372-38.50119-25.54723-59.71484-34.33008-9.97481-4.12976-20.71009-6.19173-31.27149-8.42969-13.1561-2.78778-26.52009-4.53927-39.86523-6.20117-23.16711-2.885055-46.38747-6.310478-69.73243-6.53711-23.21097-.225331-46.4339 2.106909-69.44531 5.152344-13.4317 1.777616-26.76585 4.401866-39.92187 7.640626-10.80414 2.65977-21.72502 5.27695-31.95117 9.66211-20.195127 8.66003-39.557981 19.62069-57.320317 32.55664-7.829009 5.70171-15.585445 11.90465-21.410156 19.64258-6.730038 8.94063-14.966804 15.82622-14.966804 30.05078v50.35015z" fill="#86522c"/><path d="m30.624717 199.29889c0-11.60155 18.324207-27.06293 30.673863-37.44769 15.612676-13.12862 34.525606-22.08805 53.29348-30.08074 9.44144-4.02083 19.5213-6.4011 29.48841-8.84333 12.59831-3.08695 25.35998-5.61416 38.21835-7.31972 22.26232-2.95292 44.72877-5.2366 67.18499-5.01541 22.73618.22395 45.34679 3.60349 67.90935 6.41686 12.90625 1.60931 25.82866 3.30915 38.55746 5.98097 9.61577 2.01838 19.39607 3.84535 28.48596 7.57505 19.599 8.04173 39.31858 17.48271 55.19049 31.51384 12.4198 10.97938 29.77039 27.99926 29.77039 39.83603v66.43196c-38.97579-40.57635-92.74591-58.06808-144.68031-72.83609-24.21442-6.88559-50.05848-6.63017-75.23286-6.61536-24.84204.0146-49.73261 2.50318-74.23193 6.61537-11.84439 1.98807-23.55324 4.95243-34.96548 8.69445-19.0312 6.24024-38.18338 12.90637-55.573108 22.84239-19.63798 11.22061-41.473295 25.10258-54.089054 40.96761z" fill="url(#b)"/><path d="m451.62251 251.73198c-36.7502-29.13859-83.3608-43.66455-127.5192-56.22136-24.2144-6.88559-50.05844-6.63017-75.23282-6.61536-24.84204.0146-49.73261 2.50318-74.23193 6.61537-11.84439 1.98807-23.55324 4.95243-34.96548 8.69445-19.0312 6.24024-38.18338 12.90637-55.573114 22.84239-11.86827 6.78121-24.53911 14.53447-35.72027 23.28908v-78.95764c-.14345-14.71384 7.86044-22.27531 12.38736-26.82813 12.70125-12.77392 28.42933-20.42545 43.283204-25.82422 46.50732-16.9035 96.49041-24.135083 145.33594-24.134763 48.85601.00032 98.81651 7.282243 145.32031 24.130863 14.8342 5.37451 30.7099 12.93087 43.4844 25.85156 4.6076 4.66032 13.6041 12.29584 13.4316 26.83789z" fill="#86522c" opacity=".67"/><path d="m14.624993 285.64846c0 18.40512 9.333422 30.98661 19.605466 42.88281 13.363749 15.47675 33.064939 24.46964 51.476562 33.36523 22.266049 10.75786 46.459569 17.12791 70.300779 23.69336 5.69673 1.56878 11.48531 2.85586 17.32813 3.73633 25.19226 3.79629 50.66589 6.61298 76.14258 6.62305 25.68013.0102 51.35122-2.86369 76.75585-6.61524 5.95947-.88005 11.87343-2.13475 17.68555-3.71875 23.89684-6.5127 48.1151-12.94581 70.41797-23.71875 18.41299-8.89402 38.11807-17.88491 51.47852-33.36523 10.26693-11.89596 19.55762-24.50055 19.55762-42.88281v-115.14067c-.24045-19.68156-11.58975-36.49428-24.05371-50.25974-13.86194-15.30941-33.6211-24.924906-52.97656-32.128909-50.16781-18.672203-104.81376-26.766-158.34375-26.765625-53.52946.000375-108.17437 8.095886-158.341797 26.767578-19.355189 7.20376-39.178991 16.759966-52.976562 32.126956-12.641678 14.07962-24.056643 31.00832-24.056648 51.417zm421.613327-114.42575c-.0753 6.34882-5.40046 11.77305-9.84766 16.30468-15.16962 15.45763-35.07674 26.07919-54.9746 34.63086-19.92025 8.56129-41.62635 12.60444-63.0293 16.07227-19.23783 3.11702-38.8277 4.16805-58.31641 4.18164-19.61535.0137-39.28408-1.34509-58.70117-4.12695-21.68976-3.10746-44.11069-5.30443-64.22851-13.98633-19.75955-8.52729-38.466724-20.85691-53.271489-36.47656-4.456277-4.70156-10.042309-10.12203-10.105469-16.59961-.05788-5.93647 4.776967-11.18076 8.96289-15.39063 10.206719-10.26512 23.797279-17.12348 37.402348-22.06836 44.41637-16.14353 92.6119-23.17223 139.87105-23.17192 47.25927.00031 95.43819 7.07551 139.87109 23.17382 13.64979 4.9454 27.3495 11.73169 37.55673 22.05575 4.15828 4.20588 8.88063 9.48731 8.8105 15.40134z" fill="#86522c"/><path d="m61.671719 198.1779c-6.543957-7.7072-13.907268-18.0602-13.907268-26.95564s4.371542-17.84345 13.907268-26.95749c9.53665-9.11311 24.090596-17.90708 42.461791-25.33501 36.74515-14.85217 88.581-24.336999 145.86741-24.336999 57.28642 0 109.12504 9.484829 145.86835 24.338839 18.37211 7.42793 32.92514 16.22098 42.45901 25.33502 9.53665 9.11311 13.91097 18.06205 13.91097 26.95656 0 8.89359-7.17925 19.40993-13.91004 26.95472-12.44884 13.95436-30.54794 21.64446-46.60618 31.22729-4.70981 2.8106-9.43348 5.70828-14.55083 7.68173-21.25735 8.19765-43.73036 13.27954-66.21828 16.93602-20.07863 3.26473-40.52661 4.37098-60.86892 4.38898-20.38225.018-40.82179-1.38573-60.99613-4.28965-22.73647-3.27272-45.67555-7.04438-67.31538-14.74994-5.16057-1.83759-10.0043-4.53897-14.66341-7.4201-16.050902-9.92565-33.223745-19.38846-45.438361-33.77433zm321.712051 56.31494c5.17152-1.82025 10.19926-4.10632 14.98285-6.78499 14.49483-8.11669 28.66798-17.12018 41.2534-27.96398 8.85323-7.62808 18.10352-15.55845 23.74578-25.79232 3.78859-6.87171 6.03166-14.74886 6.03166-22.72744 0-14.6474-7.32501-28.12614-19.1315-39.40962-11.80465-11.28348-28.13049-20.86055-47.91883-28.86127-39.57668-15.998696-93.17334-25.59883-152.34713-25.599291s-112.77045 9.601518-152.34528 25.600211c-19.788341 7.9998-36.115108 17.57686-47.918826 28.86126-11.806489 11.28256-19.111176 24.7613-19.111176 39.40778 0 0 .381727 9.3094 2.038882 13.58482 4.439414 11.45358 11.564745 22.10073 20.244942 30.79251 13.738444 13.75678 31.751816 22.56947 48.693568 32.10734 4.65059 2.61819 9.45362 5.03019 14.46822 6.85684 21.44208 7.81063 43.76248 13.33501 66.2285 17.34083 22.32865 3.98132 45.04313 6.6576 67.72381 6.57744 22.57843-.0798 45.14776-3.03155 67.37052-7.02416 22.3543-4.01624 44.56673-9.42526 65.99061-16.96596zm-352.759052 26.41327v4.74281c0 10.8887 7.6729 23.34509 15.582162 32.27408 12.087857 13.64632 29.513946 21.8679 46.113671 29.40364 21.166969 9.60912 44.898389 16.49884 67.931399 22.83669 5.08799 1.40003 10.25652 2.55426 15.47441 3.34249 24.40272 3.68636 49.07834 6.43325 73.75793 6.44261 24.89586.009 49.78141-2.799 74.4092-6.44261 5.3319-.78884 10.6226-1.91391 15.82331-3.32955 23.07531-6.28112 46.81757-13.23102 68.00884-22.84947 16.60023-7.53463 34.02613-15.75704 46.11367-29.40364 7.90888-8.92897 15.55815-21.38447 15.55815-32.27408v-69.06737c-6.30973 8.00188-19.30021 17.35334-29.77039 24.91224-12.10735 8.74086-25.22629 16.00184-38.1418 23.49718-4.84491 2.81168-9.52423 6.03644-14.75154 8.04989-22.18265 8.54428-45.85164 13.007-69.34057 16.66-22.26181 3.46216-44.87993 4.91103-67.40935 4.91436-22.62105.003-45.34267-1.37416-67.68498-4.91436-23.3791-3.70448-46.79246-8.66728-68.94626-17.00486-5.22454-1.96625-9.98067-5.00963-14.869104-7.70503-12.578129-6.93535-25.497248-13.42383-37.184885-21.77293-10.934446-7.81107-23.389363-17.40533-30.673863-26.30443v32.73521z" fill="url(#b)"/></g><g transform="matrix(-1 0 0 -1 500.08984 621.10936)"><path d="m250.04492 165.32617c-48.60141 0-92.9433 15.3335-125.79101 41.10156-32.847714 25.76807-54.392582 62.79352-54.392582 104.12696s21.544868 78.35693 54.392582 104.125c32.84771 25.76807 77.1896 41.10351 125.79101 41.10351s92.94331-15.33544 125.79102-41.10351 54.39258-62.79156 54.39258-104.125-21.54487-78.35889-54.39258-104.12696c-32.84771-25.76806-77.18961-41.10156-125.79102-41.10156z" fill="#86522c"/><path d="m412.22812 310.55399a162.18382 127.22847 0 0 1 -162.18382 127.22847 162.18382 127.22847 0 0 1 -162.183826-127.22847 162.18382 127.22847 0 0 1 162.183826-127.22847 162.18382 127.22847 0 0 1 162.18382 127.22847z" fill="url(#c)"/><g fill="#b57720" stroke-width="3.77952" transform="matrix(-1 0 0 -1 500.08984 623.10936)"><path d="m226.53125 202.85742c6.03689 8.85533 16.42448 19.19184 26.06167 22.18763 1.22352-9.30805-14.48791-15.21345-20.3273-22.50208-1.25112.4861-9.12641-3.84849-5.73437.31445zm44.67187 11.98633c2.54731 8.62019 15.60581 18.82422 14.74375 24.67293-8.16364-1.03615-22.49544-4.11281-26.68149-1.05507 3.99267 11.19947 14.63799 8.49277 24.17604 10.10134 5.84723-.27382 24.33904 7.97201 15.5922-3.72378-6.27023-10.5957-12.64982-21.64668-22.19182-29.64972-1.345.28246-9.09733-5.23373-5.63868-.3457zm-98.63867 3.40234c-14.95123-1.10262 4.46386 9.50167 10.11531 11.20052 17.91141 8.21964 35.33676 17.90663 49.51731 31.80712 6.11036 7.11413 12.17457 12.10276 18.85188 2.74082 7.00379-5.73818 20.01804-11.61446 6.98997-18.51473-7.30953-1.00398-15.10493 16.90713-22.11479 10.60685-12.93676-12.64831-27.69924-23.46359-44.63691-30.08713-6.18027-2.70286-12.40697-5.46864-18.72277-7.75345zm52.34766 44.69922c.92893 5.68635 11.29462 19.34743 14.5189 9.76153-2.67233-3.87143-13.37809-15.14448-14.5189-9.76153zm98.41211 4.40235c6.27683 11.24224 9.35645 25.83752 20.99068 32.99327 11.68004 3.6257-7.59614-16.26106-7.64611-24.03542-1.10347-4.07123-14.3766-14.49253-13.34457-8.95785zm-50.47461 4.0332c-9.88207-.79168-16.9161 1.82612-8.96479 11.18036 4.9393 10.06797 15.20412 17.2122 26.6308 16.84894-3.81288-5.96704-17.99749-13.46606-15.4735-17.88567 7.9175-3.66885 22.33299 8.05737 23.49306 5.2657-3.76329-11.14072-14.40039-16.38931-25.68557-15.40933zm-34.05859 11.5918c-2.73589 10.73746-1.46049 27.18332-16.55768 22.88593-17.29681 1.36739-27.52228 19.03973-27.89186 35.05337-1.41944 31.16185 12.61216 62.23489 35.01594 83.60757 14.31693 6.81151-1.73608-11.25126-5.33955-15.87021-14.46312-21.28989-24.28166-48.54314-17.69309-74.27105 2.89578-12.99929 16.4687-21.06178 29.27842-18.49996 10.66763 2.80099 10.32267-16.23722 10.78225-22.73892-1.61799-1.74491-7.22603-16.91152-7.59443-10.16673zm58.59765 21.41601c-13.85302.32288-27.96001 19.24421-16.83314 30.85342 2.4054 6.94945-.48298 21.66135 11.83339 24.85722 11.60038 8.27526-4.19048-11.03474-1.99048-17.78681-1.17337-4.35774-.34538-19.48855-2.74002-16.7665-2.3291 2.83273 5.27084-11.12285 10.93142-10.54795 5.34012-1.08008 14.16708-8.08361 4.05253-9.77949-1.65543-.72242-3.47384-.86533-5.2537-.82989zm77.59766 3.53321c3.22502 12.29885 11.96885 24.32053 8.4057 37.99299-.59974 11.64425-10.66265 19.75242-11.80219 30.95622 11.29587-7.35426 22.66106-19.92028 22.34526-34.3037-.83783-12.36687-6.7927-24.15709-14.28532-33.71469-1.28587-.0113-6.52919-5.70968-4.66345-.93082zm-64.01367 6.05664c-13.88156-2.44706-4.05494 20.11679 2.99218 12.1582-1.47686-4.61186 8.26382-1.61703 1.37453.83535-14.88384 6.33812.45288 24.04922 6.94176 23.11054-4.27086-6.65315-5.77012-20.53864 5.94467-13.495 6.45927.64495 14.28836 4.01323 4.32346 7.6883-14.36072 4.20356-18.46066 22.07286-2.36275 27.26553 10.58044 6.09977-7.50008-9.95263 1.62074-13.85759 3.56506-4.63427 8.32772-23.71752 9.87468-8.77977 8.00564 5.05931 25.76552-2.34096 35.53209 7.19621 1.65404-6.03704-11.92094-19.62079-22.43056-15.36515-11.4501 8.08696-11.07922-13.43088-24.16041-11.36014-4.38139-7.63796-9.23861-16.45199-19.65039-15.39648zm17.29882 15.18554c-4.28595 3.31144-10.23597-.49391-4.02685-2.20459 1.34228.73486 2.68457 1.46973 4.02685 2.20459zm-23.4375 17.58203c1.57963 9.59505 15.56019 15.65225 11.0355 3.75935-2.08647-.78242-14.82953-9.60596-11.0355-3.75935zm-2.39843 3.44922c-7.07926 11.77741-5.29508 30.88299 9.05464 36.16796 11.34898 7.04736-4.41997-10.1524-3.82853-15.96825-1.81672-4.24563-1.64478-25.87776-5.22611-20.19971zm45.07617 9.49219c-6.68881 7.56931-17.50101 23.02937-2.67811 28.53384 12.59942 6.01975-9.80932 15.9556-17.49562 14.82823-18.13426-1.18601-33.20138-13.61921-46.17252-25.29798-3.23279-4.62073-17.86811-16.54529-12.13031-4.02698 12.67641 15.00928 27.27133 30.17611 46.20125 36.87562 15.082 3.18076 33.60153 2.45238 43.81579-10.90496 8.35612-5.63962 5.56475-9.36006-2.71875-12.22692-3.57676-1.50747-6.34752 8.87821-7.6447-.17059-6.24849-6.51475 5.38974-28.46034-1.17703-27.61026zm-28.48438 9.73828c-5.77085 5.34455 8.33415 10.59257 4.73903 18.09666-.81426 7.36721 9.92087 17.32976 12.21168 9.28182-.54237-3.45565-9.16763-15.4674-1.82766-11.22809 2.49773-13.13664-6.23791-10.5179-15.12305-16.15039zm6.58985 7.65625c.57542.57715-.79094.62384 0 0zm6.42773 9.95899c-.11789 9.06377 14.0909 12.03919 11.81583 4.49797-1.98351-.92218-15.66915-10.55607-11.81583-4.49797z" fill="#86522c" filter="url(#g)" stroke-width="3.78"/><path d="m236.18359 197.13477c-12.12953-.88133-18.78431 3.28875-6.36523 11.19531 14.11265-2.8753 29.50229.15748 41.26428 8.4837 12.89736 5.88929-2.93316-13.71071-9.55771-14.22363-7.94384-3.48482-16.71059-5.0781-25.34134-5.45538zm-43.23047 11.47461c-10.55545.89616-30.83543 5.87417-34.25434 10.34227 12.06066 9.3842 24.56883.51135 37.73994-.30809 19.87683-.0476 35.22783 14.83545 50.51766 25.70541 10.25513 4.43869 9.18954 11.25216-.39158 15.97237-6.00729 6.66942-28.08315 3.0085-14.62956 13.79443 9.59403 4.87777 24.339-4.83476 31.45458-13.3351 6.52209-15.97535 26.69497-3.47138 39.34119-1.46955 9.00047.62962 21.23523 13.34967 25.91187 11.07992-5.84966-15.43537-24.28113-19.69922-38.51198-23.84947-11.93952-3.03734-23.53646-1.14196-28.0016-14.22157-4.47483-6.0458-15.05004-20.28093-19.82367-16.68499 3.80292 10.23212 13.4116 17.11766 19.44046 26.15015-3.16949 9.75291-16.97406-9.47428-25.32048-13.44102-12.99525-9.09493-26.6506-20.38331-43.47249-19.73476zm-1.61523 31.39648c-34.8149 8.20471-62.56325 35.54548-75.94946 68.10581-12.7886 28.9593-13.50864 63.27109-.37016 92.24412 6.46142 10.3386 14.23236 6.39093 7.15685-4.12547-12.37995-31.32122-6.86709-67.30894 10.31071-95.69588 14.02279-23.54222 33.64656-46.56642 60.70167-54.86647 6.8846-5.5738 6.22835-4.64126-1.84961-5.66211zm94.57813 33.30469c-4.35672 4.27438 9.8846 21.23887-5.59229 15.50696-6.18202-1.86307-20.53519-12.53188-12.13018-.0617 5.70853 10.31813 35.03829 19.01322 29.69691-.0714-.72538-6.82654-5.23439-13.37106-11.97444-15.37394zm-47.0879 9.8457c-2.29543 11.63132 3.74157 23.36785-5.60885 33.78725 1.98762 12.17689 10.25943 23.64685 16.89711 34.29734 7.32828 9.70056 14.58738 20.50125 24.57907 27.39729 11.81217 3.88868-5.49072-13.52223-8.58177-17.36904-9.42996-11.79327-17.38175-24.84349-22.98087-38.88823 7.10161-9.88794 9.09158-22.8149 1.34599-33.00736-1.33147-.85308-5.70085-13.21095-5.65068-6.21725zm97.77344 7.60352c4.31264 11.07719 16.22044 16.89574 26.18579 22.22328 6.91875 4.27272 29.17746 10.14862 17.23999-4.41469-14.81862-1.04324-27.507-9.76521-39.12969-17.99577-1.27704.22928-7.5766-4.47786-4.29609.18718zm-38.97656 13.63476c-15.94382 6.12712-.32566 23.06033-1.32046 33.60255 1.50954 6.52054 18.01234 18.73966 3.14011 14.73995-6.5376-2.01554-24.46369-11.31977-13.99196 2.35349 5.97959 5.41052 13.14809 4.69486 16.59736 10.3713 5.16131-16.05114 6.66697 8.00112 16.65674 7.55327 8.76092 4.35539-9.13255-18.91094-1.49887-14.83245 5.7283 17.2751 25.55287 15.44482 37.40341 6.17086-12.30354-3.13535-26.17-.16127-36.8705-8.65584-.19413-6.77915-18.16132-12.53158-11.02208-24.75041-5.31639-2.1553-8.74985-17.65926-4.22623-14.77725-.0747 16.09992 22.85932 8.81418 22.35318 24.89635-7.51283-1.14715-23.36957-15.55771-15.11356-.46426 5.61117 10.11696 19.92736 9.75494 29.83971 8.15646 2.70659-5.27892-19.10266-3.92044-11.96979-14.15266 4.91353-11.02554-11.18815-23.49819-15.49223-22.36146 2.85972 5.38097 9.27763 15.72148-.43773 7.9166-7.57527-4.0807-8.76203-6.92215-5.27279-12.88992-2.46178-1.89679-5.65208-3.01955-8.77431-2.87658zm-21.58008 23.73828c-.12917 11.44534 27.76283 12.6667 11.91602 3.9883-2.03908-.35535-17.14169-10.61499-11.91602-3.9883zm55.66602 2.66602c5.87102 5.05442 7.58286 22.8684 15.50687 20.72912 4.97158-9.86604-13.62906-27.08268-15.50687-20.72912zm33.80078 11.04883c-2.55467 8.10536 8.90967 20.9975 7.60951 31.9914 7.99377 6.47333 7.16952-16.91608 3.57681-21.73877-2.17019-4.64739-6.09373-8.9213-11.18632-10.25263zm-65.7168 31.61718c2.28169 13.84965 19.07444 13.96028 27.8764 12.23387 9.99036 7.23345-10.1657.37618-1.26729 9.42767 8.31413 14.3591 20.12428-12.30741 30.58463-1.38345 9.96606-2.08116-12.45231-15.00452-17.7226-17.50901-9.5562-6.13208.97132 13.39916 8.10584 13.2311.39229 1.63213-12.94 1.55034-12.79872-5.98227 3.24599-7.7734-14.35564-15.86462-10.8017-5.64681-7.25941 2.16717-24.29377-7.86207-23.97656-4.3711zm-76.82422 41.83204c5.88725 12.89145 20.18143 20.17301 32.5777 25.97081 11.3503 5.33303 22.44754 11.57068 35.15277 6.88856-17.45639-8.7712-36.52063-14.51017-52.91629-25.2381-3.3581-2.18451-14.48104-13.11666-14.81418-7.62127z" fill="#efbd76" filter="url(#f)" stroke-width="3.78"/><path d="m239.23438 204.17383c-3.96918.2041-8.51368.98242-8.51368.98242s13.09218 10.57294 18.88086 16.64648c5.43044 5.69768 14.74805 18.44141 14.74805 18.44141s1.64789.00874 2.4668.02344c8.98793.19427 26.47461 3.58203 26.47461 3.58203s-12.87127-23.92901-23.60547-31.45313c-7.66517-5.37287-17.55804-7.16816-26.86328-8.18554-1.00555-.10994-2.26484-.10515-3.58789-.03711zm-43.29297 11.46679c-8.16036.2707-23.85938 5.54297-23.85938 5.54297s26.74962 10.43931 38.76953 18.1211c10.22834 6.53682 27.84961 23.46289 27.84961 23.46289l18.13672-14.33789s-28.02624-23.52366-44.74609-30.15235c-5.07052-2.01023-10.69893-2.81755-16.15039-2.63672zm.44531 26.25391c-19.61118 3.36265-39.43821 20.08076-52.75781 36.91016-17.44431 22.04097-30.90774 50.24591-31.17579 78.35351-.1555 16.30817 2.7068 30.64334 8.97461 45.32032 2.70247 2.44957 5.47492 4.84341 8.38086 7.12304 31.09853 24.39588 73.54282 39.18164 120.23633 39.18164 8.93883 0 17.71733-.55219 26.29492-1.59961l-17.81054-8.00976c-66.48659-24.07282-85.97064-141.52933-23.32227-129.78125 2.90445-7.04665 5.48242-20.62891 5.48242-20.62891s6.19441 10.20008 6.1836 15.88086c-.0121 6.34636-4.83694 11.88464-6.97657 17.71485 16.33911 42.4073 56.60268 79.94495 84.32618 83.67968.45524.0151.94736-.00126 1.46875-.04492 8.46553.51492 17.84039-2.09983 25.97461-11.0957l3.97265-4.39453-5.21094-2.81446c-3.23723-1.74871-7.11021-3.52961-9.03906-5.43554-.96415-.95324-1.3895-1.72627-1.52929-2.58399-.14022-.85818-.06467-2.10297 1.10937-4.26758l5.31055-9.77929-10.6875 3.0957c-3.13629.90796-8.60998-1.50828-11.55469-5.32813-1.47265-1.91039-2.19406-3.93385-2.18359-5.39453.0113-1.46164.35994-2.54867 2.36328-4.0039l9.67773-7.02735-11.88281-1.35351c-4.9621-.56565-8.14409-3.31323-9.53711-6.11719-1.39401-2.80293-1.15069-5.01615.68359-6.62109l6.07227-5.3125-7.64063-2.58985c-3.34173-1.13231-5.12199-3.75775-5.15234-5.28906-.0151-.68307.11782-1.32609.91602-2.22656 5.43775-1.18904 10.57667-.22493 13.9746 3.16992 3.06165 3.05767 4.15379 7.5277 3.47071 12.35547 4.2537-1.12134 8.45038-.80453 11.99609 1.24023 4.64671 2.68006 7.28601 7.80625 7.79492 13.91211 7.56809-5.04071 15.99533-6.33 22.51758-2.56836 7.69492 4.43777 10.62746 14.68305 8.36133 25.7461 11.93616-16.59427 17.20818-37.66912 2.79492-59.91407-23.24644-2.20996-40.643-15.26254-46.41406-33.65234-2.50046-7.96803-10.58986-14.26262-20.91602-18.80273-14.81566-5.33061-27.6685-8.579-41.0957-9.22852-1.12145-.008-2.24825-.04087-3.34375-.04687-4.74473 11.37995-14.25897 19.85046-28.57422 22.9121l-2.93945.62891-1.77735-2.41992c-7.07254-9.61677-20.51268-20.12601-36.8164-28.89258zm77.7168 32.46875c13.89407-.0381 22.32649 5.77867 20.9414 22.11328-17.83258 1.68654-25.83815-8.29922-31.38086-21.20898 3.73477-.57464 7.23278-.89556 10.43946-.9043zm24.08398 33.01563c1.84428.0345 3.55259.49395 4.98242 1.39843-.75122.54826-1.44246 1.13537-2.07031 1.76368-2.60988 2.60695-4.02219 6.03074-3.95703 9.32421.0911 4.63775 2.62013 8.54808 6.30664 11.22266-1.56215 4.03125-1.21868 8.68379.70117 12.54688 1.89702 3.81489 5.24241 7.10212 9.60156 9.15429-.7189 1.67467-1.18092 3.41336-1.19336 5.13867-.0302 4.18254 1.68092 7.98051 4.11524 11.13868 3.37908 4.38304 8.3892 7.92807 13.94336 8.91015-.0907 1.08461-.10137 2.15568.0664 3.1875.52241 3.2059 2.24706 5.80263 4.16993 7.70313 1.69651 1.6766 3.57608 2.92938 5.37109 3.97461-3.15666 2.38408-6.17521 3.51181-9.26172 3.87695-3.24125-3.9487-4.83085-9.49428-4.68164-15.64844-5.8541 3.07306-12.04437 3.56051-16.97461.7168-7.29739-4.20892-9.64808-14.44716-6.56055-25.04102-5.63973 1.3781-11.01057.45764-14.52148-3.05078-4.41536-4.41036-4.74346-11.75261-1.53906-18.8789-1.8288-.30614-3.46369-1.07844-4.73828-2.35157-4.38203-4.37706-2.87212-12.98002 3.37109-19.21679 3.90194-3.89794 8.72838-5.94773 12.86914-5.86914z" fill="url(#i)" filter="url(#h)"/><path d="m239.23438 204.17383c-3.96918.2041-8.51368.98242-8.51368.98242s13.09218 10.57294 18.88086 16.64648c5.43044 5.69768 14.74805 18.44141 14.74805 18.44141s1.64789.00874 2.4668.02344c8.98793.19427 26.47461 3.58203 26.47461 3.58203s-12.87127-23.92901-23.60547-31.45313c-7.66517-5.37287-17.55804-7.16816-26.86328-8.18554-1.00555-.10994-2.26484-.10515-3.58789-.03711zm-43.29297 11.46679c-8.16036.2707-23.85938 5.54297-23.85938 5.54297s26.74962 10.43931 38.76953 18.1211c10.22834 6.53682 27.84961 23.46289 27.84961 23.46289l18.13672-14.33789s-28.02624-23.52366-44.74609-30.15235c-5.07052-2.01023-10.69893-2.81755-16.15039-2.63672zm.44531 26.25391c-19.61118 3.36265-39.43821 20.08076-52.75781 36.91016-17.44431 22.04097-30.90774 50.24591-31.17579 78.35351-.1555 16.30817 2.7068 30.64334 8.97461 45.32032 2.70247 2.44957 5.47492 4.84341 8.38086 7.12304 31.09853 24.39588 73.54282 39.18164 120.23633 39.18164 8.93883 0 17.71733-.55219 26.29492-1.59961l-17.81054-8.00976c-66.48659-24.07282-85.97064-141.52933-23.32227-129.78125 2.90445-7.04665 5.48242-20.62891 5.48242-20.62891s6.19441 10.20008 6.1836 15.88086c-.0121 6.34636-4.83694 11.88464-6.97657 17.71485 16.33911 42.4073 56.60268 79.94495 84.32618 83.67968.45524.0151.94736-.00126 1.46875-.04492 8.46553.51492 17.84039-2.09983 25.97461-11.0957l3.97265-4.39453-5.21094-2.81446c-3.23723-1.74871-7.11021-3.52961-9.03906-5.43554-.96415-.95324-1.3895-1.72627-1.52929-2.58399-.14022-.85818-.06467-2.10297 1.10937-4.26758l5.31055-9.77929-10.6875 3.0957c-3.13629.90796-8.60998-1.50828-11.55469-5.32813-1.47265-1.91039-2.19406-3.93385-2.18359-5.39453.0113-1.46164.35994-2.54867 2.36328-4.0039l9.67773-7.02735-11.88281-1.35351c-4.9621-.56565-8.14409-3.31323-9.53711-6.11719-1.39401-2.80293-1.15069-5.01615.68359-6.62109l6.07227-5.3125-7.64063-2.58985c-3.34173-1.13231-5.12199-3.75775-5.15234-5.28906-.0151-.68307.11782-1.32609.91602-2.22656 5.43775-1.18904 10.57667-.22493 13.9746 3.16992 3.06165 3.05767 4.15379 7.5277 3.47071 12.35547 4.2537-1.12134 8.45038-.80453 11.99609 1.24023 4.64671 2.68006 7.28601 7.80625 7.79492 13.91211 7.56809-5.04071 15.99533-6.33 22.51758-2.56836 7.69492 4.43777 10.62746 14.68305 8.36133 25.7461 11.93616-16.59427 17.20818-37.66912 2.79492-59.91407-23.24644-2.20996-40.643-15.26254-46.41406-33.65234-2.50046-7.96803-10.58986-14.26262-20.91602-18.80273-14.81566-5.33061-27.6685-8.579-41.0957-9.22852-1.12145-.008-2.24825-.04087-3.34375-.04687-4.74473 11.37995-14.25897 19.85046-28.57422 22.9121l-2.93945.62891-1.77735-2.41992c-7.07254-9.61677-20.51268-20.12601-36.8164-28.89258zm77.7168 32.46875c13.89407-.0381 22.32649 5.77867 20.9414 22.11328-17.83258 1.68654-25.83815-8.29922-31.38086-21.20898 3.73477-.57464 7.23278-.89556 10.43946-.9043zm24.08398 33.01563c1.84428.0345 3.55259.49395 4.98242 1.39843-.75122.54826-1.44246 1.13537-2.07031 1.76368-2.60988 2.60695-4.02219 6.03074-3.95703 9.32421.0911 4.63775 2.62013 8.54808 6.30664 11.22266-1.56215 4.03125-1.21868 8.68379.70117 12.54688 1.89702 3.81489 5.24241 7.10212 9.60156 9.15429-.7189 1.67467-1.18092 3.41336-1.19336 5.13867-.0302 4.18254 1.68092 7.98051 4.11524 11.13868 3.37908 4.38304 8.3892 7.92807 13.94336 8.91015-.0907 1.08461-.10137 2.15568.0664 3.1875.52241 3.2059 2.24706 5.80263 4.16993 7.70313 1.69651 1.6766 3.57608 2.92938 5.37109 3.97461-3.15666 2.38408-6.17521 3.51181-9.26172 3.87695-3.24125-3.9487-4.83085-9.49428-4.68164-15.64844-5.8541 3.07306-12.04437 3.56051-16.97461.7168-7.29739-4.20892-9.64808-14.44716-6.56055-25.04102-5.63973 1.3781-11.01057.45764-14.52148-3.05078-4.41536-4.41036-4.74346-11.75261-1.53906-18.8789-1.8288-.30614-3.46369-1.07844-4.73828-2.35157-4.38203-4.37706-2.87212-12.98002 3.37109-19.21679 3.90194-3.89794 8.72838-5.94773 12.86914-5.86914z" fill="#b57720" filter="url(#h)" opacity=".33" stroke-width="3.77952"/></g><path d="m421.22852 310.55469c0-38.23321-19.84874-72.65098-50.94727-97.04688-31.09853-24.39588-73.54282-39.18164-118.83211-39.18164s-76.85226 18.06483-107.21434 39.86945c26.72043-17.39486 60.53711-25.73511 91.97614-24.8421 41.94192 1.19134 84.90761 18.85584 117.40429 45.39843 26.61455 21.73819 54.28892 52.45521 55.63086 86.79297.41565 10.63549-2.06331 21.28718-6.38451 31.4538 6.7064-14.49316 18.36694-26.01779 18.36694-42.44403z" fill="#86522c" filter="url(#d)" opacity=".75"/><path d="m265.0625 430.77344c-42.20059-.97468-85.95319-17.64694-118.58984-44.41797-26.61958-21.83537-53.354452-53.3613-54.445316-87.77344-.85728-27.04353 16.520406-54.09163 36.974606-72.50195-27.73597 24.01271-50.140622 48.68202-50.140622 84.47461 0 38.23317 19.848772 72.64904 50.947262 97.04492 31.0985 24.39586 73.54288 39.18359 120.23633 39.18359 46.69346 0 85.83705-23.81312 116.93555-48.20898-27.74871 22.35666-66.3342 33.02107-101.91797 32.19922z" fill="#efbd76" filter="url(#e)" opacity=".75" stroke-width="3.77953"/><path d="m250.04492 165.32617c-48.60136 0-92.94334 15.33353-125.79101 41.10156-32.847685 25.76805-54.392582 62.79356-54.392582 104.12696s21.544897 78.35695 54.392582 104.125c32.84767 25.76804 77.18965 41.10351 125.79101 41.10351s92.94334-15.33547 125.79102-41.10351c32.84767-25.76805 54.39258-62.7916 54.39258-104.125s-21.54491-78.35891-54.39258-104.12696c-32.84768-25.76803-77.18966-41.10156-125.79102-41.10156zm0 18a162.18382 127.22847 0 0 1 162.1836 127.22852 162.18382 127.22847 0 0 1 -162.1836 127.22851 162.18382 127.22847 0 0 1 -162.183592-127.22851 162.18382 127.22847 0 0 1 162.183592-127.22852z" fill="#86522c"/></g></svg>