<svg height="500" viewBox="0 0 500 500" width="500" xmlns="http://www.w3.org/2000/svg" xmlns:xlink="http://www.w3.org/1999/xlink"><linearGradient id="a" gradientTransform="matrix(391.593 0 0 -391.593 60.7962 7618.49)" gradientUnits="userSpaceOnUse" spreadMethod="pad" x1="0" x2="1" y1="0" y2="0"><stop offset="0" stop-color="#a06122"/><stop offset=".511236" stop-color="#efbd76"/><stop offset="1" stop-color="#b57720"/></linearGradient><linearGradient id="b" gradientTransform="matrix(.92382544 0 0 .92238029 -157.17213 -415.40092)" gradientUnits="userSpaceOnUse" spreadMethod="reflect" x1="231.9437" x2="651.0459" xlink:href="#a" y1="524.57825" y2="857.90717"/><linearGradient id="c" gradientTransform="matrix(3.7795275 0 0 3.7795275 168.70524 -1656.2256)" gradientUnits="userSpaceOnUse" spreadMethod="reflect" x1="-13.926189" x2="56.234142" xlink:href="#a" y1="505.79187" y2="527.67462"/><filter id="d" color-interpolation-filters="sRGB" height="1.030603" width="1.01974" x="-.00987" y="-.015302"><feGaussianBlur stdDeviation="1.1391657"/></filter><filter id="e" color-interpolation-filters="sRGB" height="1.027665" width="1.021192" x="-.010596" y="-.013833"><feGaussianBlur stdDeviation="1.2720557"/></filter><linearGradient id="f" gradientTransform="matrix(3.7795275 0 0 3.7795275 168.70524 -1656.2256)" gradientUnits="userSpaceOnUse" spreadMethod="reflect" x1="-6.913856" x2="50.649361" xlink:href="#a" y1="544.22717" y2="498.66528"/><filter id="g" color-interpolation-filters="sRGB" height="1.029287" width="1.022324" x="-.011162" y="-.014644"><feGaussianBlur stdDeviation="1.1996592"/></filter><filter id="h" color-interpolation-filters="sRGB" height="1.029286" width="1.022314" x="-.011157" y="-.014643"><feGaussianBlur stdDeviation="1.1996592"/></filter><filter id="i" color-interpolation-filters="sRGB" height="1.027853" width="1.021083" x="-.010542" y="-.013927"><feGaussianBlur stdDeviation="1.1240074"/></filter><g stroke="none" transform="translate(.000494 .864027)"><path d="m34.682069 285.61261c9.847983-12.3844 36.348217-34.63625 57.970275-46.8917 23.289296-13.20044 46.133286-21.69503 75.409426-27.62618 23.47696-4.75628 51.45552-6.21104 75.40942-6.2002 23.70615.0107 52.2872.97103 75.40943 6.2002 25.66523 5.80429 51.16981 16.26466 75.40942 27.62618 25.87953 12.13018 56.43961 24.54418 74.17674 43.0097l16.90724-32.08163v-47.73492c0-13.73608-7.53786-21.27614-13.88574-30.44922-5.71868-8.26385-13.29301-15.25234-21.26367-21.37304-18.21025-13.98372-38.50119-25.54723-59.71484-34.33008-9.97481-4.12976-20.71009-6.19173-31.27149-8.42969-13.1561-2.78778-26.52009-4.53927-39.86523-6.20117-23.16711-2.885055-46.38747-6.310478-69.73243-6.53711-23.21097-.225331-46.4339 2.106909-69.44531 5.152344-13.4317 1.777616-26.76585 4.401866-39.92187 7.640626-10.80414 2.65977-21.72502 5.27695-31.95117 9.66211-20.195127 8.66003-39.557981 19.62069-57.320317 32.55664-7.829009 5.70171-15.585445 11.90465-21.410156 19.64258-6.730038 8.94063-14.966804 15.82622-14.966804 30.05078v50.35015z" fill="#86522c"/><path d="m30.624717 199.29889c0-11.60155 18.324207-27.06293 30.673863-37.44769 15.612676-13.12862 34.525606-22.08805 53.29348-30.08074 9.44144-4.02083 19.5213-6.4011 29.48841-8.84333 12.59831-3.08695 25.35998-5.61416 38.21835-7.31972 22.26232-2.95292 44.72877-5.2366 67.18499-5.01541 22.73618.22395 45.34679 3.60349 67.90935 6.41686 12.90625 1.60931 25.82866 3.30915 38.55746 5.98097 9.61577 2.01838 19.39607 3.84535 28.48596 7.57505 19.599 8.04173 39.31858 17.48271 55.19049 31.51384 12.4198 10.97938 29.77039 27.99926 29.77039 39.83603v66.43196c-38.97579-40.57635-92.74591-58.06808-144.68031-72.83609-24.21442-6.88559-50.05848-6.63017-75.23286-6.61536-24.84204.0146-49.73261 2.50318-74.23193 6.61537-11.84439 1.98807-23.55324 4.95243-34.96548 8.69445-19.0312 6.24024-38.18338 12.90637-55.573108 22.84239-19.63798 11.22061-41.473295 25.10258-54.089054 40.96761z" fill="url(#b)"/><path d="m451.62251 251.73198c-36.7502-29.13859-83.3608-43.66455-127.5192-56.22136-24.2144-6.88559-50.05844-6.63017-75.23282-6.61536-24.84204.0146-49.73261 2.50318-74.23193 6.61537-11.84439 1.98807-23.55324 4.95243-34.96548 8.69445-19.0312 6.24024-38.18338 12.90637-55.573114 22.84239-11.86827 6.78121-24.53911 14.53447-35.72027 23.28908v-78.95764c-.14345-14.71384 7.86044-22.27531 12.38736-26.82813 12.70125-12.77392 28.42933-20.42545 43.283204-25.82422 46.50732-16.9035 96.49041-24.135083 145.33594-24.134763 48.85601.00032 98.81651 7.282243 145.32031 24.130863 14.8342 5.37451 30.7099 12.93087 43.4844 25.85156 4.6076 4.66032 13.6041 12.29584 13.4316 26.83789z" fill="#86522c" opacity=".67"/><path d="m14.624993 285.64846c0 18.40512 9.333422 30.98661 19.605466 42.88281 13.363749 15.47675 33.064939 24.46964 51.476562 33.36523 22.266049 10.75786 46.459569 17.12791 70.300779 23.69336 5.69673 1.56878 11.48531 2.85586 17.32813 3.73633 25.19226 3.79629 50.66589 6.61298 76.14258 6.62305 25.68013.0102 51.35122-2.86369 76.75585-6.61524 5.95947-.88005 11.87343-2.13475 17.68555-3.71875 23.89684-6.5127 48.1151-12.94581 70.41797-23.71875 18.41299-8.89402 38.11807-17.88491 51.47852-33.36523 10.26693-11.89596 19.55762-24.50055 19.55762-42.88281v-115.14067c-.24045-19.68156-11.58975-36.49428-24.05371-50.25974-13.86194-15.30941-33.6211-24.924906-52.97656-32.128909-50.16781-18.672203-104.81376-26.766-158.34375-26.765625-53.52946.000375-108.17437 8.095886-158.341797 26.767578-19.355189 7.20376-39.178991 16.759966-52.976562 32.126956-12.641678 14.07962-24.056643 31.00832-24.056648 51.417zm421.613327-114.42575c-.0753 6.34882-5.40046 11.77305-9.84766 16.30468-15.16962 15.45763-35.07674 26.07919-54.9746 34.63086-19.92025 8.56129-41.62635 12.60444-63.0293 16.07227-19.23783 3.11702-38.8277 4.16805-58.31641 4.18164-19.61535.0137-39.28408-1.34509-58.70117-4.12695-21.68976-3.10746-44.11069-5.30443-64.22851-13.98633-19.75955-8.52729-38.466724-20.85691-53.271489-36.47656-4.456277-4.70156-10.042309-10.12203-10.105469-16.59961-.05788-5.93647 4.776967-11.18076 8.96289-15.39063 10.206719-10.26512 23.797279-17.12348 37.402348-22.06836 44.41637-16.14353 92.6119-23.17223 139.87105-23.17192 47.25927.00031 95.43819 7.07551 139.87109 23.17382 13.64979 4.9454 27.3495 11.73169 37.55673 22.05575 4.15828 4.20588 8.88063 9.48731 8.8105 15.40134z" fill="#86522c"/><path d="m61.671719 198.1779c-6.543957-7.7072-13.907268-18.0602-13.907268-26.95564s4.371542-17.84345 13.907268-26.95749c9.53665-9.11311 24.090596-17.90708 42.461791-25.33501 36.74515-14.85217 88.581-24.336999 145.86741-24.336999 57.28642 0 109.12504 9.484829 145.86835 24.338839 18.37211 7.42793 32.92514 16.22098 42.45901 25.33502 9.53665 9.11311 13.91097 18.06205 13.91097 26.95656 0 8.89359-7.17925 19.40993-13.91004 26.95472-12.44884 13.95436-30.54794 21.64446-46.60618 31.22729-4.70981 2.8106-9.43348 5.70828-14.55083 7.68173-21.25735 8.19765-43.73036 13.27954-66.21828 16.93602-20.07863 3.26473-40.52661 4.37098-60.86892 4.38898-20.38225.018-40.82179-1.38573-60.99613-4.28965-22.73647-3.27272-45.67555-7.04438-67.31538-14.74994-5.16057-1.83759-10.0043-4.53897-14.66341-7.4201-16.050902-9.92565-33.223745-19.38846-45.438361-33.77433zm321.712051 56.31494c5.17152-1.82025 10.19926-4.10632 14.98285-6.78499 14.49483-8.11669 28.66798-17.12018 41.2534-27.96398 8.85323-7.62808 18.10352-15.55845 23.74578-25.79232 3.78859-6.87171 6.03166-14.74886 6.03166-22.72744 0-14.6474-7.32501-28.12614-19.1315-39.40962-11.80465-11.28348-28.13049-20.86055-47.91883-28.86127-39.57668-15.998696-93.17334-25.59883-152.34713-25.599291s-112.77045 9.601518-152.34528 25.600211c-19.788341 7.9998-36.115108 17.57686-47.918826 28.86126-11.806489 11.28256-19.111176 24.7613-19.111176 39.40778 0 0 .381727 9.3094 2.038882 13.58482 4.439414 11.45358 11.564745 22.10073 20.244942 30.79251 13.738444 13.75678 31.751816 22.56947 48.693568 32.10734 4.65059 2.61819 9.45362 5.03019 14.46822 6.85684 21.44208 7.81063 43.76248 13.33501 66.2285 17.34083 22.32865 3.98132 45.04313 6.6576 67.72381 6.57744 22.57843-.0798 45.14776-3.03155 67.37052-7.02416 22.3543-4.01624 44.56673-9.42526 65.99061-16.96596zm-352.759052 26.41327v4.74281c0 10.8887 7.6729 23.34509 15.582162 32.27408 12.087857 13.64632 29.513946 21.8679 46.113671 29.40364 21.166969 9.60912 44.898389 16.49884 67.931399 22.83669 5.08799 1.40003 10.25652 2.55426 15.47441 3.34249 24.40272 3.68636 49.07834 6.43325 73.75793 6.44261 24.89586.009 49.78141-2.799 74.4092-6.44261 5.3319-.78884 10.6226-1.91391 15.82331-3.32955 23.07531-6.28112 46.81757-13.23102 68.00884-22.84947 16.60023-7.53463 34.02613-15.75704 46.11367-29.40364 7.90888-8.92897 15.55815-21.38447 15.55815-32.27408v-69.06737c-6.30973 8.00188-19.30021 17.35334-29.77039 24.91224-12.10735 8.74086-25.22629 16.00184-38.1418 23.49718-4.84491 2.81168-9.52423 6.03644-14.75154 8.04989-22.18265 8.54428-45.85164 13.007-69.34057 16.66-22.26181 3.46216-44.87993 4.91103-67.40935 4.91436-22.62105.003-45.34267-1.37416-67.68498-4.91436-23.3791-3.70448-46.79246-8.66728-68.94626-17.00486-5.22454-1.96625-9.98067-5.00963-14.869104-7.70503-12.578129-6.93535-25.497248-13.42383-37.184885-21.77293-10.934446-7.81107-23.389363-17.40533-30.673863-26.30443v32.73521z" fill="url(#b)"/></g><g transform="matrix(-1 0 0 -1 500.08984 621.10936)"><path d="m250.04492 165.32617c-48.60141 0-92.9433 15.3335-125.79101 41.10156-32.847714 25.76807-54.392582 62.79352-54.392582 104.12696s21.544868 78.35693 54.392582 104.125c32.84771 25.76807 77.1896 41.10351 125.79101 41.10351s92.94331-15.33544 125.79102-41.10351 54.39258-62.79156 54.39258-104.125-21.54487-78.35889-54.39258-104.12696c-32.84771-25.76806-77.18961-41.10156-125.79102-41.10156z" fill="#86522c"/><path d="m412.22812 310.55399a162.18382 127.22847 0 0 1 -162.18382 127.22847 162.18382 127.22847 0 0 1 -162.183826-127.22847 162.18382 127.22847 0 0 1 162.183826-127.22847 162.18382 127.22847 0 0 1 162.18382 127.22847z" fill="url(#c)"/><g stroke-width="1.11768" transform="matrix(-.89471223 0 0 -.89471223 471.64436 587.25368)"><path d="m369.1875 234.57422c-25.96016 28.92126-57.54283 53.08671-93.21289 68.7539 7.61921-13.99938-4.08177-33.15859-20.18833-32.36584-16.08478-.65142-27.79306 18.63427-19.90933 32.61389-36.74453-15.92941-68.9113-41.09042-95.56836-70.77344-2.79871 17.37083 5.72113 34.54178 19.04762 45.38032 14.93679 12.98152 32.53545 22.37938 49.97973 31.5025-28.62151-6.06593-55.76141-18.00747-80.48438-33.52305.13687 17.83205 13.814 32.50294 29.88405 38.51187 16.80686 7.10976 34.88478 10.42009 52.78197 13.48774-28.59998 3.29823-57.7596.78372-85.53439-6.68621 3.70673 15.05698 17.56174 25.66564 32.71249 27.12128 17.28391 2.42572 34.7759.11486 51.93132-2.27882-24.80644 10.60457-51.45121 16.84673-78.38281 18.41211 6.63029 12.4621 21.2549 18.8003 34.95925 16.11086 22.40732-3.59821 42.72074-14.56469 62.81028-24.56594 5.96847 6.88272-9.02978 14.18829-12.40599 21.27132-4.00401 7.27227-16.48987 12.64742-11.99281 21.82239 2.76498 8.7749 2.52752 22.89834 14.70829 14.88561 11.08349-.44154 15.359-7.19761 15.59859-17.696 2.15024-10.2937 4.30124-20.58724 6.4513-30.88098 13.46256.47164 3.01065 14.7977 3.14222 23.18628-.39335 8.51203-6.80191 18.56864-3.02733 26.00999 6.24483 4.56802 12.38427 22.58433 18.75425 10.01582 6.79065-7.00376 14.55597-13.76012 8.8216-23.95825-2.53214-11.10549-5.06486-22.21085-7.59699-33.31634 12.09676-7.77203 8.67442 11.76432 12.39172 19.10537 3.30884 7.98881 1.6083 20.60648 8.30608 25.46332 7.72081.80699 21.30053 11.89014 20.69169-1.90411 2.54837-9.46532 6.65446-19.31242-3.34021-25.69726-7.37647-8.53661-14.75289-17.07328-22.12936-25.60989 6.50193-5.45928 16.11034 6.22839 24.12608 7.79627 18.0763 7.7416 37.55925 17.60192 57.7297 13.31646 7.02897-1.52029 17.48265-9.95777 17.68375-15.43353-26.56147-1.6407-52.81862-7.88137-77.29148-18.33155 21.81305 2.60085 45.3881 7.04644 66.30888-2.00127 8.30289-3.08945 18.87285-17.08453 16.85569-22.46924-27.31222 7.20314-55.94658 9.54292-84.02981 6.31231 23.66736-4.52447 49.36586-7.81697 68.86935-23.19547 7.31333-4.71079 16.80585-24.14072 12.07876-27.83999-24.17828 15.1772-50.83194 26.58203-78.78795 32.56085 22.59255-12.2514 47.25826-24.04237 62.4141-45.6622 6.09124-9.18672 7.91681-20.56487 6.60543-31.38077-.58726.64322-1.17448 1.28652-1.76177 1.92969zm-114.32812 107.23437c3.70652 2.62693 7.39893-14.9115 11.11192-19.76777 5.28717-6.91147 12.82579 12.57803 9.25466 18.95428-3.66778 17.14981-29.63473 20.49703-37.59287 4.8816-6.35735-7.70077-.93473-26.60193 7.1738-25.97668 3.35083 7.30286 6.70166 14.60571 10.05249 21.90857z" fill="#86522c" filter="url(#h)" stroke-width="4.22482"/><path d="m128.96094 224.07422c-2.52469 19.47636 9.9919 36.9789 25.1414 47.82397 13.64314 10.48111 28.83495 18.70188 44.06172 26.61353-28.6109-6.12067-55.85325-17.92465-80.48828-33.62695.0814 18.09876 14.10627 32.87273 30.41994 38.84762 16.66556 6.9339 34.53605 10.22713 52.24608 13.25199-28.55983 3.46701-58.10999.43842-85.54624-6.47076 3.94663 15.09779 17.84786 25.59379 33.09137 26.96184 17.1677 2.33222 34.53022.0423 51.56424-2.33288-24.80922 10.60216-51.45475 16.8488-78.38867 18.41015 6.67589 12.53836 21.42473 18.85084 35.19603 16.08117 22.31558-3.65921 42.55846-14.55688 62.57741-24.53624 5.96928 6.88471-9.02859 14.1895-12.40495 21.27328-4.00376 7.27226-16.48893 12.64764-11.9919 21.82238 2.76513 8.77421 2.52713 22.89839 14.70744 14.88562 11.08352-.44154 15.3577-7.19885 15.59808-17.69663 2.15069-10.29414 4.30216-20.58812 6.45266-30.88231 13.45968.47259 3.00896 14.79609 3.14119 23.18524-.39312 8.51239-6.80064 18.5691-3.02656 26.01103 6.24595 4.5671 12.38205 22.58347 18.75402 10.01718 6.79094-7.00356 14.55662-13.75957 8.82162-23.95767-2.53262-11.10549-5.06587-22.21084-7.59848-33.31633 12.09632-7.77238 8.67517 11.76391 12.39266 19.10445 3.30906 7.98849 1.60942 20.60533 8.30686 25.46228 7.72043.80743 21.29895 11.88979 20.68997-1.90411 2.54805-9.46502 6.65471-19.31204-3.33972-25.69677-7.37598-8.53612-14.7519-17.0723-22.12789-25.60842 6.39246-5.49048 15.8844 6.09527 23.78691 7.63771 18.07976 7.77964 37.50468 17.60926 57.70713 13.57282 6.25256-.79971 21.05621-12.01741 16.72199-15.6173-26.03341-1.76296-51.75572-7.92672-75.75759-18.16304 21.80576 2.47033 45.37571 7.00282 66.25163-2.16171 7.9306-2.71748 19.97759-18.45554 16.05477-22.22333-27.1172 7.0743-55.52323 9.34676-83.38594 6.1443 24.01842-4.64144 50.35517-7.86604 69.81827-24.04044 7.85397-7.08304 12.53146-17.52268 12.82822-28.05917-24.61438 15.66359-51.81032 27.51737-80.40137 33.5811 22.22798-12.01211 46.26348-23.6514 61.60001-44.50271 6.60566-9.37702 8.74221-21.23377 7.33261-32.4905-26.35123 29.73039-58.48359 54.67701-94.9707 70.67578 7.56924-13.83617-3.81963-32.66528-19.59005-32.347-16.41819-1.19764-28.47605 18.45286-20.50761 32.597-36.71757-15.99653-69.07081-41.03279-95.55469-70.92578zm114.72265 106.55859c3.22785 2.79536 6.44047-12.19061 9.66827-16.63439 4.4562-14.71331 15.45507 9.59351 10.38174 16.90456-4.28571 15.6225-27.4055 18.9567-36.14628 5.53255-8.13736-6.90971-2.28482-29.75564 6.23921-27.28707 3.2857 7.16144 6.57133 14.32297 9.85706 21.48435z" fill="#efbd76" filter="url(#g)" stroke-width="4.22482"/><path d="m135.66362 229.73816c-2.38037 29.16827 17.34493 47.75827 75.79985 77.0277-30.3251-5.4441-59.35347-16.88435-87.08297-34.28416v.0161c3.81485 28.93475 26.7513 40.60099 89.35197 50.1903-30.5457 4.4955-61.09464 2.74411-91.63873-5.22886 9.44296 25.88824 32.82815 30.38643 91.05062 20.88373-27.00525 12.58632-55.16089 19.8367-84.47552 21.77532 14.87576 22.48555 39.15199 18.71161 96.05998-10.84621 1.27629 1.65721 2.69838 3.18154 4.27113 4.55736l-29.35768 34.31698 6.01982 21.97656 20.78261-6.00208 9.53335-45.63454c2.99001 1.46137 6.25066 2.45356 9.66896 2.90929l-9.48333 45.31386 14.34255 16.73048 15.28523-17.30137-10.25705-44.97864c3.40054-.622 6.61653-1.79175 9.55057-3.41238l10.74508 47.13035 19.78986 6.18769 5.46456-23.23667-29.82794-34.51974c1.39465-1.28219 2.66878-2.67738 3.81701-4.18718 57.11514 29.69557 81.44464 33.52117 96.34623 10.99689-29.31514-1.9381-57.47028-9.18847-84.47554-21.77533 58.22193 9.50324 81.60768 5.00505 91.05061-20.8832-30.53923 7.9719-61.08277 9.72115-91.62256 5.22994 62.60012-9.59039 85.51939-21.25662 89.33526-50.19137v-.0161c-27.73538 17.40197-56.75244 28.84006-87.0824 34.28415 58.45491-29.26888 78.17861-47.86049 75.79932-77.02715-28.46559 31.57985-60.71317 55.05222-96.76701 70.40255 2.47399-3.48017 3.91707-7.747 3.91707-12.34204.002-11.7663-9.53658-21.30343-21.30289-21.30343-11.76739 0-21.30397 9.53713-21.30397 21.30397 0 4.7118 1.52916 9.08247 4.11938 12.61052-36.31371-15.34396-68.78676-38.90295-97.42234-70.67113zm103.37546 81.50006 11.24815 24.51566 11.06416-24.09543c6.09353 3.81646 10.12198 10.57935 10.12198 18.34517 0 12.00951-9.63128 21.62358-21.64079 21.62358-12.00843 0-21.63919-9.61513-21.63919-21.62358 0-8.06715 4.35183-15.04256 10.84515-18.76487z" fill="url(#f)"/><path d="m135.66362 229.73816c-2.38037 29.16827 17.34493 47.75827 75.79985 77.0277-30.3251-5.4441-59.35347-16.88435-87.08297-34.28416v.0161c3.81485 28.93475 26.7513 40.60099 89.35197 50.1903-30.5457 4.4955-61.09464 2.74411-91.63873-5.22886 9.44296 25.88824 32.82815 30.38643 91.05062 20.88373-27.00525 12.58632-55.16089 19.8367-84.47552 21.77532 14.87576 22.48555 39.15199 18.71161 96.05998-10.84621 1.27629 1.65721 2.69838 3.18154 4.27113 4.55736l-29.35768 34.31698 6.01982 21.97656 20.78261-6.00208 9.53335-45.63454c2.99001 1.46137 6.25066 2.45356 9.66896 2.90929l-9.48333 45.31386 14.34255 16.73048 15.28523-17.30137-10.25705-44.97864c3.40054-.622 6.61653-1.79175 9.55057-3.41238l10.74508 47.13035 19.78986 6.18769 5.46456-23.23667-29.82794-34.51974c1.39465-1.28219 2.66878-2.67738 3.81701-4.18718 57.11514 29.69557 81.44464 33.52117 96.34623 10.99689-29.31514-1.9381-57.47028-9.18847-84.47554-21.77533 58.22193 9.50324 81.60768 5.00505 91.05061-20.8832-30.53923 7.9719-61.08277 9.72115-91.62256 5.22994 62.60012-9.59039 85.51939-21.25662 89.33526-50.19137v-.0161c-27.73538 17.40197-56.75244 28.84006-87.0824 34.28415 58.45491-29.26888 78.17861-47.86049 75.79932-77.02715-28.46559 31.57985-60.71317 55.05222-96.76701 70.40255 2.47399-3.48017 3.91707-7.747 3.91707-12.34204.002-11.7663-9.53658-21.30343-21.30289-21.30343-11.76739 0-21.30397 9.53713-21.30397 21.30397 0 4.7118 1.52916 9.08247 4.11938 12.61052-36.31371-15.34396-68.78676-38.90295-97.42234-70.67113zm103.37546 81.50006 11.24815 24.51566 11.06416-24.09543c6.09353 3.81646 10.12198 10.57935 10.12198 18.34517 0 12.00951-9.63128 21.62358-21.64079 21.62358-12.00843 0-21.63919-9.61513-21.63919-21.62358 0-8.06715 4.35183-15.04256 10.84515-18.76487z" fill="#86522c" filter="url(#i)" opacity=".15"/></g><path d="m421.22852 310.55469c0-38.23321-19.84874-72.65098-50.94727-97.04688-31.09853-24.39588-73.54282-39.18164-118.83211-39.18164s-76.85226 18.06483-107.21434 39.86945c26.72043-17.39486 60.53711-25.73511 91.97614-24.8421 41.94192 1.19134 84.90761 18.85584 117.40429 45.39843 26.61455 21.73819 54.28892 52.45521 55.63086 86.79297.41565 10.63549-2.06331 21.28718-6.38451 31.4538 6.7064-14.49316 18.36694-26.01779 18.36694-42.44403z" fill="#86522c" filter="url(#d)" opacity=".75"/><path d="m265.0625 430.77344c-42.20059-.97468-85.95319-17.64694-118.58984-44.41797-26.61958-21.83537-53.354452-53.3613-54.445316-87.77344-.85728-27.04353 16.520406-54.09163 36.974606-72.50195-27.73597 24.01271-50.140622 48.68202-50.140622 84.47461 0 38.23317 19.848772 72.64904 50.947262 97.04492 31.0985 24.39586 73.54288 39.18359 120.23633 39.18359 46.69346 0 85.83705-23.81312 116.93555-48.20898-27.74871 22.35666-66.3342 33.02107-101.91797 32.19922z" fill="#efbd76" filter="url(#e)" opacity=".75" stroke-width="3.77953"/><path d="m250.04492 165.32617c-48.60136 0-92.94334 15.33353-125.79101 41.10156-32.847685 25.76805-54.392582 62.79356-54.392582 104.12696s21.544897 78.35695 54.392582 104.125c32.84767 25.76804 77.18965 41.10351 125.79101 41.10351s92.94334-15.33547 125.79102-41.10351c32.84767-25.76805 54.39258-62.7916 54.39258-104.125s-21.54491-78.35891-54.39258-104.12696c-32.84768-25.76803-77.18966-41.10156-125.79102-41.10156zm0 18a162.18382 127.22847 0 0 1 162.1836 127.22852 162.18382 127.22847 0 0 1 -162.1836 127.22851 162.18382 127.22847 0 0 1 -162.183592-127.22851 162.18382 127.22847 0 0 1 162.183592-127.22852z" fill="#86522c"/></g></svg>