<svg height="500" viewBox="0 0 132.29167 132.29167" width="500" xmlns="http://www.w3.org/2000/svg" xmlns:xlink="http://www.w3.org/1999/xlink"><linearGradient id="a" gradientTransform="matrix(.94080015 0 0 .94254031 168.78663 -9.839505)" gradientUnits="userSpaceOnUse" x1="-65.964897" x2="-108.65797" xlink:href="#b" y1="31.088467" y2="44.930946"/><linearGradient id="b" gradientTransform="matrix(391.593 0 0 -391.593 60.7962 7618.49)" gradientUnits="userSpaceOnUse" spreadMethod="pad" x1="0" x2="1" y1="0" y2="0"><stop offset="0" stop-color="#fff"/><stop offset=".51123601" stop-color="#c8d0d5"/><stop offset="1" stop-color="#b9c0c1"/></linearGradient><linearGradient id="c" gradientTransform="matrix(.87243242 0 0 .87243242 162.7333 -5.52831)" gradientUnits="userSpaceOnUse" x1="-70.856133" x2="-76.249809" xlink:href="#d" y1="47.023178" y2="46.9921"/><linearGradient id="d" gradientTransform="matrix(391.593 0 0 -391.593 60.7962 7618.49)" gradientUnits="userSpaceOnUse" spreadMethod="pad" x1="0" x2="1" y1="0" y2="0"><stop offset="0" stop-color="#fff" stop-opacity="0"/><stop offset=".25561801" stop-color="#e3e7ea"/><stop offset=".51123601" stop-color="#c8d0d5"/><stop offset=".75561798" stop-color="#c0c8cb"/><stop offset="1" stop-color="#b9c0c1" stop-opacity="0"/></linearGradient><linearGradient id="e" gradientTransform="matrix(.87243242 0 0 .87243242 162.7333 -5.52831)" gradientUnits="userSpaceOnUse" x1="-267.51828" x2="-274.02719" xlink:href="#d" y1="63.768021" y2="63.683189"/><linearGradient id="f" gradientTransform="matrix(.94080015 0 0 .94254031 168.78663 -9.839505)" gradientUnits="userSpaceOnUse" x1="-254.72231" x2="-280.0343" xlink:href="#b" y1="60.329174" y2="39.317177"/><use height="100%" stroke-width="1.14622" transform="matrix(-1 0 0 1 126.32957 19.175279)" width="100%" xlink:href="#g"/><use height="100%" stroke-width="1.14622" transform="matrix(-1 0 0 1 135.85779 13.656996)" width="100%" xlink:href="#g"/><use height="100%" stroke-width="1.14622" transform="matrix(-1 0 0 1 128.62084 8.454365)" width="100%" xlink:href="#g"/><use height="100%" stroke-width="1.14622" transform="matrix(-1 0 0 1 133.62191 1.609409)" width="100%" xlink:href="#g"/><use height="100%" stroke-width="1.14622" transform="matrix(-1 0 0 1 130.07038 -6.085564)" width="100%" xlink:href="#g"/><use height="100%" stroke-width="1.22267" transform="matrix(.93715655 0 0 .93780024 -30.512554 60.900097)" width="100%" xlink:href="#h"/><use height="100%" stroke-width="1.24692" transform="matrix(.8743131 0 0 .96646933 -32.323237 68.832778)" width="100%" xlink:href="#h"/><use height="100%" stroke-width="1.4218" transform="matrix(.76940968 0 0 .84470501 10.152272 67.516601)" width="100%" xlink:href="#g"/><use height="100%" stroke-width="1.14622" transform="translate(2.239338 47.680253)" width="100%" xlink:href="#h"/><use height="100%" stroke-width="1.14622" transform="translate(2.505247 38.915111)" width="100%" xlink:href="#h"/><use height="100%" stroke-width="1.14622" transform="translate(.51713 31.276549)" width="100%" xlink:href="#h"/><use height="100%" stroke-width="1.14622" transform="translate(1.198892 8.475665)" width="100%" xlink:href="#g"/><use height="100%" stroke-width="1.14622" transform="translate(5.225831 24.265812)" width="100%" xlink:href="#h"/><g id="g" transform="matrix(.75592249 0 0 .87243242 156.40453 10.261875)"><path d="m-88.876713 26.831954c-6.063036 0-11.521797 1.215458-15.670387 3.30264-4.14822 2.076526-7.22232 5.040309-7.22232 9.195304 0 4.151977 3.07828 7.143892 7.23059 9.220624.00078.000607.00051.0015.002.0021 4.12857 2.074979 9.556942 3.28024 15.582542 3.29127 5.356815.179221 10.831001-.499523 15.732404-3.283518 1.374135-.780513 2.895578-1.809014 4.277261-3.17345 1.381687-1.364437 2.897422-3.126291 2.978635-5.941757l.0015-.05633v-.05891c0-4.158516-3.078562-7.124204-7.232128-9.200984-4.153569-2.07678-9.597628-3.296957-15.679693-3.296957z" fill="#8fa2a3"/><path d="m-74.136041 43.792655c2.440062-1.388522 5.592234-3.864622 5.66071-6.242853 0-1.966614-1.734737-4.253373-5.432455-6.105651-3.697719-1.852275-9.038865-3.109993-14.996303-3.109993-5.934606 0-11.298581 1.257718-14.973471 3.109993-3.69772 1.852278-5.43245 4.139037-5.43245 6.105651 0 1.98948 1.73473 4.276239 5.43245 6.128514 3.67489 1.852278 9.038865 3.109993 14.973471 3.109993 5.33265.185253 10.400801-.510468 14.768048-2.995654z" fill="url(#f)"/><path d="m-76.336902 50.030969-.02296-5.147397c2.470698-1.296913 2.606587-1.051082 5.504309-3.426721l-.000606 5.566324c-1.975601 1.388146-3.43898 2.209655-5.480833 3.007794z" fill="url(#e)"/></g><use height="100%" stroke-width="1.14622" transform="translate(2.609886 7.94231)" width="100%" xlink:href="#h"/><g id="h" transform="matrix(.87243242 0 0 .87243242 162.73273 -5.528272)"><path d="m85.194335 17.880757c-5.28958 0-10.05196 1.060405-13.67133 2.881331-3.61903 1.811629-6.30097 4.39733-6.30097 8.022283 0 3.622321 2.68558 6.232565 6.30818 8.044374.00069.000529.00045.0013.001.0019 3.60189 1.810279 8.33777 2.861789 13.59469 2.871412 4.67345.156358 9.4493-.435801 13.72543-2.864649 1.198845-.680945 2.526195-1.578243 3.731625-2.768622 1.20542-1.190379 2.5278-2.727478 2.59865-5.183783l.001-.04914v-.05139c0-3.628025-2.68583-6.215388-6.309535-8.027239-3.6237-1.811851-8.37326-2.876373-13.67945-2.876373z" fill="#8fa2a3" transform="matrix(1.1462206 0 0 1.1462206 -186.52761 6.336619)"/><path d="m98.054555 32.677826c2.128785-1.211392 4.878845-3.371622 4.938585-5.446469 0-1.715738-1.51344-3.710781-4.739445-5.326769-3.22601-1.615985-7.88579-2.71326-13.08324-2.71326-5.17753 0-9.85723 1.097275-13.06332 2.71326-3.226 1.615988-4.73944 3.611031-4.73944 5.326769 0 1.735688 1.51344 3.730731 4.73944 5.346716 3.20609 1.615988 7.88579 2.71326 13.06332 2.71326 4.65237.161621 9.07398-.445349 12.8841-2.613507z" fill="url(#a)" transform="matrix(1.1462206 0 0 1.1462206 -186.52761 6.336619)"/><path d="m96.134455 38.120335-.02-4.490757c2.15551-1.13147 2.27407-.916999 4.802135-2.989583l-.00053 4.856242c-1.723575 1.211064-3.000275 1.927775-4.781655 2.624098z" fill="url(#c)" transform="matrix(1.1462206 0 0 1.1462206 -186.52761 6.336619)"/></g><use height="100%" transform="matrix(0 -1 -.68685184 0 142.02763 156.2493)" width="100%" xlink:href="#g"/><use transform="matrix(1 -.2703813 0 1 -55.309703 83.160577)" xlink:href="#h"/></svg>