<svg height="500" viewBox="0 0 132.29167 132.29167" width="500" xmlns="http://www.w3.org/2000/svg" xmlns:xlink="http://www.w3.org/1999/xlink"><linearGradient id="a" gradientTransform="matrix(1.0783645 0 0 1.0803591 6.938701 -4.941596)" gradientUnits="userSpaceOnUse" spreadMethod="pad" x1="-65.964897" x2="-108.65797" y1="31.088467" y2="44.930946"><stop offset="0" stop-color="#9f571d"/><stop offset=".511236" stop-color="#fde791"/><stop offset="1" stop-color="#b7671e"/></linearGradient><linearGradient id="b" gradientUnits="userSpaceOnUse" spreadMethod="pad" x1="-70.855891" x2="-76.249567" y1="47.023163" y2="46.992085"><stop offset="0" stop-color="#9f571d" stop-opacity="0"/><stop offset=".25561801" stop-color="#ce9f57"/><stop offset=".511236" stop-color="#fde791"/><stop offset=".75561798" stop-color="#daa757"/><stop offset="1" stop-color="#b7671e" stop-opacity="0"/></linearGradient><use height="100%" stroke-width="1.14622" transform="matrix(-1 0 0 1 126.32957 19.175279)" width="100%" xlink:href="#c"/><use height="100%" stroke-width="1.14622" transform="matrix(-1 0 0 1 135.85779 13.656996)" width="100%" xlink:href="#c"/><use height="100%" stroke-width="1.14622" transform="matrix(-1 0 0 1 128.62084 8.454365)" width="100%" xlink:href="#c"/><use height="100%" stroke-width="1.14622" transform="matrix(-1 0 0 1 133.62191 1.609409)" width="100%" xlink:href="#c"/><use height="100%" stroke-width="1.14622" transform="matrix(-1 0 0 1 130.07038 -6.085564)" width="100%" xlink:href="#c"/><use height="100%" stroke-width="1.22267" transform="matrix(.93715655 0 0 .93780024 -30.512554 60.900097)" width="100%" xlink:href="#d"/><use height="100%" stroke-width="1.24692" transform="matrix(.8743131 0 0 .96646933 -32.323237 68.832778)" width="100%" xlink:href="#d"/><use height="100%" stroke-width="1.4218" transform="matrix(.76940968 0 0 .84470501 10.152272 67.516601)" width="100%" xlink:href="#c"/><use height="100%" stroke-width="1.14622" transform="translate(2.239338 47.680253)" width="100%" xlink:href="#d"/><use height="100%" stroke-width="1.14622" transform="translate(2.505247 38.915111)" width="100%" xlink:href="#d"/><use height="100%" stroke-width="1.14622" transform="translate(.51713 31.276549)" width="100%" xlink:href="#d"/><use height="100%" stroke-width="1.14622" transform="translate(1.198892 8.475665)" width="100%" xlink:href="#c"/><use height="100%" stroke-width="1.14622" transform="translate(5.225831 24.265812)" width="100%" xlink:href="#d"/><g id="c" transform="matrix(.75592249 0 0 .87243242 156.40453 10.261875)"><path d="m-88.876713 26.831954c-6.063036 0-11.521797 1.215458-15.670387 3.30264-4.14822 2.076526-7.22232 5.040309-7.22232 9.195304 0 4.151977 3.07828 7.143892 7.23059 9.220624.00078.000607.00051.0015.002.0021 4.12857 2.074979 9.556942 3.28024 15.582542 3.29127 5.356815.179221 10.831001-.499523 15.732404-3.283518 1.374135-.780513 2.895578-1.809014 4.277261-3.17345 1.381687-1.364437 2.897422-3.126291 2.978635-5.941757l.0015-.05633v-.05891c0-4.158516-3.078562-7.124204-7.232128-9.200984-4.153569-2.07678-9.597628-3.296957-15.679693-3.296957z" fill="#86522c"/><path d="m-74.136041 43.792655c2.440062-1.388522 5.592234-3.864622 5.66071-6.242853 0-1.966614-1.734737-4.253373-5.432455-6.105651-3.697719-1.852275-9.038865-3.109993-14.996303-3.109993-5.934606 0-11.298581 1.257718-14.973471 3.109993-3.69772 1.852278-5.43245 4.139037-5.43245 6.105651 0 1.98948 1.73473 4.276239 5.43245 6.128514 3.67489 1.852278 9.038865 3.109993 14.973471 3.109993 5.33265.185253 10.400801-.510468 14.768048-2.995654z" fill="url(#a)"/><path d="m-76.336902 50.030969-.02296-5.147397c2.470698-1.296913 2.606587-1.051082 5.504309-3.426721l-.000606 5.566324c-1.975601 1.388146-3.43898 2.209655-5.480833 3.007794z" fill="url(#b)"/></g><use height="100%" stroke-width="1.14622" transform="translate(2.609886 7.94231)" width="100%" xlink:href="#d"/><g id="d" transform="matrix(.87243242 0 0 .87243242 162.73273 -5.528272)"><path d="m-88.876507 26.83194c-6.063023 0-11.521773 1.215458-15.670363 3.30264-4.14821 2.076527-7.2223 5.04031-7.2223 9.195305 0 4.151978 3.07827 7.143897 7.23057 9.220626.00079.000607.00052.0015.002.0021 4.12856 2.07498 9.556921 3.280242 15.582512 3.291272 5.356804.179221 10.830979-.499524 15.73237-3.28352 1.374136-.780513 2.895573-1.809014 4.277257-3.173448 1.381684-1.36444 2.897417-3.126295 2.978629-5.941758l.0015-.05633v-.05891c0-4.158518-3.078557-7.124209-7.232116-9.20099-4.153561-2.076781-9.597613-3.296957-15.679665-3.296957z" fill="#86522c"/><path d="m-74.135859 43.792643c2.440056-1.388522 5.592224-3.864623 5.660699-6.242855 0-1.966613-1.734734-4.253373-5.432446-6.10565-3.697711-1.852277-9.038848-3.109994-14.996274-3.109994-5.934596 0-11.29856 1.257717-14.97345 3.109994-3.69771 1.852277-5.43244 4.139037-5.43244 6.10565 0 1.989481 1.73473 4.276241 5.43244 6.128519 3.67489 1.852275 9.038854 3.109991 14.97345 3.109991 5.332639.185253 10.400781-.510468 14.768021-2.995655z" fill="url(#a)"/><path d="m-76.336717 50.030958-.02296-5.147398c2.470693-1.296913 2.606583-1.051079 5.5043-3.426718l-.000607 5.566321c-1.975597 1.388147-3.438973 2.209659-5.480823 3.007795z" fill="url(#b)"/></g><use height="100%" transform="matrix(0 -1 -.68685184 0 142.02763 156.2493)" width="100%" xlink:href="#c"/><use transform="matrix(1 -.2703813 0 1 -55.309703 83.160577)" xlink:href="#d"/></svg>