<svg height="500" viewBox="0 0 132.29167 132.29167" width="500" xmlns="http://www.w3.org/2000/svg" xmlns:xlink="http://www.w3.org/1999/xlink"><linearGradient id="a" gradientTransform="matrix(1.0783645 0 0 1.0803591 6.938645 -4.941564)" gradientUnits="userSpaceOnUse" spreadMethod="pad" x1="-65.964897" x2="-108.65797" y1="31.088467" y2="44.930946"><stop offset="0" stop-color="#a06122"/><stop offset=".511236" stop-color="#efbd76"/><stop offset="1" stop-color="#b57720"/></linearGradient><linearGradient id="b" gradientUnits="userSpaceOnUse" spreadMethod="pad" x1="-70.855951" x2="-76.249627" y1="47.023194" y2="46.992116"><stop offset="0" stop-color="#a06122" stop-opacity="0"/><stop offset=".25561801" stop-color="#c78f4c"/><stop offset=".511236" stop-color="#efbd76"/><stop offset=".75561798" stop-color="#d29a4b"/><stop offset="1" stop-color="#b57720" stop-opacity="0"/></linearGradient><use height="100%" stroke-width="1.14622" transform="matrix(-1 0 0 1 126.32957 19.175279)" width="100%" xlink:href="#c"/><use height="100%" stroke-width="1.14622" transform="matrix(-1 0 0 1 135.85779 13.656996)" width="100%" xlink:href="#c"/><use height="100%" stroke-width="1.14622" transform="matrix(-1 0 0 1 128.62084 8.454365)" width="100%" xlink:href="#c"/><use height="100%" stroke-width="1.14622" transform="matrix(-1 0 0 1 133.62191 1.609409)" width="100%" xlink:href="#c"/><use height="100%" stroke-width="1.14622" transform="matrix(-1 0 0 1 130.07038 -6.085564)" width="100%" xlink:href="#c"/><use height="100%" stroke-width="1.22267" transform="matrix(.93715655 0 0 .93780024 -30.512554 60.900097)" width="100%" xlink:href="#d"/><use height="100%" stroke-width="1.24692" transform="matrix(.8743131 0 0 .96646933 -32.323237 68.832778)" width="100%" xlink:href="#d"/><use height="100%" stroke-width="1.4218" transform="matrix(.76940968 0 0 .84470501 10.152272 67.516601)" width="100%" xlink:href="#c"/><use height="100%" stroke-width="1.14622" transform="translate(2.239338 47.680253)" width="100%" xlink:href="#d"/><use height="100%" stroke-width="1.14622" transform="translate(2.505247 38.915111)" width="100%" xlink:href="#d"/><use height="100%" stroke-width="1.14622" transform="translate(.51713 31.276549)" width="100%" xlink:href="#d"/><use height="100%" stroke-width="1.14622" transform="translate(1.198892 8.475665)" width="100%" xlink:href="#c"/><use height="100%" stroke-width="1.14622" transform="translate(5.225831 24.265812)" width="100%" xlink:href="#d"/><g id="c" transform="matrix(.75592249 0 0 .87243242 156.40453 10.261875)"><path d="m-88.876713 26.831954c-6.063036 0-11.521797 1.215458-15.670387 3.30264-4.14822 2.076526-7.22232 5.040309-7.22232 9.195304 0 4.151977 3.07828 7.143892 7.23059 9.220624.00078.000607.00051.0015.002.0021 4.12857 2.074979 9.556942 3.28024 15.582542 3.29127 5.356815.179221 10.831001-.499523 15.732404-3.283518 1.374135-.780513 2.895578-1.809014 4.277261-3.17345 1.381687-1.364437 2.897422-3.126291 2.978635-5.941757l.0015-.05633v-.05891c0-4.158516-3.078562-7.124204-7.232128-9.200984-4.153569-2.07678-9.597628-3.296957-15.679693-3.296957z" fill="#86522c"/><path d="m-74.136041 43.792655c2.440062-1.388522 5.592234-3.864622 5.66071-6.242853 0-1.966614-1.734737-4.253373-5.432455-6.105651-3.697719-1.852275-9.038865-3.109993-14.996303-3.109993-5.934606 0-11.298581 1.257718-14.973471 3.109993-3.69772 1.852278-5.43245 4.139037-5.43245 6.105651 0 1.98948 1.73473 4.276239 5.43245 6.128514 3.67489 1.852278 9.038865 3.109993 14.973471 3.109993 5.33265.185253 10.400801-.510468 14.768048-2.995654z" fill="url(#a)"/><path d="m-76.336902 50.030969-.02296-5.147397c2.470698-1.296913 2.606587-1.051082 5.504309-3.426721l-.000606 5.566324c-1.975601 1.388146-3.43898 2.209655-5.480833 3.007794z" fill="url(#b)"/></g><use height="100%" stroke-width="1.14622" transform="translate(2.609886 7.94231)" width="100%" xlink:href="#d"/><g id="d" transform="matrix(.87243242 0 0 .87243242 162.73273 -5.528272)"><path d="m-88.876565 26.831971c-6.063026 0-11.521775 1.215459-15.670365 3.30264-4.14821 2.076527-7.2223 5.04031-7.2223 9.195306 0 4.151979 3.07827 7.143895 7.23057 9.220626.0008.000529.00053.0016.002.0021 4.12856 2.074979 9.556919 3.28024 15.582507 3.29127 5.356805.179221 10.830985-.499521 15.732374-3.283518 1.374136-.780513 2.895575-1.809015 4.277258-3.173449 1.381683-1.364438 2.897415-3.126293 2.978628-5.941759l.0016-.05633v-.0589c0-4.158517-3.078556-7.124208-7.232115-9.200989s-9.597613-3.296957-15.679664-3.296957z" fill="#86522c"/><path d="m-74.135922 43.792675c2.44006-1.388521 5.592225-3.864622 5.660701-6.242855 0-1.966613-1.734733-4.253373-5.432445-6.105651-3.697712-1.852276-9.03885-3.109993-14.996276-3.109993-5.934596 0-11.298558 1.257717-14.973448 3.109993-3.69771 1.852278-5.43244 4.139038-5.43244 6.105651 0 1.989482 1.73473 4.276241 5.43244 6.128517 3.67489 1.852278 9.038852 3.109995 14.973448 3.109995 5.332641.185253 10.40078-.510469 14.76802-2.995657z" fill="url(#a)"/><path d="m-76.336778 50.030991-.02296-5.147398c2.470693-1.296913 2.606582-1.051081 5.504299-3.426721l-.000513 5.566325c-1.975596 1.388144-3.438972 2.209655-5.480822 3.007794z" fill="url(#b)"/></g><use height="100%" transform="matrix(0 -1 -.68685184 0 142.02763 156.2493)" width="100%" xlink:href="#c"/><use transform="matrix(1 -.2703813 0 1 -55.309703 83.160577)" xlink:href="#d"/></svg>